<svg xmlns="http://www.w3.org/2000/svg" xmlns:xlink="http://www.w3.org/1999/xlink" width="1080" zoomAndPan="magnify" viewBox="0 0 810 809.999993" height="1080" preserveAspectRatio="xMidYMid meet" version="1.2"><defs><clipPath id="8dd6cf7a38"><path d="M 559.765625 495.867188 L 577.242188 495.867188 L 577.242188 554.691406 L 559.765625 554.691406 Z M 559.765625 495.867188 "/></clipPath></defs><g id="f40cf2d789"><path style=" stroke:none;fill-rule:nonzero;fill:#9c9e9f;fill-opacity:1;" d="M 315.597656 596.796875 C 299.515625 586.03125 287.667969 571.96875 279.871094 554.457031 C 271.226562 535.175781 266.625 513.257812 265.894531 488.503906 C 265.195312 463.761719 267.328125 437.757812 272.289062 410.535156 C 280.042969 365.277344 292.25 326.011719 308.535156 292.617188 C 324.949219 259.191406 345.636719 233.214844 370.394531 214.820312 C 395.144531 196.253906 423.96875 186.890625 456.859375 186.699219 C 489.367188 186.699219 515.1875 195.019531 534.464844 211.464844 C 553.574219 227.898438 564.886719 251.769531 568.222656 283.246094 L 805.832031 283.246094 C 806.226562 236.21875 798.789062 195.199219 783.746094 159.835938 C 768.898438 124.460938 747.3125 94.964844 719.554688 71.261719 C 691.632812 47.566406 658.566406 29.710938 620.394531 17.867188 C 582.226562 6.023438 540.132812 0 493.960938 0 C 431.90625 0.179688 374.652344 10.265625 321.945312 30.058594 C 269.257812 49.675781 222.253906 77.800781 181.214844 114.226562 C 140.039062 150.648438 105.894531 194.132812 78.859375 244.347656 C 0.046875 389.707031 1.40625 606.027344 208.996094 613.171875 C 245.695312 614.429688 281.421875 608.273438 315.597656 596.796875 "/><path style=" stroke:none;fill-rule:nonzero;fill:#8bc649;fill-opacity:1;" d="M 798.082031 363.859375 L 380.65625 363.859375 L 529.375 489.230469 C 297.867188 714.414062 77.304688 653.289062 16.609375 554.628906 C 22.089844 596.871094 33.765625 633.480469 51.640625 664.773438 C 69.316406 696.066406 91.941406 722.054688 119.359375 742.558594 C 146.734375 763.246094 177.851562 778.636719 212.515625 788.878906 C 247 798.960938 283.941406 804.09375 323.203125 804.09375 C 446.054688 803.550781 565.636719 744.316406 651.933594 658.074219 L 725.878906 810.304688 Z M 798.082031 363.859375 "/><g clip-rule="nonzero" clip-path="url(#8dd6cf7a38)"><path style=" stroke:none;fill-rule:nonzero;fill:#97bf29;fill-opacity:1;" d="M 559.765625 495.867188 L 577.242188 495.867188 L 577.242188 554.71875 L 559.765625 554.71875 Z M 559.765625 495.867188 "/></g></g></svg>