<svg xmlns="http://www.w3.org/2000/svg" xmlns:xlink="http://www.w3.org/1999/xlink" width="600" zoomAndPan="magnify" viewBox="0 0 450 112.499997" height="150" preserveAspectRatio="xMidYMid meet" version="1.2"><defs><clipPath id="d12811e8a5"><path d="M 144 3.773438 L 245 3.773438 L 245 84 L 144 84 Z M 144 3.773438 "/></clipPath><clipPath id="1949f34c2c"><path d="M 142 51 L 244 51 L 244 109.054688 L 142 109.054688 Z M 142 51 "/></clipPath></defs><g id="c38d249c1e"><g style="fill:#9c9e9f;fill-opacity:1;"><g transform="translate(0.922591, 108.474226)"><path style="stroke:none" d="M 68.515625 -76.828125 C 66.210938 -79.316406 63.648438 -81.273438 60.828125 -82.703125 C 58.015625 -84.140625 54.164062 -84.859375 49.28125 -84.859375 C 44.113281 -84.859375 40.210938 -84.003906 37.578125 -82.296875 C 34.953125 -80.585938 33.640625 -78.441406 33.640625 -75.859375 C 33.640625 -74.097656 34.375 -72.429688 35.84375 -70.859375 C 37.320312 -69.296875 39.910156 -68.054688 43.609375 -67.140625 L 66.03125 -61.046875 C 74.332031 -58.828125 80.554688 -55.132812 84.703125 -49.96875 C 88.859375 -44.800781 90.9375 -38.617188 90.9375 -31.421875 C 90.9375 -24.773438 89.207031 -18.984375 85.75 -14.046875 C 82.289062 -9.109375 77.332031 -5.300781 70.875 -2.625 C 64.414062 0.0507812 56.847656 1.390625 48.171875 1.390625 C 38.390625 1.390625 29.503906 -0.242188 21.515625 -3.515625 C 13.535156 -6.796875 7.882812 -11.207031 4.5625 -16.75 C 4.101562 -17.675781 3.875 -18.367188 3.875 -18.828125 C 3.875 -19.566406 4.382812 -20.304688 5.40625 -21.046875 L 17.859375 -29.625 C 18.867188 -30.269531 19.742188 -30.59375 20.484375 -30.59375 C 21.410156 -30.59375 22.148438 -30.222656 22.703125 -29.484375 C 26.023438 -25.234375 29.367188 -22.234375 32.734375 -20.484375 C 36.109375 -18.734375 40.5625 -17.859375 46.09375 -17.859375 C 51.71875 -17.859375 56.164062 -18.6875 59.4375 -20.34375 C 62.71875 -22.007812 64.359375 -24.410156 64.359375 -27.546875 C 64.359375 -31.785156 60.992188 -34.832031 54.265625 -36.6875 L 33.21875 -42.21875 C 25.101562 -44.34375 18.738281 -48.101562 14.125 -53.5 C 9.507812 -58.894531 7.203125 -65.101562 7.203125 -72.125 C 7.203125 -78.113281 8.90625 -83.53125 12.3125 -88.375 C 15.726562 -93.226562 20.550781 -97.0625 26.78125 -99.875 C 33.007812 -102.6875 40.234375 -104.09375 48.453125 -104.09375 C 56.390625 -104.09375 63.769531 -102.753906 70.59375 -100.078125 C 77.425781 -97.398438 82.503906 -93.847656 85.828125 -89.421875 C 86.472656 -88.316406 86.796875 -87.53125 86.796875 -87.0625 C 86.796875 -86.601562 86.472656 -86.097656 85.828125 -85.546875 L 72.25 -75.71875 C 71.882812 -75.34375 71.472656 -75.15625 71.015625 -75.15625 C 70.460938 -75.15625 69.628906 -75.710938 68.515625 -76.828125 Z M 68.515625 -76.828125 "/></g></g><g style="fill:#9c9e9f;fill-opacity:1;"><g transform="translate(94.906995, 108.474226)"><path style="stroke:none" d="M 34.046875 -102.703125 C 35.617188 -102.703125 36.40625 -101.828125 36.40625 -100.078125 L 36.40625 -3.734375 C 36.40625 -2.347656 36.082031 -1.378906 35.4375 -0.828125 C 34.789062 -0.273438 33.726562 0 32.25 0 L 11.765625 0 C 10.472656 0 9.59375 -0.25 9.125 -0.75 C 8.664062 -1.257812 8.4375 -2.070312 8.4375 -3.1875 L 8.4375 -99.796875 C 8.4375 -100.722656 8.644531 -101.4375 9.0625 -101.9375 C 9.476562 -102.445312 10.054688 -102.703125 10.796875 -102.703125 Z M 34.046875 -102.703125 "/></g></g><g style="fill:#9c9e9f;fill-opacity:1;"><g transform="translate(138.101961, 108.474226)"><path style="stroke:none" d=""/></g></g><g style="fill:#9c9e9f;fill-opacity:1;"><g transform="translate(164.67775, 108.474226)"><path style="stroke:none" d=""/></g></g><g style="fill:#9c9e9f;fill-opacity:1;"><g transform="translate(191.253538, 108.474226)"><path style="stroke:none" d=""/></g></g><g style="fill:#9c9e9f;fill-opacity:1;"><g transform="translate(217.829326, 108.474226)"><path style="stroke:none" d=""/></g></g><g style="fill:#9c9e9f;fill-opacity:1;"><g transform="translate(244.41072, 108.474226)"><path style="stroke:none" d="M 6.234375 0 C 5.492188 0 4.914062 -0.226562 4.5 -0.6875 C 4.082031 -1.15625 3.875 -1.800781 3.875 -2.625 C 3.875 -3.269531 4.015625 -3.914062 4.296875 -4.5625 L 38.34375 -99.796875 C 38.707031 -100.910156 39.164062 -101.671875 39.71875 -102.078125 C 40.28125 -102.492188 41.113281 -102.703125 42.21875 -102.703125 L 66.296875 -102.703125 C 68.515625 -102.703125 70.085938 -101.550781 71.015625 -99.25 L 104.640625 -4.296875 C 104.734375 -4.015625 104.78125 -3.550781 104.78125 -2.90625 C 104.78125 -2.070312 104.617188 -1.378906 104.296875 -0.828125 C 103.972656 -0.273438 103.488281 0 102.84375 0 L 78.90625 0 C 77.425781 0 76.457031 -0.738281 76 -2.21875 L 69.90625 -20.203125 C 69.625 -20.765625 69.367188 -21.160156 69.140625 -21.390625 C 68.910156 -21.617188 68.472656 -21.734375 67.828125 -21.734375 L 36.40625 -21.734375 C 35.382812 -21.734375 34.738281 -21.222656 34.46875 -20.203125 L 27.96875 -1.9375 C 27.5 -0.644531 26.484375 0 24.921875 0 Z M 61.59375 -42.765625 C 62.519531 -42.765625 62.984375 -43.226562 62.984375 -44.15625 C 62.984375 -44.707031 62.9375 -45.125 62.84375 -45.40625 L 52.875 -73.21875 C 52.78125 -73.78125 52.503906 -74.0625 52.046875 -74.0625 C 51.679688 -74.0625 51.40625 -73.78125 51.21875 -73.21875 L 41.109375 -45.40625 C 40.921875 -45.03125 40.828125 -44.566406 40.828125 -44.015625 C 40.828125 -43.179688 41.382812 -42.765625 42.5 -42.765625 Z M 61.59375 -42.765625 "/></g></g><g style="fill:#8bc649;fill-opacity:1;"><g transform="translate(351.547825, 108.474226)"><path style="stroke:none" d="M 38.34375 -42.359375 C 37.789062 -42.359375 37.328125 -42.195312 36.953125 -41.875 C 36.585938 -41.550781 36.40625 -41.113281 36.40625 -40.5625 L 36.40625 -3.59375 C 36.40625 -2.300781 36.082031 -1.378906 35.4375 -0.828125 C 34.789062 -0.273438 33.726562 0 32.25 0 L 11.765625 0 C 10.472656 0 9.59375 -0.25 9.125 -0.75 C 8.664062 -1.257812 8.4375 -2.070312 8.4375 -3.1875 L 8.4375 -99.796875 C 8.4375 -100.722656 8.644531 -101.4375 9.0625 -101.9375 C 9.476562 -102.445312 10.054688 -102.703125 10.796875 -102.703125 L 34.046875 -102.703125 C 34.785156 -102.703125 35.363281 -102.472656 35.78125 -102.015625 C 36.195312 -101.554688 36.40625 -100.910156 36.40625 -100.078125 L 36.40625 -66.296875 C 36.40625 -64.546875 37.144531 -63.671875 38.625 -63.671875 L 66.171875 -63.671875 C 67.640625 -63.671875 68.375 -64.546875 68.375 -66.296875 L 68.375 -100.078125 C 68.375 -100.910156 68.582031 -101.554688 69 -102.015625 C 69.414062 -102.472656 69.992188 -102.703125 70.734375 -102.703125 L 93.984375 -102.703125 C 94.722656 -102.703125 95.300781 -102.445312 95.71875 -101.9375 C 96.132812 -101.4375 96.34375 -100.722656 96.34375 -99.796875 L 96.34375 -3.1875 C 96.34375 -2.070312 96.109375 -1.257812 95.640625 -0.75 C 95.179688 -0.25 94.304688 0 93.015625 0 L 72.53125 0 C 71.050781 0 69.988281 -0.273438 69.34375 -0.828125 C 68.695312 -1.378906 68.375 -2.300781 68.375 -3.59375 L 68.375 -40.5625 C 68.375 -41.113281 68.210938 -41.550781 67.890625 -41.875 C 67.566406 -42.195312 67.082031 -42.359375 66.4375 -42.359375 Z M 38.34375 -42.359375 "/></g></g><g clip-rule="nonzero" clip-path="url(#d12811e8a5)"><path style=" stroke:none;fill-rule:nonzero;fill:#9c9e9f;fill-opacity:1;" d="M 181.285156 81.3125 C 179.195312 79.914062 177.65625 78.089844 176.640625 75.8125 C 175.519531 73.308594 174.921875 70.460938 174.824219 67.242188 C 174.734375 64.027344 175.011719 60.648438 175.65625 57.113281 C 176.664062 51.234375 178.25 46.132812 180.367188 41.792969 C 182.5 37.449219 185.1875 34.074219 188.402344 31.683594 C 191.617188 29.273438 195.363281 28.054688 199.636719 28.03125 C 203.859375 28.03125 207.214844 29.113281 209.71875 31.246094 C 212.203125 33.382812 213.671875 36.484375 214.105469 40.574219 L 244.980469 40.574219 C 245.03125 34.464844 244.0625 29.132812 242.109375 24.539062 C 240.179688 19.945312 237.375 16.109375 233.769531 13.03125 C 230.140625 9.953125 225.84375 7.632812 220.886719 6.09375 C 215.925781 4.554688 210.457031 3.773438 204.457031 3.773438 C 196.394531 3.796875 188.957031 5.105469 182.109375 7.679688 C 175.261719 10.226562 169.15625 13.882812 163.824219 18.613281 C 158.472656 23.347656 154.035156 28.996094 150.523438 35.519531 C 140.285156 54.40625 140.460938 82.511719 167.433594 83.441406 C 172.203125 83.605469 176.84375 82.804688 181.285156 81.3125 "/></g><g clip-rule="nonzero" clip-path="url(#1949f34c2c)"><path style=" stroke:none;fill-rule:nonzero;fill:#8bc649;fill-opacity:1;" d="M 243.972656 51.046875 L 189.738281 51.046875 L 209.058594 67.335938 C 178.980469 96.59375 150.324219 88.652344 142.4375 75.835938 C 143.148438 81.324219 144.664062 86.078125 146.988281 90.144531 C 149.285156 94.210938 152.222656 97.589844 155.785156 100.253906 C 159.34375 102.941406 163.386719 104.941406 167.890625 106.269531 C 172.371094 107.582031 177.171875 108.246094 182.273438 108.246094 C 198.234375 108.175781 213.769531 100.480469 224.984375 89.277344 L 234.589844 109.054688 Z M 243.972656 51.046875 "/></g></g></svg>