<svg xmlns="http://www.w3.org/2000/svg" xmlns:xlink="http://www.w3.org/1999/xlink" width="600" zoomAndPan="magnify" viewBox="0 0 450 225" height="300" preserveAspectRatio="xMidYMid meet" version="1.2"><defs><clipPath id="4768e4541b"><path d="M 143 27.84375 L 244.316406 27.84375 L 244.316406 108 L 143 108 Z M 143 27.84375 "/></clipPath><clipPath id="0146b3fd0d"><path d="M 141 75 L 244 75 L 244 133.453125 L 141 133.453125 Z M 141 75 "/></clipPath></defs><g id="4a331c84f5"><g style="fill:#9c9e9f;fill-opacity:1;"><g transform="translate(-0.0730866, 132.680979)"><path style="stroke:none" d="M 68.609375 -76.921875 C 66.296875 -79.410156 63.726562 -81.367188 60.90625 -82.796875 C 58.09375 -84.234375 54.238281 -84.953125 49.34375 -84.953125 C 44.164062 -84.953125 40.257812 -84.097656 37.625 -82.390625 C 34.988281 -80.679688 33.671875 -78.535156 33.671875 -75.953125 C 33.671875 -74.191406 34.410156 -72.523438 35.890625 -70.953125 C 37.367188 -69.390625 39.957031 -68.144531 43.65625 -67.21875 L 66.109375 -61.125 C 74.421875 -58.90625 80.65625 -55.207031 84.8125 -50.03125 C 88.976562 -44.851562 91.0625 -38.660156 91.0625 -31.453125 C 91.0625 -24.804688 89.328125 -19.007812 85.859375 -14.0625 C 82.390625 -9.125 77.421875 -5.3125 70.953125 -2.625 C 64.492188 0.0507812 56.921875 1.390625 48.234375 1.390625 C 38.441406 1.390625 29.546875 -0.25 21.546875 -3.53125 C 13.554688 -6.8125 7.898438 -11.222656 4.578125 -16.765625 C 4.109375 -17.691406 3.875 -18.382812 3.875 -18.84375 C 3.875 -19.582031 4.382812 -20.320312 5.40625 -21.0625 L 17.875 -29.65625 C 18.894531 -30.300781 19.773438 -30.625 20.515625 -30.625 C 21.429688 -30.625 22.171875 -30.253906 22.734375 -29.515625 C 26.054688 -25.265625 29.40625 -22.257812 32.78125 -20.5 C 36.15625 -18.75 40.613281 -17.875 46.15625 -17.875 C 51.789062 -17.875 56.25 -18.707031 59.53125 -20.375 C 62.8125 -22.039062 64.453125 -24.441406 64.453125 -27.578125 C 64.453125 -31.828125 61.078125 -34.878906 54.328125 -36.734375 L 33.265625 -42.265625 C 25.128906 -44.390625 18.75 -48.15625 14.125 -53.5625 C 9.507812 -58.96875 7.203125 -65.179688 7.203125 -72.203125 C 7.203125 -78.210938 8.910156 -83.640625 12.328125 -88.484375 C 15.753906 -93.335938 20.582031 -97.171875 26.8125 -99.984375 C 33.050781 -102.804688 40.28125 -104.21875 48.5 -104.21875 C 56.445312 -104.21875 63.835938 -102.878906 70.671875 -100.203125 C 77.515625 -97.523438 82.597656 -93.96875 85.921875 -89.53125 C 86.566406 -88.425781 86.890625 -87.640625 86.890625 -87.171875 C 86.890625 -86.710938 86.566406 -86.207031 85.921875 -85.65625 L 72.34375 -75.8125 C 71.976562 -75.4375 71.5625 -75.25 71.09375 -75.25 C 70.539062 -75.25 69.710938 -75.804688 68.609375 -76.921875 Z M 68.609375 -76.921875 "/></g></g><g style="fill:#9c9e9f;fill-opacity:1;"><g transform="translate(94.034678, 132.680979)"><path style="stroke:none" d="M 34.09375 -102.84375 C 35.664062 -102.84375 36.453125 -101.960938 36.453125 -100.203125 L 36.453125 -3.734375 C 36.453125 -2.347656 36.128906 -1.378906 35.484375 -0.828125 C 34.835938 -0.273438 33.773438 0 32.296875 0 L 11.78125 0 C 10.488281 0 9.609375 -0.253906 9.140625 -0.765625 C 8.679688 -1.273438 8.453125 -2.082031 8.453125 -3.1875 L 8.453125 -99.921875 C 8.453125 -100.847656 8.660156 -101.566406 9.078125 -102.078125 C 9.492188 -102.585938 10.070312 -102.84375 10.8125 -102.84375 Z M 34.09375 -102.84375 "/></g></g><g style="fill:#9c9e9f;fill-opacity:1;"><g transform="translate(137.286341, 132.680979)"><path style="stroke:none" d=""/></g></g><g style="fill:#9c9e9f;fill-opacity:1;"><g transform="translate(163.897012, 132.680979)"><path style="stroke:none" d=""/></g></g><g style="fill:#9c9e9f;fill-opacity:1;"><g transform="translate(190.507683, 132.680979)"><path style="stroke:none" d=""/></g></g><g style="fill:#9c9e9f;fill-opacity:1;"><g transform="translate(217.118353, 132.680979)"><path style="stroke:none" d=""/></g></g><g style="fill:#9c9e9f;fill-opacity:1;"><g transform="translate(243.734638, 132.680979)"><path style="stroke:none" d="M 6.234375 0 C 5.492188 0 4.914062 -0.226562 4.5 -0.6875 C 4.082031 -1.15625 3.875 -1.804688 3.875 -2.640625 C 3.875 -3.285156 4.015625 -3.929688 4.296875 -4.578125 L 38.390625 -99.921875 C 38.753906 -101.035156 39.210938 -101.800781 39.765625 -102.21875 C 40.328125 -102.632812 41.160156 -102.84375 42.265625 -102.84375 L 66.390625 -102.84375 C 68.609375 -102.84375 70.175781 -101.6875 71.09375 -99.375 L 104.78125 -4.296875 C 104.875 -4.015625 104.921875 -3.550781 104.921875 -2.90625 C 104.921875 -2.070312 104.753906 -1.378906 104.421875 -0.828125 C 104.097656 -0.273438 103.613281 0 102.96875 0 L 79 0 C 77.519531 0 76.550781 -0.738281 76.09375 -2.21875 L 69.984375 -20.234375 C 69.710938 -20.785156 69.457031 -21.175781 69.21875 -21.40625 C 68.988281 -21.644531 68.550781 -21.765625 67.90625 -21.765625 L 36.453125 -21.765625 C 35.429688 -21.765625 34.785156 -21.253906 34.515625 -20.234375 L 28 -1.9375 C 27.53125 -0.644531 26.515625 0 24.953125 0 Z M 61.671875 -42.828125 C 62.597656 -42.828125 63.0625 -43.289062 63.0625 -44.21875 C 63.0625 -44.769531 63.015625 -45.179688 62.921875 -45.453125 L 52.9375 -73.3125 C 52.84375 -73.863281 52.566406 -74.140625 52.109375 -74.140625 C 51.742188 -74.140625 51.46875 -73.863281 51.28125 -73.3125 L 41.15625 -45.453125 C 40.976562 -45.085938 40.890625 -44.628906 40.890625 -44.078125 C 40.890625 -43.242188 41.441406 -42.828125 42.546875 -42.828125 Z M 61.671875 -42.828125 "/></g></g><g style="fill:#8bc649;fill-opacity:1;"><g transform="translate(351.012367, 132.680979)"><path style="stroke:none" d="M 38.390625 -42.40625 C 37.835938 -42.40625 37.375 -42.242188 37 -41.921875 C 36.632812 -41.597656 36.453125 -41.160156 36.453125 -40.609375 L 36.453125 -3.609375 C 36.453125 -2.304688 36.128906 -1.378906 35.484375 -0.828125 C 34.835938 -0.273438 33.773438 0 32.296875 0 L 11.78125 0 C 10.488281 0 9.609375 -0.253906 9.140625 -0.765625 C 8.679688 -1.273438 8.453125 -2.082031 8.453125 -3.1875 L 8.453125 -99.921875 C 8.453125 -100.847656 8.660156 -101.566406 9.078125 -102.078125 C 9.492188 -102.585938 10.070312 -102.84375 10.8125 -102.84375 L 34.09375 -102.84375 C 34.832031 -102.84375 35.410156 -102.609375 35.828125 -102.140625 C 36.242188 -101.679688 36.453125 -101.035156 36.453125 -100.203125 L 36.453125 -66.390625 C 36.453125 -64.628906 37.191406 -63.75 38.671875 -63.75 L 66.25 -63.75 C 67.726562 -63.75 68.46875 -64.628906 68.46875 -66.390625 L 68.46875 -100.203125 C 68.46875 -101.035156 68.675781 -101.679688 69.09375 -102.140625 C 69.507812 -102.609375 70.085938 -102.84375 70.828125 -102.84375 L 94.109375 -102.84375 C 94.847656 -102.84375 95.425781 -102.585938 95.84375 -102.078125 C 96.257812 -101.566406 96.46875 -100.847656 96.46875 -99.921875 L 96.46875 -3.1875 C 96.46875 -2.082031 96.234375 -1.273438 95.765625 -0.765625 C 95.304688 -0.253906 94.429688 0 93.140625 0 L 72.625 0 C 71.144531 0 70.082031 -0.273438 69.4375 -0.828125 C 68.789062 -1.378906 68.46875 -2.304688 68.46875 -3.609375 L 68.46875 -40.609375 C 68.46875 -41.160156 68.304688 -41.597656 67.984375 -41.921875 C 67.660156 -42.242188 67.175781 -42.40625 66.53125 -42.40625 Z M 38.390625 -42.40625 "/></g></g><g clip-rule="nonzero" clip-path="url(#4768e4541b)"><path style=" stroke:none;fill-rule:nonzero;fill:#9c9e9f;fill-opacity:1;" d="M 180.507812 105.449219 C 178.417969 104.050781 176.875 102.222656 175.863281 99.945312 C 174.738281 97.4375 174.140625 94.585938 174.042969 91.367188 C 173.953125 88.148438 174.230469 84.769531 174.875 81.226562 C 175.882812 75.34375 177.472656 70.238281 179.589844 65.894531 C 181.722656 61.546875 184.414062 58.167969 187.632812 55.777344 C 190.851562 53.363281 194.601562 52.144531 198.878906 52.121094 C 203.105469 52.121094 206.460938 53.203125 208.96875 55.339844 C 211.453125 57.476562 212.925781 60.582031 213.359375 64.675781 L 244.257812 64.675781 C 244.308594 58.558594 243.34375 53.226562 241.386719 48.628906 C 239.457031 44.027344 236.648438 40.191406 233.039062 37.109375 C 229.40625 34.027344 225.109375 31.707031 220.144531 30.164062 C 215.179688 28.625 209.707031 27.84375 203.703125 27.84375 C 195.632812 27.863281 188.1875 29.175781 181.332031 31.75 C 174.480469 34.300781 168.371094 37.960938 163.03125 42.695312 C 157.679688 47.433594 153.238281 53.085938 149.722656 59.617188 C 139.472656 78.519531 139.648438 106.648438 166.644531 107.578125 C 171.417969 107.742188 176.0625 106.941406 180.507812 105.449219 "/></g><g clip-rule="nonzero" clip-path="url(#0146b3fd0d)"><path style=" stroke:none;fill-rule:nonzero;fill:#8bc649;fill-opacity:1;" d="M 243.25 75.160156 L 188.96875 75.160156 L 208.308594 91.460938 C 178.203125 120.746094 149.519531 112.796875 141.628906 99.964844 C 142.339844 105.460938 143.859375 110.21875 146.183594 114.289062 C 148.480469 118.359375 151.421875 121.738281 154.988281 124.40625 C 158.546875 127.09375 162.59375 129.097656 167.101562 130.429688 C 171.585938 131.738281 176.390625 132.40625 181.496094 132.40625 C 197.472656 132.335938 213.023438 124.632812 224.246094 113.417969 L 233.859375 133.214844 Z M 243.25 75.160156 "/></g><g style="fill:#9c9e9f;fill-opacity:1;"><g transform="translate(17.482608, 170.446253)"><path style="stroke:none" d="M 15.015625 -17.15625 C 14.484375 -17.738281 13.878906 -18.195312 13.203125 -18.53125 C 12.535156 -18.863281 11.65625 -19.03125 10.5625 -19.03125 C 9.332031 -19.03125 8.394531 -18.804688 7.75 -18.359375 C 7.101562 -17.921875 6.78125 -17.335938 6.78125 -16.609375 C 6.78125 -15.566406 7.597656 -14.800781 9.234375 -14.3125 L 14.015625 -12.953125 C 15.804688 -12.453125 17.140625 -11.65625 18.015625 -10.5625 C 18.898438 -9.46875 19.34375 -8.15625 19.34375 -6.625 C 19.34375 -5.21875 18.976562 -3.992188 18.25 -2.953125 C 17.519531 -1.910156 16.472656 -1.109375 15.109375 -0.546875 C 13.753906 0.015625 12.160156 0.296875 10.328125 0.296875 C 8.265625 0.296875 6.40625 -0.046875 4.75 -0.734375 C 3.09375 -1.429688 1.882812 -2.390625 1.125 -3.609375 C 1.039062 -3.742188 1 -3.875 1 -4 C 1 -4.15625 1.097656 -4.328125 1.296875 -4.515625 L 3.625 -6.109375 C 3.832031 -6.234375 4.015625 -6.296875 4.171875 -6.296875 C 4.359375 -6.296875 4.507812 -6.210938 4.625 -6.046875 C 5.375 -5.078125 6.128906 -4.390625 6.890625 -3.984375 C 7.660156 -3.585938 8.679688 -3.390625 9.953125 -3.390625 C 11.304688 -3.390625 12.363281 -3.597656 13.125 -4.015625 C 13.894531 -4.441406 14.28125 -5.082031 14.28125 -5.9375 C 14.28125 -6.476562 14.085938 -6.941406 13.703125 -7.328125 C 13.328125 -7.710938 12.679688 -8.046875 11.765625 -8.328125 L 7.203125 -9.625 C 5.460938 -10.101562 4.117188 -10.910156 3.171875 -12.046875 C 2.222656 -13.191406 1.75 -14.492188 1.75 -15.953125 C 1.75 -17.242188 2.109375 -18.398438 2.828125 -19.421875 C 3.546875 -20.453125 4.5625 -21.265625 5.875 -21.859375 C 7.1875 -22.460938 8.695312 -22.765625 10.40625 -22.765625 C 12.101562 -22.765625 13.65625 -22.472656 15.0625 -21.890625 C 16.476562 -21.316406 17.5625 -20.546875 18.3125 -19.578125 C 18.4375 -19.421875 18.5 -19.28125 18.5 -19.15625 C 18.5 -19.03125 18.4375 -18.921875 18.3125 -18.828125 L 15.765625 -16.953125 C 15.648438 -16.867188 15.5625 -16.828125 15.5 -16.828125 C 15.394531 -16.828125 15.234375 -16.9375 15.015625 -17.15625 Z M 15.015625 -17.15625 "/></g></g><g style="fill:#9c9e9f;fill-opacity:1;"><g transform="translate(37.62909, 170.446253)"><path style="stroke:none" d="M 6.390625 -18.734375 C 6.390625 -18.234375 6.113281 -17.984375 5.5625 -17.984375 L 2.296875 -17.984375 C 2.054688 -17.984375 1.882812 -18.035156 1.78125 -18.140625 C 1.6875 -18.253906 1.640625 -18.429688 1.640625 -18.671875 L 1.640625 -21.859375 C 1.640625 -22.253906 1.8125 -22.453125 2.15625 -22.453125 L 5.90625 -22.453125 C 6.039062 -22.453125 6.15625 -22.398438 6.25 -22.296875 C 6.34375 -22.203125 6.390625 -22.0625 6.390625 -21.875 Z M 6.328125 -0.71875 C 6.328125 -0.457031 6.265625 -0.269531 6.140625 -0.15625 C 6.023438 -0.0507812 5.816406 0 5.515625 0 L 2.328125 0 C 2.085938 0 1.914062 -0.046875 1.8125 -0.140625 C 1.71875 -0.242188 1.671875 -0.410156 1.671875 -0.640625 L 1.671875 -15.46875 C 1.671875 -15.851562 1.835938 -16.046875 2.171875 -16.046875 L 5.875 -16.046875 C 6.175781 -16.046875 6.328125 -15.875 6.328125 -15.53125 Z M 6.328125 -0.71875 "/></g></g><g style="fill:#9c9e9f;fill-opacity:1;"><g transform="translate(45.312523, 170.446253)"><path style="stroke:none" d="M 11.5625 -11.859375 C 10.738281 -12.953125 9.554688 -13.5 8.015625 -13.5 C 7.253906 -13.5 6.617188 -13.351562 6.109375 -13.0625 C 5.609375 -12.769531 5.359375 -12.367188 5.359375 -11.859375 C 5.359375 -11.578125 5.472656 -11.320312 5.703125 -11.09375 C 5.929688 -10.863281 6.378906 -10.664062 7.046875 -10.5 L 10.53125 -9.65625 C 12.125 -9.269531 13.289062 -8.65625 14.03125 -7.8125 C 14.78125 -6.976562 15.15625 -6 15.15625 -4.875 C 15.15625 -3.28125 14.488281 -2.019531 13.15625 -1.09375 C 11.832031 -0.164062 10.085938 0.296875 7.921875 0.296875 C 6.191406 0.296875 4.691406 -0.0078125 3.421875 -0.625 C 2.148438 -1.238281 1.25 -2.039062 0.71875 -3.03125 C 0.625 -3.164062 0.578125 -3.296875 0.578125 -3.421875 C 0.578125 -3.554688 0.644531 -3.65625 0.78125 -3.71875 L 2.84375 -4.78125 C 3.007812 -4.863281 3.148438 -4.90625 3.265625 -4.90625 C 3.390625 -4.90625 3.503906 -4.851562 3.609375 -4.75 C 4.046875 -4.125 4.582031 -3.625 5.21875 -3.25 C 5.851562 -2.875 6.695312 -2.6875 7.75 -2.6875 C 8.695312 -2.6875 9.46875 -2.828125 10.0625 -3.109375 C 10.65625 -3.398438 10.953125 -3.816406 10.953125 -4.359375 C 10.953125 -4.722656 10.800781 -5.023438 10.5 -5.265625 C 10.195312 -5.503906 9.679688 -5.71875 8.953125 -5.90625 L 5.84375 -6.5625 C 2.769531 -7.226562 1.234375 -8.753906 1.234375 -11.140625 C 1.234375 -12.148438 1.507812 -13.046875 2.0625 -13.828125 C 2.625 -14.617188 3.421875 -15.234375 4.453125 -15.671875 C 5.484375 -16.117188 6.691406 -16.34375 8.078125 -16.34375 C 9.554688 -16.34375 10.863281 -16.066406 12 -15.515625 C 13.132812 -14.972656 13.957031 -14.289062 14.46875 -13.46875 C 14.59375 -13.300781 14.65625 -13.160156 14.65625 -13.046875 C 14.65625 -12.921875 14.582031 -12.816406 14.4375 -12.734375 L 12.25 -11.6875 C 12.195312 -11.644531 12.117188 -11.625 12.015625 -11.625 C 11.835938 -11.625 11.6875 -11.703125 11.5625 -11.859375 Z M 11.5625 -11.859375 "/></g></g><g style="fill:#9c9e9f;fill-opacity:1;"><g transform="translate(61.012239, 170.446253)"><path style="stroke:none" d="M 8.40625 -12.828125 C 8.1875 -12.828125 8.078125 -12.707031 8.078125 -12.46875 L 8.078125 -5.171875 C 8.078125 -4.484375 8.238281 -3.992188 8.5625 -3.703125 C 8.882812 -3.410156 9.398438 -3.265625 10.109375 -3.265625 L 11.75 -3.265625 C 11.882812 -3.265625 11.992188 -3.21875 12.078125 -3.125 C 12.160156 -3.039062 12.203125 -2.914062 12.203125 -2.75 L 12.171875 -0.90625 C 12.171875 -0.5 11.945312 -0.257812 11.5 -0.1875 C 10.65625 -0.0625 9.457031 0 7.90625 0 C 6.488281 0 5.382812 -0.332031 4.59375 -1 C 3.8125 -1.664062 3.421875 -2.632812 3.421875 -3.90625 L 3.421875 -12.375 C 3.421875 -12.675781 3.289062 -12.828125 3.03125 -12.828125 L 1.1875 -12.828125 C 0.800781 -12.828125 0.609375 -13 0.609375 -13.34375 L 0.609375 -15.59375 C 0.609375 -15.894531 0.789062 -16.046875 1.15625 -16.046875 L 3.234375 -16.046875 C 3.398438 -16.046875 3.503906 -16.15625 3.546875 -16.375 L 3.96875 -20.96875 C 4.007812 -21.3125 4.160156 -21.484375 4.421875 -21.484375 L 7.71875 -21.484375 C 7.851562 -21.484375 7.96875 -21.429688 8.0625 -21.328125 C 8.15625 -21.234375 8.203125 -21.09375 8.203125 -20.90625 L 8.203125 -16.375 C 8.203125 -16.175781 8.300781 -16.078125 8.5 -16.078125 L 11.6875 -16.078125 C 12.050781 -16.078125 12.234375 -15.914062 12.234375 -15.59375 L 12.234375 -13.34375 C 12.234375 -13 12.03125 -12.828125 11.625 -12.828125 Z M 8.40625 -12.828125 "/></g></g><g style="fill:#9c9e9f;fill-opacity:1;"><g transform="translate(73.747444, 170.446253)"><path style="stroke:none" d="M 5.75 -6.65625 C 5.75 -5.53125 6.125 -4.617188 6.875 -3.921875 C 7.632812 -3.222656 8.582031 -2.875 9.71875 -2.875 C 10.445312 -2.875 11.117188 -3.03125 11.734375 -3.34375 C 12.347656 -3.65625 12.96875 -4.175781 13.59375 -4.90625 C 13.664062 -4.988281 13.742188 -5.03125 13.828125 -5.03125 C 13.890625 -5.03125 13.992188 -5 14.140625 -4.9375 L 16.3125 -4.03125 C 16.457031 -3.96875 16.53125 -3.863281 16.53125 -3.71875 C 16.53125 -3.625 16.488281 -3.523438 16.40625 -3.421875 C 15.4375 -2.046875 14.394531 -1.082031 13.28125 -0.53125 C 12.175781 0.0195312 10.796875 0.296875 9.140625 0.296875 C 7.585938 0.296875 6.1875 -0.0390625 4.9375 -0.71875 C 3.6875 -1.40625 2.707031 -2.359375 2 -3.578125 C 1.289062 -4.804688 0.9375 -6.207031 0.9375 -7.78125 C 0.9375 -9.476562 1.300781 -10.972656 2.03125 -12.265625 C 2.757812 -13.566406 3.742188 -14.570312 4.984375 -15.28125 C 6.222656 -15.988281 7.578125 -16.34375 9.046875 -16.34375 C 10.578125 -16.34375 11.9375 -16.003906 13.125 -15.328125 C 14.320312 -14.648438 15.253906 -13.675781 15.921875 -12.40625 C 16.585938 -11.132812 16.921875 -9.625 16.921875 -7.875 C 16.921875 -7.601562 16.894531 -7.414062 16.84375 -7.3125 C 16.789062 -7.21875 16.644531 -7.160156 16.40625 -7.140625 L 6.109375 -7.140625 C 5.867188 -7.140625 5.75 -6.976562 5.75 -6.65625 Z M 11.828125 -9.6875 C 12.054688 -9.6875 12.195312 -9.710938 12.25 -9.765625 C 12.3125 -9.816406 12.34375 -9.929688 12.34375 -10.109375 C 12.34375 -10.628906 12.222656 -11.148438 11.984375 -11.671875 C 11.742188 -12.203125 11.390625 -12.640625 10.921875 -12.984375 C 10.460938 -13.328125 9.898438 -13.5 9.234375 -13.5 C 8.222656 -13.5 7.394531 -13.144531 6.75 -12.4375 C 6.101562 -11.726562 5.789062 -10.820312 5.8125 -9.71875 Z M 11.828125 -9.6875 "/></g></g><g style="fill:#9c9e9f;fill-opacity:1;"><g transform="translate(91.141158, 170.446253)"><path style="stroke:none" d="M 2.296875 0 C 2.078125 0 1.914062 -0.0390625 1.8125 -0.125 C 1.71875 -0.21875 1.671875 -0.378906 1.671875 -0.609375 L 1.671875 -15.46875 C 1.671875 -15.644531 1.710938 -15.785156 1.796875 -15.890625 C 1.890625 -15.992188 2.007812 -16.046875 2.15625 -16.046875 L 5.78125 -16.046875 C 6.082031 -16.046875 6.234375 -15.875 6.234375 -15.53125 L 6.234375 -14.046875 C 6.234375 -13.878906 6.285156 -13.796875 6.390625 -13.796875 C 6.453125 -13.796875 6.519531 -13.835938 6.59375 -13.921875 C 7.445312 -14.710938 8.273438 -15.316406 9.078125 -15.734375 C 9.890625 -16.160156 10.75 -16.375 11.65625 -16.375 C 12.71875 -16.375 13.625 -16.117188 14.375 -15.609375 C 15.125 -15.109375 15.648438 -14.425781 15.953125 -13.5625 C 15.972656 -13.476562 16.015625 -13.4375 16.078125 -13.4375 C 16.148438 -13.4375 16.238281 -13.488281 16.34375 -13.59375 C 17.09375 -14.414062 17.9375 -15.078125 18.875 -15.578125 C 19.8125 -16.085938 20.742188 -16.34375 21.671875 -16.34375 C 23.078125 -16.34375 24.195312 -15.90625 25.03125 -15.03125 C 25.875 -14.164062 26.296875 -12.976562 26.296875 -11.46875 L 26.296875 -0.71875 C 26.296875 -0.238281 26.054688 0 25.578125 0 L 22.21875 0 C 21.988281 0 21.832031 -0.0390625 21.75 -0.125 C 21.675781 -0.21875 21.640625 -0.378906 21.640625 -0.609375 L 21.640625 -10.828125 C 21.640625 -11.492188 21.457031 -12.019531 21.09375 -12.40625 C 20.726562 -12.789062 20.210938 -12.984375 19.546875 -12.984375 C 19.003906 -12.984375 18.472656 -12.832031 17.953125 -12.53125 C 17.441406 -12.226562 17.003906 -11.863281 16.640625 -11.4375 C 16.523438 -11.300781 16.441406 -11.171875 16.390625 -11.046875 C 16.335938 -10.921875 16.3125 -10.769531 16.3125 -10.59375 L 16.3125 -0.71875 C 16.3125 -0.238281 16.070312 0 15.59375 0 L 12.25 0 C 12.050781 0 11.90625 -0.0390625 11.8125 -0.125 C 11.726562 -0.21875 11.6875 -0.378906 11.6875 -0.609375 L 11.6875 -10.828125 C 11.6875 -11.492188 11.503906 -12.019531 11.140625 -12.40625 C 10.773438 -12.789062 10.25 -12.984375 9.5625 -12.984375 C 8.976562 -12.984375 8.429688 -12.832031 7.921875 -12.53125 C 7.421875 -12.226562 6.890625 -11.753906 6.328125 -11.109375 L 6.328125 -0.703125 C 6.328125 -0.453125 6.265625 -0.269531 6.140625 -0.15625 C 6.023438 -0.0507812 5.820312 0 5.53125 0 Z M 2.296875 0 "/></g></g><g style="fill:#9c9e9f;fill-opacity:1;"><g transform="translate(118.608161, 170.446253)"><path style="stroke:none" d="M 10.5 -1.546875 C 9.164062 -0.316406 7.582031 0.296875 5.75 0.296875 C 4.238281 0.296875 3.035156 -0.109375 2.140625 -0.921875 C 1.253906 -1.742188 0.8125 -2.804688 0.8125 -4.109375 C 0.8125 -5.804688 1.585938 -7.171875 3.140625 -8.203125 C 4.703125 -9.234375 6.84375 -9.78125 9.5625 -9.84375 L 10.65625 -9.921875 C 10.769531 -9.921875 10.875 -9.957031 10.96875 -10.03125 C 11.0625 -10.101562 11.109375 -10.207031 11.109375 -10.34375 L 11.109375 -10.984375 C 11.109375 -11.773438 10.882812 -12.378906 10.4375 -12.796875 C 10 -13.222656 9.363281 -13.4375 8.53125 -13.4375 C 7.125 -13.4375 6.078125 -12.832031 5.390625 -11.625 C 5.304688 -11.414062 5.175781 -11.3125 5 -11.3125 C 4.894531 -11.3125 4.800781 -11.320312 4.71875 -11.34375 L 1.6875 -12.046875 C 1.507812 -12.085938 1.421875 -12.195312 1.421875 -12.375 C 1.421875 -12.5 1.460938 -12.648438 1.546875 -12.828125 C 2.023438 -14.003906 2.882812 -14.882812 4.125 -15.46875 C 5.375 -16.050781 6.914062 -16.34375 8.75 -16.34375 C 11.144531 -16.34375 12.878906 -15.898438 13.953125 -15.015625 C 15.023438 -14.140625 15.5625 -12.894531 15.5625 -11.28125 L 15.5625 -0.671875 C 15.5625 -0.421875 15.519531 -0.242188 15.4375 -0.140625 C 15.351562 -0.046875 15.203125 0 14.984375 0 L 11.859375 0 C 11.660156 0 11.515625 -0.0664062 11.421875 -0.203125 C 11.328125 -0.347656 11.265625 -0.5625 11.234375 -0.84375 L 11.203125 -1.515625 C 11.179688 -1.691406 11.097656 -1.78125 10.953125 -1.78125 C 10.867188 -1.78125 10.71875 -1.703125 10.5 -1.546875 Z M 11.109375 -7.140625 C 11.109375 -7.328125 11.078125 -7.457031 11.015625 -7.53125 C 10.953125 -7.613281 10.832031 -7.65625 10.65625 -7.65625 L 9.8125 -7.59375 C 8.632812 -7.53125 7.597656 -7.25 6.703125 -6.75 C 5.804688 -6.257812 5.359375 -5.582031 5.359375 -4.71875 C 5.359375 -4.113281 5.566406 -3.632812 5.984375 -3.28125 C 6.410156 -2.925781 7 -2.75 7.75 -2.75 C 8.675781 -2.75 9.460938 -3.023438 10.109375 -3.578125 C 10.773438 -4.097656 11.109375 -4.628906 11.109375 -5.171875 Z M 11.109375 -7.140625 "/></g></g><g style="fill:#9c9e9f;fill-opacity:1;"><g transform="translate(135.306124, 170.446253)"><path style="stroke:none" d=""/></g></g><g style="fill:#9c9e9f;fill-opacity:1;"><g transform="translate(141.204793, 170.446253)"><path style="stroke:none" d="M 6.9375 -22.453125 C 7.257812 -22.453125 7.421875 -22.269531 7.421875 -21.90625 L 7.421875 -0.71875 C 7.421875 -0.457031 7.359375 -0.269531 7.234375 -0.15625 C 7.109375 -0.0507812 6.894531 0 6.59375 0 L 2.78125 0 C 2.539062 0 2.367188 -0.046875 2.265625 -0.140625 C 2.171875 -0.242188 2.125 -0.410156 2.125 -0.640625 L 2.125 -21.875 C 2.125 -22.257812 2.285156 -22.453125 2.609375 -22.453125 Z M 6.9375 -22.453125 "/></g></g><g style="fill:#9c9e9f;fill-opacity:1;"><g transform="translate(150.400725, 170.446253)"><path style="stroke:none" d="M 2.296875 0 C 2.078125 0 1.914062 -0.0390625 1.8125 -0.125 C 1.71875 -0.21875 1.671875 -0.378906 1.671875 -0.609375 L 1.671875 -15.46875 C 1.671875 -15.851562 1.832031 -16.046875 2.15625 -16.046875 L 5.8125 -16.046875 C 6.113281 -16.046875 6.265625 -15.875 6.265625 -15.53125 L 6.265625 -14.046875 C 6.265625 -13.878906 6.316406 -13.796875 6.421875 -13.796875 C 6.472656 -13.796875 6.539062 -13.835938 6.625 -13.921875 C 7.457031 -14.710938 8.285156 -15.3125 9.109375 -15.71875 C 9.929688 -16.132812 10.8125 -16.34375 11.75 -16.34375 C 13.21875 -16.34375 14.378906 -15.90625 15.234375 -15.03125 C 16.097656 -14.164062 16.53125 -13.007812 16.53125 -11.5625 L 16.53125 -0.71875 C 16.53125 -0.238281 16.285156 0 15.796875 0 L 12.4375 0 C 12.21875 0 12.066406 -0.0390625 11.984375 -0.125 C 11.898438 -0.21875 11.859375 -0.378906 11.859375 -0.609375 L 11.859375 -10.828125 C 11.859375 -11.515625 11.671875 -12.046875 11.296875 -12.421875 C 10.929688 -12.796875 10.382812 -12.984375 9.65625 -12.984375 C 9.050781 -12.984375 8.488281 -12.832031 7.96875 -12.53125 C 7.457031 -12.226562 6.910156 -11.753906 6.328125 -11.109375 L 6.328125 -0.703125 C 6.328125 -0.453125 6.265625 -0.269531 6.140625 -0.15625 C 6.023438 -0.0507812 5.820312 0 5.53125 0 Z M 2.296875 0 "/></g></g><g style="fill:#9c9e9f;fill-opacity:1;"><g transform="translate(168.096948, 170.446253)"><path style="stroke:none" d="M 8.40625 -12.828125 C 8.1875 -12.828125 8.078125 -12.707031 8.078125 -12.46875 L 8.078125 -5.171875 C 8.078125 -4.484375 8.238281 -3.992188 8.5625 -3.703125 C 8.882812 -3.410156 9.398438 -3.265625 10.109375 -3.265625 L 11.75 -3.265625 C 11.882812 -3.265625 11.992188 -3.21875 12.078125 -3.125 C 12.160156 -3.039062 12.203125 -2.914062 12.203125 -2.75 L 12.171875 -0.90625 C 12.171875 -0.5 11.945312 -0.257812 11.5 -0.1875 C 10.65625 -0.0625 9.457031 0 7.90625 0 C 6.488281 0 5.382812 -0.332031 4.59375 -1 C 3.8125 -1.664062 3.421875 -2.632812 3.421875 -3.90625 L 3.421875 -12.375 C 3.421875 -12.675781 3.289062 -12.828125 3.03125 -12.828125 L 1.1875 -12.828125 C 0.800781 -12.828125 0.609375 -13 0.609375 -13.34375 L 0.609375 -15.59375 C 0.609375 -15.894531 0.789062 -16.046875 1.15625 -16.046875 L 3.234375 -16.046875 C 3.398438 -16.046875 3.503906 -16.15625 3.546875 -16.375 L 3.96875 -20.96875 C 4.007812 -21.3125 4.160156 -21.484375 4.421875 -21.484375 L 7.71875 -21.484375 C 7.851562 -21.484375 7.96875 -21.429688 8.0625 -21.328125 C 8.15625 -21.234375 8.203125 -21.09375 8.203125 -20.90625 L 8.203125 -16.375 C 8.203125 -16.175781 8.300781 -16.078125 8.5 -16.078125 L 11.6875 -16.078125 C 12.050781 -16.078125 12.234375 -15.914062 12.234375 -15.59375 L 12.234375 -13.34375 C 12.234375 -13 12.03125 -12.828125 11.625 -12.828125 Z M 8.40625 -12.828125 "/></g></g><g style="fill:#9c9e9f;fill-opacity:1;"><g transform="translate(180.832153, 170.446253)"><path style="stroke:none" d="M 5.75 -6.65625 C 5.75 -5.53125 6.125 -4.617188 6.875 -3.921875 C 7.632812 -3.222656 8.582031 -2.875 9.71875 -2.875 C 10.445312 -2.875 11.117188 -3.03125 11.734375 -3.34375 C 12.347656 -3.65625 12.96875 -4.175781 13.59375 -4.90625 C 13.664062 -4.988281 13.742188 -5.03125 13.828125 -5.03125 C 13.890625 -5.03125 13.992188 -5 14.140625 -4.9375 L 16.3125 -4.03125 C 16.457031 -3.96875 16.53125 -3.863281 16.53125 -3.71875 C 16.53125 -3.625 16.488281 -3.523438 16.40625 -3.421875 C 15.4375 -2.046875 14.394531 -1.082031 13.28125 -0.53125 C 12.175781 0.0195312 10.796875 0.296875 9.140625 0.296875 C 7.585938 0.296875 6.1875 -0.0390625 4.9375 -0.71875 C 3.6875 -1.40625 2.707031 -2.359375 2 -3.578125 C 1.289062 -4.804688 0.9375 -6.207031 0.9375 -7.78125 C 0.9375 -9.476562 1.300781 -10.972656 2.03125 -12.265625 C 2.757812 -13.566406 3.742188 -14.570312 4.984375 -15.28125 C 6.222656 -15.988281 7.578125 -16.34375 9.046875 -16.34375 C 10.578125 -16.34375 11.9375 -16.003906 13.125 -15.328125 C 14.320312 -14.648438 15.253906 -13.675781 15.921875 -12.40625 C 16.585938 -11.132812 16.921875 -9.625 16.921875 -7.875 C 16.921875 -7.601562 16.894531 -7.414062 16.84375 -7.3125 C 16.789062 -7.21875 16.644531 -7.160156 16.40625 -7.140625 L 6.109375 -7.140625 C 5.867188 -7.140625 5.75 -6.976562 5.75 -6.65625 Z M 11.828125 -9.6875 C 12.054688 -9.6875 12.195312 -9.710938 12.25 -9.765625 C 12.3125 -9.816406 12.34375 -9.929688 12.34375 -10.109375 C 12.34375 -10.628906 12.222656 -11.148438 11.984375 -11.671875 C 11.742188 -12.203125 11.390625 -12.640625 10.921875 -12.984375 C 10.460938 -13.328125 9.898438 -13.5 9.234375 -13.5 C 8.222656 -13.5 7.394531 -13.144531 6.75 -12.4375 C 6.101562 -11.726562 5.789062 -10.820312 5.8125 -9.71875 Z M 11.828125 -9.6875 "/></g></g><g style="fill:#9c9e9f;fill-opacity:1;"><g transform="translate(198.225867, 170.446253)"><path style="stroke:none" d="M 17.890625 -16.734375 C 18.296875 -16.734375 18.5 -16.515625 18.5 -16.078125 L 18.5 -14.015625 C 18.5 -13.453125 18.265625 -13.21875 17.796875 -13.3125 C 17.492188 -13.375 17.203125 -13.40625 16.921875 -13.40625 C 16.753906 -13.40625 16.570312 -13.382812 16.375 -13.34375 C 15.851562 -13.257812 15.648438 -13.03125 15.765625 -12.65625 C 15.953125 -12.101562 16.046875 -11.644531 16.046875 -11.28125 C 16.046875 -10.351562 15.765625 -9.515625 15.203125 -8.765625 C 14.648438 -8.023438 13.820312 -7.429688 12.71875 -6.984375 C 11.625 -6.546875 10.300781 -6.328125 8.75 -6.328125 C 7.613281 -6.328125 6.78125 -6.234375 6.25 -6.046875 C 5.71875 -5.867188 5.453125 -5.628906 5.453125 -5.328125 C 5.453125 -5.066406 5.597656 -4.878906 5.890625 -4.765625 C 6.179688 -4.648438 6.671875 -4.578125 7.359375 -4.546875 L 11.6875 -4.296875 C 13.675781 -4.171875 15.160156 -3.722656 16.140625 -2.953125 C 17.117188 -2.191406 17.609375 -1.175781 17.609375 0.09375 C 17.609375 1.664062 16.863281 2.925781 15.375 3.875 C 13.882812 4.820312 11.765625 5.296875 9.015625 5.296875 C 3.148438 5.296875 0.21875 3.992188 0.21875 1.390625 C 0.21875 0.742188 0.46875 0.195312 0.96875 -0.25 C 1.46875 -0.707031 2.1875 -1.109375 3.125 -1.453125 C 3.238281 -1.492188 3.296875 -1.546875 3.296875 -1.609375 C 3.296875 -1.660156 3.238281 -1.71875 3.125 -1.78125 C 1.945312 -2.351562 1.359375 -3.101562 1.359375 -4.03125 C 1.359375 -4.570312 1.625 -5.078125 2.15625 -5.546875 C 2.695312 -6.023438 3.410156 -6.4375 4.296875 -6.78125 C 4.535156 -6.90625 4.554688 -7.023438 4.359375 -7.140625 C 2.398438 -8.046875 1.421875 -9.421875 1.421875 -11.265625 C 1.421875 -12.796875 2.082031 -14.015625 3.40625 -14.921875 C 4.726562 -15.828125 6.617188 -16.28125 9.078125 -16.28125 C 11.160156 -16.28125 12.773438 -15.828125 13.921875 -14.921875 C 14.066406 -14.816406 14.195312 -14.765625 14.3125 -14.765625 C 14.476562 -14.765625 14.617188 -14.835938 14.734375 -14.984375 C 15.117188 -15.441406 15.625 -15.847656 16.25 -16.203125 C 16.875 -16.554688 17.421875 -16.734375 17.890625 -16.734375 Z M 8.71875 -8.625 C 9.75 -8.625 10.519531 -8.859375 11.03125 -9.328125 C 11.539062 -9.804688 11.796875 -10.429688 11.796875 -11.203125 C 11.796875 -12.046875 11.539062 -12.710938 11.03125 -13.203125 C 10.519531 -13.703125 9.75 -13.953125 8.71875 -13.953125 C 7.75 -13.953125 6.984375 -13.695312 6.421875 -13.1875 C 5.867188 -12.6875 5.59375 -12.023438 5.59375 -11.203125 C 5.59375 -10.429688 5.867188 -9.804688 6.421875 -9.328125 C 6.984375 -8.859375 7.75 -8.625 8.71875 -8.625 Z M 6.484375 -0.90625 C 5.847656 -0.945312 5.285156 -0.800781 4.796875 -0.46875 C 4.304688 -0.132812 4.0625 0.28125 4.0625 0.78125 C 4.0625 1.53125 4.472656 2.097656 5.296875 2.484375 C 6.117188 2.867188 7.460938 3.0625 9.328125 3.0625 C 10.671875 3.0625 11.707031 2.875 12.4375 2.5 C 13.164062 2.125 13.53125 1.59375 13.53125 0.90625 C 13.53125 0.445312 13.328125 0.078125 12.921875 -0.203125 C 12.515625 -0.492188 11.921875 -0.660156 11.140625 -0.703125 Z M 6.484375 -0.90625 "/></g></g><g style="fill:#9c9e9f;fill-opacity:1;"><g transform="translate(217.041336, 170.446253)"><path style="stroke:none" d="M 2.296875 0 C 1.878906 0 1.671875 -0.203125 1.671875 -0.609375 L 1.671875 -15.46875 C 1.671875 -15.851562 1.832031 -16.046875 2.15625 -16.046875 L 5.6875 -16.046875 C 6.007812 -16.046875 6.171875 -15.875 6.171875 -15.53125 L 6.171875 -13.734375 C 6.171875 -13.660156 6.191406 -13.601562 6.234375 -13.5625 C 6.273438 -13.519531 6.316406 -13.5 6.359375 -13.5 C 6.421875 -13.5 6.5 -13.550781 6.59375 -13.65625 C 7.195312 -14.457031 7.910156 -15.101562 8.734375 -15.59375 C 9.566406 -16.09375 10.359375 -16.34375 11.109375 -16.34375 C 11.835938 -16.34375 12.203125 -16.171875 12.203125 -15.828125 L 12.203125 -12.3125 C 12.203125 -12.175781 12.160156 -12.066406 12.078125 -11.984375 C 11.992188 -11.898438 11.882812 -11.878906 11.75 -11.921875 C 11.101562 -12.085938 10.394531 -12.171875 9.625 -12.171875 C 9.125 -12.171875 8.613281 -12.039062 8.09375 -11.78125 C 7.582031 -11.53125 7.160156 -11.195312 6.828125 -10.78125 C 6.492188 -10.375 6.328125 -9.957031 6.328125 -9.53125 L 6.328125 -0.703125 C 6.328125 -0.234375 6.0625 0 5.53125 0 Z M 2.296875 0 "/></g></g><g style="fill:#9c9e9f;fill-opacity:1;"><g transform="translate(229.595043, 170.446253)"><path style="stroke:none" d="M 10.5 -1.546875 C 9.164062 -0.316406 7.582031 0.296875 5.75 0.296875 C 4.238281 0.296875 3.035156 -0.109375 2.140625 -0.921875 C 1.253906 -1.742188 0.8125 -2.804688 0.8125 -4.109375 C 0.8125 -5.804688 1.585938 -7.171875 3.140625 -8.203125 C 4.703125 -9.234375 6.84375 -9.78125 9.5625 -9.84375 L 10.65625 -9.921875 C 10.769531 -9.921875 10.875 -9.957031 10.96875 -10.03125 C 11.0625 -10.101562 11.109375 -10.207031 11.109375 -10.34375 L 11.109375 -10.984375 C 11.109375 -11.773438 10.882812 -12.378906 10.4375 -12.796875 C 10 -13.222656 9.363281 -13.4375 8.53125 -13.4375 C 7.125 -13.4375 6.078125 -12.832031 5.390625 -11.625 C 5.304688 -11.414062 5.175781 -11.3125 5 -11.3125 C 4.894531 -11.3125 4.800781 -11.320312 4.71875 -11.34375 L 1.6875 -12.046875 C 1.507812 -12.085938 1.421875 -12.195312 1.421875 -12.375 C 1.421875 -12.5 1.460938 -12.648438 1.546875 -12.828125 C 2.023438 -14.003906 2.882812 -14.882812 4.125 -15.46875 C 5.375 -16.050781 6.914062 -16.34375 8.75 -16.34375 C 11.144531 -16.34375 12.878906 -15.898438 13.953125 -15.015625 C 15.023438 -14.140625 15.5625 -12.894531 15.5625 -11.28125 L 15.5625 -0.671875 C 15.5625 -0.421875 15.519531 -0.242188 15.4375 -0.140625 C 15.351562 -0.046875 15.203125 0 14.984375 0 L 11.859375 0 C 11.660156 0 11.515625 -0.0664062 11.421875 -0.203125 C 11.328125 -0.347656 11.265625 -0.5625 11.234375 -0.84375 L 11.203125 -1.515625 C 11.179688 -1.691406 11.097656 -1.78125 10.953125 -1.78125 C 10.867188 -1.78125 10.71875 -1.703125 10.5 -1.546875 Z M 11.109375 -7.140625 C 11.109375 -7.328125 11.078125 -7.457031 11.015625 -7.53125 C 10.953125 -7.613281 10.832031 -7.65625 10.65625 -7.65625 L 9.8125 -7.59375 C 8.632812 -7.53125 7.597656 -7.25 6.703125 -6.75 C 5.804688 -6.257812 5.359375 -5.582031 5.359375 -4.71875 C 5.359375 -4.113281 5.566406 -3.632812 5.984375 -3.28125 C 6.410156 -2.925781 7 -2.75 7.75 -2.75 C 8.675781 -2.75 9.460938 -3.023438 10.109375 -3.578125 C 10.773438 -4.097656 11.109375 -4.628906 11.109375 -5.171875 Z M 11.109375 -7.140625 "/></g></g><g style="fill:#9c9e9f;fill-opacity:1;"><g transform="translate(246.292995, 170.446253)"><path style="stroke:none" d="M 12.796875 0 C 12.378906 0 12.171875 -0.203125 12.171875 -0.609375 L 12.171875 -1.453125 C 12.171875 -1.609375 12.117188 -1.6875 12.015625 -1.6875 C 11.953125 -1.6875 11.863281 -1.648438 11.75 -1.578125 C 11.15625 -1.003906 10.507812 -0.546875 9.8125 -0.203125 C 9.125 0.128906 8.296875 0.296875 7.328125 0.296875 C 5.429688 0.296875 3.898438 -0.40625 2.734375 -1.8125 C 1.578125 -3.226562 1 -5.257812 1 -7.90625 C 1 -9.550781 1.296875 -11.015625 1.890625 -12.296875 C 2.484375 -13.578125 3.285156 -14.570312 4.296875 -15.28125 C 5.304688 -15.988281 6.414062 -16.34375 7.625 -16.34375 C 8.414062 -16.34375 9.128906 -16.210938 9.765625 -15.953125 C 10.398438 -15.691406 11.007812 -15.285156 11.59375 -14.734375 C 11.726562 -14.640625 11.828125 -14.59375 11.890625 -14.59375 C 12.035156 -14.59375 12.109375 -14.722656 12.109375 -14.984375 L 12.109375 -21.90625 C 12.109375 -22.269531 12.269531 -22.453125 12.59375 -22.453125 L 16.28125 -22.453125 C 16.425781 -22.453125 16.539062 -22.398438 16.625 -22.296875 C 16.71875 -22.203125 16.765625 -22.0625 16.765625 -21.875 L 16.765625 -0.640625 C 16.765625 -0.410156 16.710938 -0.242188 16.609375 -0.140625 C 16.515625 -0.046875 16.335938 0 16.078125 0 Z M 12.109375 -11.859375 C 11.640625 -12.367188 11.175781 -12.742188 10.71875 -12.984375 C 10.269531 -13.222656 9.765625 -13.34375 9.203125 -13.34375 C 8.128906 -13.34375 7.28125 -12.90625 6.65625 -12.03125 C 6.03125 -11.15625 5.71875 -9.796875 5.71875 -7.953125 C 5.71875 -6.097656 6.019531 -4.742188 6.625 -3.890625 C 7.226562 -3.035156 8.066406 -2.609375 9.140625 -2.609375 C 9.941406 -2.609375 10.632812 -2.875 11.21875 -3.40625 C 11.8125 -3.9375 12.109375 -4.554688 12.109375 -5.265625 Z M 12.109375 -11.859375 "/></g></g><g style="fill:#9c9e9f;fill-opacity:1;"><g transform="translate(264.382471, 170.446253)"><path style="stroke:none" d="M 9.046875 0.296875 C 7.453125 0.296875 6.046875 -0.046875 4.828125 -0.734375 C 3.609375 -1.429688 2.65625 -2.40625 1.96875 -3.65625 C 1.28125 -4.90625 0.9375 -6.328125 0.9375 -7.921875 C 0.9375 -9.578125 1.285156 -11.039062 1.984375 -12.3125 C 2.679688 -13.582031 3.648438 -14.570312 4.890625 -15.28125 C 6.128906 -15.988281 7.523438 -16.34375 9.078125 -16.34375 C 10.671875 -16.34375 12.082031 -15.984375 13.3125 -15.265625 C 14.539062 -14.546875 15.492188 -13.550781 16.171875 -12.28125 C 16.847656 -11.007812 17.1875 -9.566406 17.1875 -7.953125 C 17.1875 -6.359375 16.84375 -4.9375 16.15625 -3.6875 C 15.46875 -2.4375 14.507812 -1.457031 13.28125 -0.75 C 12.050781 -0.0507812 10.640625 0.296875 9.046875 0.296875 Z M 9.078125 -2.78125 C 10.191406 -2.78125 11.035156 -3.21875 11.609375 -4.09375 C 12.179688 -4.976562 12.46875 -6.285156 12.46875 -8.015625 C 12.46875 -9.773438 12.179688 -11.101562 11.609375 -12 C 11.035156 -12.894531 10.191406 -13.34375 9.078125 -13.34375 C 7.972656 -13.34375 7.125 -12.894531 6.53125 -12 C 5.945312 -11.101562 5.65625 -9.773438 5.65625 -8.015625 C 5.65625 -6.304688 5.945312 -5.003906 6.53125 -4.109375 C 7.125 -3.222656 7.972656 -2.78125 9.078125 -2.78125 Z M 9.078125 -2.78125 "/></g></g><g style="fill:#9c9e9f;fill-opacity:1;"><g transform="translate(282.169437, 170.446253)"><path style="stroke:none" d=""/></g></g><g style="fill:#9c9e9f;fill-opacity:1;"><g transform="translate(288.068105, 170.446253)"><path style="stroke:none" d="M 12.796875 0 C 12.378906 0 12.171875 -0.203125 12.171875 -0.609375 L 12.171875 -1.453125 C 12.171875 -1.609375 12.117188 -1.6875 12.015625 -1.6875 C 11.953125 -1.6875 11.863281 -1.648438 11.75 -1.578125 C 11.15625 -1.003906 10.507812 -0.546875 9.8125 -0.203125 C 9.125 0.128906 8.296875 0.296875 7.328125 0.296875 C 5.429688 0.296875 3.898438 -0.40625 2.734375 -1.8125 C 1.578125 -3.226562 1 -5.257812 1 -7.90625 C 1 -9.550781 1.296875 -11.015625 1.890625 -12.296875 C 2.484375 -13.578125 3.285156 -14.570312 4.296875 -15.28125 C 5.304688 -15.988281 6.414062 -16.34375 7.625 -16.34375 C 8.414062 -16.34375 9.128906 -16.210938 9.765625 -15.953125 C 10.398438 -15.691406 11.007812 -15.285156 11.59375 -14.734375 C 11.726562 -14.640625 11.828125 -14.59375 11.890625 -14.59375 C 12.035156 -14.59375 12.109375 -14.722656 12.109375 -14.984375 L 12.109375 -21.90625 C 12.109375 -22.269531 12.269531 -22.453125 12.59375 -22.453125 L 16.28125 -22.453125 C 16.425781 -22.453125 16.539062 -22.398438 16.625 -22.296875 C 16.71875 -22.203125 16.765625 -22.0625 16.765625 -21.875 L 16.765625 -0.640625 C 16.765625 -0.410156 16.710938 -0.242188 16.609375 -0.140625 C 16.515625 -0.046875 16.335938 0 16.078125 0 Z M 12.109375 -11.859375 C 11.640625 -12.367188 11.175781 -12.742188 10.71875 -12.984375 C 10.269531 -13.222656 9.765625 -13.34375 9.203125 -13.34375 C 8.128906 -13.34375 7.28125 -12.90625 6.65625 -12.03125 C 6.03125 -11.15625 5.71875 -9.796875 5.71875 -7.953125 C 5.71875 -6.097656 6.019531 -4.742188 6.625 -3.890625 C 7.226562 -3.035156 8.066406 -2.609375 9.140625 -2.609375 C 9.941406 -2.609375 10.632812 -2.875 11.21875 -3.40625 C 11.8125 -3.9375 12.109375 -4.554688 12.109375 -5.265625 Z M 12.109375 -11.859375 "/></g></g><g style="fill:#9c9e9f;fill-opacity:1;"><g transform="translate(306.157581, 170.446253)"><path style="stroke:none" d="M 5.75 -6.65625 C 5.75 -5.53125 6.125 -4.617188 6.875 -3.921875 C 7.632812 -3.222656 8.582031 -2.875 9.71875 -2.875 C 10.445312 -2.875 11.117188 -3.03125 11.734375 -3.34375 C 12.347656 -3.65625 12.96875 -4.175781 13.59375 -4.90625 C 13.664062 -4.988281 13.742188 -5.03125 13.828125 -5.03125 C 13.890625 -5.03125 13.992188 -5 14.140625 -4.9375 L 16.3125 -4.03125 C 16.457031 -3.96875 16.53125 -3.863281 16.53125 -3.71875 C 16.53125 -3.625 16.488281 -3.523438 16.40625 -3.421875 C 15.4375 -2.046875 14.394531 -1.082031 13.28125 -0.53125 C 12.175781 0.0195312 10.796875 0.296875 9.140625 0.296875 C 7.585938 0.296875 6.1875 -0.0390625 4.9375 -0.71875 C 3.6875 -1.40625 2.707031 -2.359375 2 -3.578125 C 1.289062 -4.804688 0.9375 -6.207031 0.9375 -7.78125 C 0.9375 -9.476562 1.300781 -10.972656 2.03125 -12.265625 C 2.757812 -13.566406 3.742188 -14.570312 4.984375 -15.28125 C 6.222656 -15.988281 7.578125 -16.34375 9.046875 -16.34375 C 10.578125 -16.34375 11.9375 -16.003906 13.125 -15.328125 C 14.320312 -14.648438 15.253906 -13.675781 15.921875 -12.40625 C 16.585938 -11.132812 16.921875 -9.625 16.921875 -7.875 C 16.921875 -7.601562 16.894531 -7.414062 16.84375 -7.3125 C 16.789062 -7.21875 16.644531 -7.160156 16.40625 -7.140625 L 6.109375 -7.140625 C 5.867188 -7.140625 5.75 -6.976562 5.75 -6.65625 Z M 11.828125 -9.6875 C 12.054688 -9.6875 12.195312 -9.710938 12.25 -9.765625 C 12.3125 -9.816406 12.34375 -9.929688 12.34375 -10.109375 C 12.34375 -10.628906 12.222656 -11.148438 11.984375 -11.671875 C 11.742188 -12.203125 11.390625 -12.640625 10.921875 -12.984375 C 10.460938 -13.328125 9.898438 -13.5 9.234375 -13.5 C 8.222656 -13.5 7.394531 -13.144531 6.75 -12.4375 C 6.101562 -11.726562 5.789062 -10.820312 5.8125 -9.71875 Z M 11.828125 -9.6875 "/></g></g><g style="fill:#9c9e9f;fill-opacity:1;"><g transform="translate(323.551295, 170.446253)"><path style="stroke:none" d=""/></g></g><g style="fill:#9c9e9f;fill-opacity:1;"><g transform="translate(329.449963, 170.446253)"><path style="stroke:none" d="M 11.4375 0.296875 C 9.40625 0.296875 7.625 -0.175781 6.09375 -1.125 C 4.570312 -2.070312 3.394531 -3.40625 2.5625 -5.125 C 1.738281 -6.851562 1.328125 -8.859375 1.328125 -11.140625 C 1.328125 -13.484375 1.757812 -15.53125 2.625 -17.28125 C 3.5 -19.039062 4.722656 -20.394531 6.296875 -21.34375 C 7.867188 -22.289062 9.6875 -22.765625 11.75 -22.765625 C 13.320312 -22.765625 14.757812 -22.457031 16.0625 -21.84375 C 17.363281 -21.238281 18.421875 -20.445312 19.234375 -19.46875 C 20.046875 -18.5 20.554688 -17.457031 20.765625 -16.34375 C 20.804688 -16.21875 20.828125 -16.066406 20.828125 -15.890625 C 20.828125 -15.671875 20.691406 -15.550781 20.421875 -15.53125 L 16.4375 -14.921875 C 16.269531 -14.921875 16.15625 -14.953125 16.09375 -15.015625 C 16.039062 -15.085938 15.992188 -15.21875 15.953125 -15.40625 C 15.742188 -16.457031 15.265625 -17.320312 14.515625 -18 C 13.773438 -18.6875 12.8125 -19.03125 11.625 -19.03125 C 10.070312 -19.03125 8.890625 -18.414062 8.078125 -17.1875 C 7.273438 -15.957031 6.875 -14 6.875 -11.3125 C 6.875 -8.507812 7.296875 -6.492188 8.140625 -5.265625 C 8.984375 -4.035156 10.203125 -3.421875 11.796875 -3.421875 C 13.015625 -3.421875 13.984375 -3.75 14.703125 -4.40625 C 15.429688 -5.0625 15.90625 -5.882812 16.125 -6.875 L 16.1875 -7.75 C 16.207031 -7.789062 16.21875 -7.847656 16.21875 -7.921875 C 16.21875 -8.109375 16.109375 -8.203125 15.890625 -8.203125 L 12.234375 -8.203125 C 12.066406 -8.203125 11.941406 -8.238281 11.859375 -8.3125 C 11.785156 -8.394531 11.75 -8.53125 11.75 -8.71875 L 11.75 -10.984375 C 11.75 -11.265625 11.910156 -11.40625 12.234375 -11.40625 L 20.3125 -11.375 C 20.59375 -11.375 20.804688 -11.304688 20.953125 -11.171875 C 21.109375 -11.046875 21.1875 -10.875 21.1875 -10.65625 L 21.1875 -0.453125 C 21.1875 -0.304688 21.144531 -0.191406 21.0625 -0.109375 C 20.976562 -0.0351562 20.867188 0 20.734375 0 L 19.765625 0 C 19.421875 0 19.15625 -0.160156 18.96875 -0.484375 L 18.09375 -2.65625 C 18.039062 -2.800781 17.941406 -2.796875 17.796875 -2.640625 C 17.085938 -1.765625 16.242188 -1.054688 15.265625 -0.515625 C 14.285156 0.0234375 13.007812 0.296875 11.4375 0.296875 Z M 11.4375 0.296875 "/></g></g><g style="fill:#9c9e9f;fill-opacity:1;"><g transform="translate(351.865218, 170.446253)"><path style="stroke:none" d="M 5.75 -6.65625 C 5.75 -5.53125 6.125 -4.617188 6.875 -3.921875 C 7.632812 -3.222656 8.582031 -2.875 9.71875 -2.875 C 10.445312 -2.875 11.117188 -3.03125 11.734375 -3.34375 C 12.347656 -3.65625 12.96875 -4.175781 13.59375 -4.90625 C 13.664062 -4.988281 13.742188 -5.03125 13.828125 -5.03125 C 13.890625 -5.03125 13.992188 -5 14.140625 -4.9375 L 16.3125 -4.03125 C 16.457031 -3.96875 16.53125 -3.863281 16.53125 -3.71875 C 16.53125 -3.625 16.488281 -3.523438 16.40625 -3.421875 C 15.4375 -2.046875 14.394531 -1.082031 13.28125 -0.53125 C 12.175781 0.0195312 10.796875 0.296875 9.140625 0.296875 C 7.585938 0.296875 6.1875 -0.0390625 4.9375 -0.71875 C 3.6875 -1.40625 2.707031 -2.359375 2 -3.578125 C 1.289062 -4.804688 0.9375 -6.207031 0.9375 -7.78125 C 0.9375 -9.476562 1.300781 -10.972656 2.03125 -12.265625 C 2.757812 -13.566406 3.742188 -14.570312 4.984375 -15.28125 C 6.222656 -15.988281 7.578125 -16.34375 9.046875 -16.34375 C 10.578125 -16.34375 11.9375 -16.003906 13.125 -15.328125 C 14.320312 -14.648438 15.253906 -13.675781 15.921875 -12.40625 C 16.585938 -11.132812 16.921875 -9.625 16.921875 -7.875 C 16.921875 -7.601562 16.894531 -7.414062 16.84375 -7.3125 C 16.789062 -7.21875 16.644531 -7.160156 16.40625 -7.140625 L 6.109375 -7.140625 C 5.867188 -7.140625 5.75 -6.976562 5.75 -6.65625 Z M 11.828125 -9.6875 C 12.054688 -9.6875 12.195312 -9.710938 12.25 -9.765625 C 12.3125 -9.816406 12.34375 -9.929688 12.34375 -10.109375 C 12.34375 -10.628906 12.222656 -11.148438 11.984375 -11.671875 C 11.742188 -12.203125 11.390625 -12.640625 10.921875 -12.984375 C 10.460938 -13.328125 9.898438 -13.5 9.234375 -13.5 C 8.222656 -13.5 7.394531 -13.144531 6.75 -12.4375 C 6.101562 -11.726562 5.789062 -10.820312 5.8125 -9.71875 Z M 11.828125 -9.6875 "/></g></g><g style="fill:#9c9e9f;fill-opacity:1;"><g transform="translate(369.258932, 170.446253)"><path style="stroke:none" d="M 11.5625 -11.859375 C 10.738281 -12.953125 9.554688 -13.5 8.015625 -13.5 C 7.253906 -13.5 6.617188 -13.351562 6.109375 -13.0625 C 5.609375 -12.769531 5.359375 -12.367188 5.359375 -11.859375 C 5.359375 -11.578125 5.472656 -11.320312 5.703125 -11.09375 C 5.929688 -10.863281 6.378906 -10.664062 7.046875 -10.5 L 10.53125 -9.65625 C 12.125 -9.269531 13.289062 -8.65625 14.03125 -7.8125 C 14.78125 -6.976562 15.15625 -6 15.15625 -4.875 C 15.15625 -3.28125 14.488281 -2.019531 13.15625 -1.09375 C 11.832031 -0.164062 10.085938 0.296875 7.921875 0.296875 C 6.191406 0.296875 4.691406 -0.0078125 3.421875 -0.625 C 2.148438 -1.238281 1.25 -2.039062 0.71875 -3.03125 C 0.625 -3.164062 0.578125 -3.296875 0.578125 -3.421875 C 0.578125 -3.554688 0.644531 -3.65625 0.78125 -3.71875 L 2.84375 -4.78125 C 3.007812 -4.863281 3.148438 -4.90625 3.265625 -4.90625 C 3.390625 -4.90625 3.503906 -4.851562 3.609375 -4.75 C 4.046875 -4.125 4.582031 -3.625 5.21875 -3.25 C 5.851562 -2.875 6.695312 -2.6875 7.75 -2.6875 C 8.695312 -2.6875 9.46875 -2.828125 10.0625 -3.109375 C 10.65625 -3.398438 10.953125 -3.816406 10.953125 -4.359375 C 10.953125 -4.722656 10.800781 -5.023438 10.5 -5.265625 C 10.195312 -5.503906 9.679688 -5.71875 8.953125 -5.90625 L 5.84375 -6.5625 C 2.769531 -7.226562 1.234375 -8.753906 1.234375 -11.140625 C 1.234375 -12.148438 1.507812 -13.046875 2.0625 -13.828125 C 2.625 -14.617188 3.421875 -15.234375 4.453125 -15.671875 C 5.484375 -16.117188 6.691406 -16.34375 8.078125 -16.34375 C 9.554688 -16.34375 10.863281 -16.066406 12 -15.515625 C 13.132812 -14.972656 13.957031 -14.289062 14.46875 -13.46875 C 14.59375 -13.300781 14.65625 -13.160156 14.65625 -13.046875 C 14.65625 -12.921875 14.582031 -12.816406 14.4375 -12.734375 L 12.25 -11.6875 C 12.195312 -11.644531 12.117188 -11.625 12.015625 -11.625 C 11.835938 -11.625 11.6875 -11.703125 11.5625 -11.859375 Z M 11.5625 -11.859375 "/></g></g><g style="fill:#9c9e9f;fill-opacity:1;"><g transform="translate(384.958636, 170.446253)"><path style="stroke:none" d="M 8.40625 -12.828125 C 8.1875 -12.828125 8.078125 -12.707031 8.078125 -12.46875 L 8.078125 -5.171875 C 8.078125 -4.484375 8.238281 -3.992188 8.5625 -3.703125 C 8.882812 -3.410156 9.398438 -3.265625 10.109375 -3.265625 L 11.75 -3.265625 C 11.882812 -3.265625 11.992188 -3.21875 12.078125 -3.125 C 12.160156 -3.039062 12.203125 -2.914062 12.203125 -2.75 L 12.171875 -0.90625 C 12.171875 -0.5 11.945312 -0.257812 11.5 -0.1875 C 10.65625 -0.0625 9.457031 0 7.90625 0 C 6.488281 0 5.382812 -0.332031 4.59375 -1 C 3.8125 -1.664062 3.421875 -2.632812 3.421875 -3.90625 L 3.421875 -12.375 C 3.421875 -12.675781 3.289062 -12.828125 3.03125 -12.828125 L 1.1875 -12.828125 C 0.800781 -12.828125 0.609375 -13 0.609375 -13.34375 L 0.609375 -15.59375 C 0.609375 -15.894531 0.789062 -16.046875 1.15625 -16.046875 L 3.234375 -16.046875 C 3.398438 -16.046875 3.503906 -16.15625 3.546875 -16.375 L 3.96875 -20.96875 C 4.007812 -21.3125 4.160156 -21.484375 4.421875 -21.484375 L 7.71875 -21.484375 C 7.851562 -21.484375 7.96875 -21.429688 8.0625 -21.328125 C 8.15625 -21.234375 8.203125 -21.09375 8.203125 -20.90625 L 8.203125 -16.375 C 8.203125 -16.175781 8.300781 -16.078125 8.5 -16.078125 L 11.6875 -16.078125 C 12.050781 -16.078125 12.234375 -15.914062 12.234375 -15.59375 L 12.234375 -13.34375 C 12.234375 -13 12.03125 -12.828125 11.625 -12.828125 Z M 8.40625 -12.828125 "/></g></g><g style="fill:#9c9e9f;fill-opacity:1;"><g transform="translate(397.693853, 170.446253)"><path style="stroke:none" d="M 10.5 -1.546875 C 9.164062 -0.316406 7.582031 0.296875 5.75 0.296875 C 4.238281 0.296875 3.035156 -0.109375 2.140625 -0.921875 C 1.253906 -1.742188 0.8125 -2.804688 0.8125 -4.109375 C 0.8125 -5.804688 1.585938 -7.171875 3.140625 -8.203125 C 4.703125 -9.234375 6.84375 -9.78125 9.5625 -9.84375 L 10.65625 -9.921875 C 10.769531 -9.921875 10.875 -9.957031 10.96875 -10.03125 C 11.0625 -10.101562 11.109375 -10.207031 11.109375 -10.34375 L 11.109375 -10.984375 C 11.109375 -11.773438 10.882812 -12.378906 10.4375 -12.796875 C 10 -13.222656 9.363281 -13.4375 8.53125 -13.4375 C 7.125 -13.4375 6.078125 -12.832031 5.390625 -11.625 C 5.304688 -11.414062 5.175781 -11.3125 5 -11.3125 C 4.894531 -11.3125 4.800781 -11.320312 4.71875 -11.34375 L 1.6875 -12.046875 C 1.507812 -12.085938 1.421875 -12.195312 1.421875 -12.375 C 1.421875 -12.5 1.460938 -12.648438 1.546875 -12.828125 C 2.023438 -14.003906 2.882812 -14.882812 4.125 -15.46875 C 5.375 -16.050781 6.914062 -16.34375 8.75 -16.34375 C 11.144531 -16.34375 12.878906 -15.898438 13.953125 -15.015625 C 15.023438 -14.140625 15.5625 -12.894531 15.5625 -11.28125 L 15.5625 -0.671875 C 15.5625 -0.421875 15.519531 -0.242188 15.4375 -0.140625 C 15.351562 -0.046875 15.203125 0 14.984375 0 L 11.859375 0 C 11.660156 0 11.515625 -0.0664062 11.421875 -0.203125 C 11.328125 -0.347656 11.265625 -0.5625 11.234375 -0.84375 L 11.203125 -1.515625 C 11.179688 -1.691406 11.097656 -1.78125 10.953125 -1.78125 C 10.867188 -1.78125 10.71875 -1.703125 10.5 -1.546875 Z M 11.109375 -7.140625 C 11.109375 -7.328125 11.078125 -7.457031 11.015625 -7.53125 C 10.953125 -7.613281 10.832031 -7.65625 10.65625 -7.65625 L 9.8125 -7.59375 C 8.632812 -7.53125 7.597656 -7.25 6.703125 -6.75 C 5.804688 -6.257812 5.359375 -5.582031 5.359375 -4.71875 C 5.359375 -4.113281 5.566406 -3.632812 5.984375 -3.28125 C 6.410156 -2.925781 7 -2.75 7.75 -2.75 C 8.675781 -2.75 9.460938 -3.023438 10.109375 -3.578125 C 10.773438 -4.097656 11.109375 -4.628906 11.109375 -5.171875 Z M 13.765625 -19.796875 C 12.984375 -19.242188 12.066406 -18.96875 11.015625 -18.96875 C 10.628906 -18.96875 10.269531 -19.003906 9.9375 -19.078125 C 9.601562 -19.148438 9.1875 -19.269531 8.6875 -19.4375 C 8.21875 -19.570312 7.828125 -19.675781 7.515625 -19.75 C 7.203125 -19.820312 6.875 -19.859375 6.53125 -19.859375 C 6.132812 -19.859375 5.789062 -19.804688 5.5 -19.703125 C 5.21875 -19.597656 4.890625 -19.414062 4.515625 -19.15625 C 4.367188 -19.050781 4.265625 -19 4.203125 -19 C 4.085938 -19 4 -19.125 3.9375 -19.375 L 3.515625 -20.671875 C 3.472656 -20.796875 3.453125 -20.894531 3.453125 -20.96875 C 3.453125 -21.09375 3.53125 -21.234375 3.6875 -21.390625 C 4.113281 -21.753906 4.523438 -22.03125 4.921875 -22.21875 C 5.316406 -22.414062 5.804688 -22.515625 6.390625 -22.515625 C 6.796875 -22.515625 7.179688 -22.472656 7.546875 -22.390625 C 7.921875 -22.316406 8.390625 -22.1875 8.953125 -22 C 9.867188 -21.695312 10.554688 -21.546875 11.015625 -21.546875 C 11.398438 -21.546875 11.757812 -21.609375 12.09375 -21.734375 C 12.425781 -21.867188 12.765625 -22.0625 13.109375 -22.3125 C 13.222656 -22.382812 13.320312 -22.421875 13.40625 -22.421875 C 13.570312 -22.421875 13.679688 -22.3125 13.734375 -22.09375 L 14.109375 -20.515625 C 14.128906 -20.472656 14.140625 -20.414062 14.140625 -20.34375 C 14.140625 -20.15625 14.015625 -19.972656 13.765625 -19.796875 Z M 13.765625 -19.796875 "/></g></g><g style="fill:#9c9e9f;fill-opacity:1;"><g transform="translate(414.391805, 170.446253)"><path style="stroke:none" d="M 9.046875 0.296875 C 7.453125 0.296875 6.046875 -0.046875 4.828125 -0.734375 C 3.609375 -1.429688 2.65625 -2.40625 1.96875 -3.65625 C 1.28125 -4.90625 0.9375 -6.328125 0.9375 -7.921875 C 0.9375 -9.578125 1.285156 -11.039062 1.984375 -12.3125 C 2.679688 -13.582031 3.648438 -14.570312 4.890625 -15.28125 C 6.128906 -15.988281 7.523438 -16.34375 9.078125 -16.34375 C 10.671875 -16.34375 12.082031 -15.984375 13.3125 -15.265625 C 14.539062 -14.546875 15.492188 -13.550781 16.171875 -12.28125 C 16.847656 -11.007812 17.1875 -9.566406 17.1875 -7.953125 C 17.1875 -6.359375 16.84375 -4.9375 16.15625 -3.6875 C 15.46875 -2.4375 14.507812 -1.457031 13.28125 -0.75 C 12.050781 -0.0507812 10.640625 0.296875 9.046875 0.296875 Z M 9.078125 -2.78125 C 10.191406 -2.78125 11.035156 -3.21875 11.609375 -4.09375 C 12.179688 -4.976562 12.46875 -6.285156 12.46875 -8.015625 C 12.46875 -9.773438 12.179688 -11.101562 11.609375 -12 C 11.035156 -12.894531 10.191406 -13.34375 9.078125 -13.34375 C 7.972656 -13.34375 7.125 -12.894531 6.53125 -12 C 5.945312 -11.101562 5.65625 -9.773438 5.65625 -8.015625 C 5.65625 -6.304688 5.945312 -5.003906 6.53125 -4.109375 C 7.125 -3.222656 7.972656 -2.78125 9.078125 -2.78125 Z M 9.078125 -2.78125 "/></g></g><g style="fill:#9c9e9f;fill-opacity:1;"><g transform="translate(76.556643, 199.022061)"><path style="stroke:none" d="M 12.796875 0 C 12.378906 0 12.171875 -0.203125 12.171875 -0.609375 L 12.171875 -1.453125 C 12.171875 -1.609375 12.117188 -1.6875 12.015625 -1.6875 C 11.953125 -1.6875 11.863281 -1.648438 11.75 -1.578125 C 11.15625 -1.003906 10.507812 -0.546875 9.8125 -0.203125 C 9.125 0.128906 8.296875 0.296875 7.328125 0.296875 C 5.429688 0.296875 3.898438 -0.40625 2.734375 -1.8125 C 1.578125 -3.226562 1 -5.257812 1 -7.90625 C 1 -9.550781 1.296875 -11.015625 1.890625 -12.296875 C 2.484375 -13.578125 3.285156 -14.570312 4.296875 -15.28125 C 5.304688 -15.988281 6.414062 -16.34375 7.625 -16.34375 C 8.414062 -16.34375 9.128906 -16.210938 9.765625 -15.953125 C 10.398438 -15.691406 11.007812 -15.285156 11.59375 -14.734375 C 11.726562 -14.640625 11.828125 -14.59375 11.890625 -14.59375 C 12.035156 -14.59375 12.109375 -14.722656 12.109375 -14.984375 L 12.109375 -21.90625 C 12.109375 -22.269531 12.269531 -22.453125 12.59375 -22.453125 L 16.28125 -22.453125 C 16.425781 -22.453125 16.539062 -22.398438 16.625 -22.296875 C 16.71875 -22.203125 16.765625 -22.0625 16.765625 -21.875 L 16.765625 -0.640625 C 16.765625 -0.410156 16.710938 -0.242188 16.609375 -0.140625 C 16.515625 -0.046875 16.335938 0 16.078125 0 Z M 12.109375 -11.859375 C 11.640625 -12.367188 11.175781 -12.742188 10.71875 -12.984375 C 10.269531 -13.222656 9.765625 -13.34375 9.203125 -13.34375 C 8.128906 -13.34375 7.28125 -12.90625 6.65625 -12.03125 C 6.03125 -11.15625 5.71875 -9.796875 5.71875 -7.953125 C 5.71875 -6.097656 6.019531 -4.742188 6.625 -3.890625 C 7.226562 -3.035156 8.066406 -2.609375 9.140625 -2.609375 C 9.941406 -2.609375 10.632812 -2.875 11.21875 -3.40625 C 11.8125 -3.9375 12.109375 -4.554688 12.109375 -5.265625 Z M 12.109375 -11.859375 "/></g></g><g style="fill:#9c9e9f;fill-opacity:1;"><g transform="translate(94.646119, 199.022061)"><path style="stroke:none" d="M 5.75 -6.65625 C 5.75 -5.53125 6.125 -4.617188 6.875 -3.921875 C 7.632812 -3.222656 8.582031 -2.875 9.71875 -2.875 C 10.445312 -2.875 11.117188 -3.03125 11.734375 -3.34375 C 12.347656 -3.65625 12.96875 -4.175781 13.59375 -4.90625 C 13.664062 -4.988281 13.742188 -5.03125 13.828125 -5.03125 C 13.890625 -5.03125 13.992188 -5 14.140625 -4.9375 L 16.3125 -4.03125 C 16.457031 -3.96875 16.53125 -3.863281 16.53125 -3.71875 C 16.53125 -3.625 16.488281 -3.523438 16.40625 -3.421875 C 15.4375 -2.046875 14.394531 -1.082031 13.28125 -0.53125 C 12.175781 0.0195312 10.796875 0.296875 9.140625 0.296875 C 7.585938 0.296875 6.1875 -0.0390625 4.9375 -0.71875 C 3.6875 -1.40625 2.707031 -2.359375 2 -3.578125 C 1.289062 -4.804688 0.9375 -6.207031 0.9375 -7.78125 C 0.9375 -9.476562 1.300781 -10.972656 2.03125 -12.265625 C 2.757812 -13.566406 3.742188 -14.570312 4.984375 -15.28125 C 6.222656 -15.988281 7.578125 -16.34375 9.046875 -16.34375 C 10.578125 -16.34375 11.9375 -16.003906 13.125 -15.328125 C 14.320312 -14.648438 15.253906 -13.675781 15.921875 -12.40625 C 16.585938 -11.132812 16.921875 -9.625 16.921875 -7.875 C 16.921875 -7.601562 16.894531 -7.414062 16.84375 -7.3125 C 16.789062 -7.21875 16.644531 -7.160156 16.40625 -7.140625 L 6.109375 -7.140625 C 5.867188 -7.140625 5.75 -6.976562 5.75 -6.65625 Z M 11.828125 -9.6875 C 12.054688 -9.6875 12.195312 -9.710938 12.25 -9.765625 C 12.3125 -9.816406 12.34375 -9.929688 12.34375 -10.109375 C 12.34375 -10.628906 12.222656 -11.148438 11.984375 -11.671875 C 11.742188 -12.203125 11.390625 -12.640625 10.921875 -12.984375 C 10.460938 -13.328125 9.898438 -13.5 9.234375 -13.5 C 8.222656 -13.5 7.394531 -13.144531 6.75 -12.4375 C 6.101562 -11.726562 5.789062 -10.820312 5.8125 -9.71875 Z M 11.828125 -9.6875 "/></g></g><g style="fill:#9c9e9f;fill-opacity:1;"><g transform="translate(112.039833, 199.022061)"><path style="stroke:none" d=""/></g></g><g style="fill:#9c9e9f;fill-opacity:1;"><g transform="translate(117.938501, 199.022061)"><path style="stroke:none" d="M 1.453125 0 C 1.148438 0 1 -0.171875 1 -0.515625 C 1 -0.671875 1.019531 -0.789062 1.0625 -0.875 L 8.59375 -21.859375 C 8.675781 -22.078125 8.769531 -22.226562 8.875 -22.3125 C 8.988281 -22.40625 9.15625 -22.453125 9.375 -22.453125 L 13.921875 -22.453125 C 14.140625 -22.453125 14.328125 -22.390625 14.484375 -22.265625 C 14.648438 -22.148438 14.765625 -21.992188 14.828125 -21.796875 L 22.3125 -0.8125 C 22.34375 -0.695312 22.359375 -0.609375 22.359375 -0.546875 C 22.359375 -0.378906 22.320312 -0.242188 22.25 -0.140625 C 22.1875 -0.046875 22.082031 0 21.9375 0 L 17.5 0 C 17.195312 0 17.003906 -0.140625 16.921875 -0.421875 L 15.34375 -4.84375 C 15.300781 -4.96875 15.253906 -5.050781 15.203125 -5.09375 C 15.148438 -5.144531 15.066406 -5.171875 14.953125 -5.171875 L 7.5625 -5.171875 C 7.363281 -5.171875 7.234375 -5.070312 7.171875 -4.875 L 5.5625 -0.390625 C 5.445312 -0.128906 5.238281 0 4.9375 0 Z M 13.703125 -9.203125 C 13.910156 -9.203125 14.015625 -9.28125 14.015625 -9.4375 C 14.015625 -9.5625 14.003906 -9.65625 13.984375 -9.71875 L 11.4375 -16.796875 C 11.375 -16.921875 11.304688 -16.984375 11.234375 -16.984375 C 11.171875 -16.984375 11.109375 -16.910156 11.046875 -16.765625 L 8.46875 -9.71875 C 8.425781 -9.59375 8.40625 -9.5 8.40625 -9.4375 C 8.40625 -9.28125 8.519531 -9.203125 8.75 -9.203125 Z M 13.703125 -9.203125 "/></g></g><g style="fill:#9c9e9f;fill-opacity:1;"><g transform="translate(140.928495, 199.022061)"><path style="stroke:none" d="M 8.40625 -12.828125 C 8.1875 -12.828125 8.078125 -12.707031 8.078125 -12.46875 L 8.078125 -5.171875 C 8.078125 -4.484375 8.238281 -3.992188 8.5625 -3.703125 C 8.882812 -3.410156 9.398438 -3.265625 10.109375 -3.265625 L 11.75 -3.265625 C 11.882812 -3.265625 11.992188 -3.21875 12.078125 -3.125 C 12.160156 -3.039062 12.203125 -2.914062 12.203125 -2.75 L 12.171875 -0.90625 C 12.171875 -0.5 11.945312 -0.257812 11.5 -0.1875 C 10.65625 -0.0625 9.457031 0 7.90625 0 C 6.488281 0 5.382812 -0.332031 4.59375 -1 C 3.8125 -1.664062 3.421875 -2.632812 3.421875 -3.90625 L 3.421875 -12.375 C 3.421875 -12.675781 3.289062 -12.828125 3.03125 -12.828125 L 1.1875 -12.828125 C 0.800781 -12.828125 0.609375 -13 0.609375 -13.34375 L 0.609375 -15.59375 C 0.609375 -15.894531 0.789062 -16.046875 1.15625 -16.046875 L 3.234375 -16.046875 C 3.398438 -16.046875 3.503906 -16.15625 3.546875 -16.375 L 3.96875 -20.96875 C 4.007812 -21.3125 4.160156 -21.484375 4.421875 -21.484375 L 7.71875 -21.484375 C 7.851562 -21.484375 7.96875 -21.429688 8.0625 -21.328125 C 8.15625 -21.234375 8.203125 -21.09375 8.203125 -20.90625 L 8.203125 -16.375 C 8.203125 -16.175781 8.300781 -16.078125 8.5 -16.078125 L 11.6875 -16.078125 C 12.050781 -16.078125 12.234375 -15.914062 12.234375 -15.59375 L 12.234375 -13.34375 C 12.234375 -13 12.03125 -12.828125 11.625 -12.828125 Z M 8.40625 -12.828125 "/></g></g><g style="fill:#9c9e9f;fill-opacity:1;"><g transform="translate(153.6637, 199.022061)"><path style="stroke:none" d="M 10.5 -1.546875 C 9.164062 -0.316406 7.582031 0.296875 5.75 0.296875 C 4.238281 0.296875 3.035156 -0.109375 2.140625 -0.921875 C 1.253906 -1.742188 0.8125 -2.804688 0.8125 -4.109375 C 0.8125 -5.804688 1.585938 -7.171875 3.140625 -8.203125 C 4.703125 -9.234375 6.84375 -9.78125 9.5625 -9.84375 L 10.65625 -9.921875 C 10.769531 -9.921875 10.875 -9.957031 10.96875 -10.03125 C 11.0625 -10.101562 11.109375 -10.207031 11.109375 -10.34375 L 11.109375 -10.984375 C 11.109375 -11.773438 10.882812 -12.378906 10.4375 -12.796875 C 10 -13.222656 9.363281 -13.4375 8.53125 -13.4375 C 7.125 -13.4375 6.078125 -12.832031 5.390625 -11.625 C 5.304688 -11.414062 5.175781 -11.3125 5 -11.3125 C 4.894531 -11.3125 4.800781 -11.320312 4.71875 -11.34375 L 1.6875 -12.046875 C 1.507812 -12.085938 1.421875 -12.195312 1.421875 -12.375 C 1.421875 -12.5 1.460938 -12.648438 1.546875 -12.828125 C 2.023438 -14.003906 2.882812 -14.882812 4.125 -15.46875 C 5.375 -16.050781 6.914062 -16.34375 8.75 -16.34375 C 11.144531 -16.34375 12.878906 -15.898438 13.953125 -15.015625 C 15.023438 -14.140625 15.5625 -12.894531 15.5625 -11.28125 L 15.5625 -0.671875 C 15.5625 -0.421875 15.519531 -0.242188 15.4375 -0.140625 C 15.351562 -0.046875 15.203125 0 14.984375 0 L 11.859375 0 C 11.660156 0 11.515625 -0.0664062 11.421875 -0.203125 C 11.328125 -0.347656 11.265625 -0.5625 11.234375 -0.84375 L 11.203125 -1.515625 C 11.179688 -1.691406 11.097656 -1.78125 10.953125 -1.78125 C 10.867188 -1.78125 10.71875 -1.703125 10.5 -1.546875 Z M 11.109375 -7.140625 C 11.109375 -7.328125 11.078125 -7.457031 11.015625 -7.53125 C 10.953125 -7.613281 10.832031 -7.65625 10.65625 -7.65625 L 9.8125 -7.59375 C 8.632812 -7.53125 7.597656 -7.25 6.703125 -6.75 C 5.804688 -6.257812 5.359375 -5.582031 5.359375 -4.71875 C 5.359375 -4.113281 5.566406 -3.632812 5.984375 -3.28125 C 6.410156 -2.925781 7 -2.75 7.75 -2.75 C 8.675781 -2.75 9.460938 -3.023438 10.109375 -3.578125 C 10.773438 -4.097656 11.109375 -4.628906 11.109375 -5.171875 Z M 11.109375 -7.140625 "/></g></g><g style="fill:#9c9e9f;fill-opacity:1;"><g transform="translate(170.361664, 199.022061)"><path style="stroke:none" d="M 11.5625 -11.859375 C 10.738281 -12.953125 9.554688 -13.5 8.015625 -13.5 C 7.253906 -13.5 6.617188 -13.351562 6.109375 -13.0625 C 5.609375 -12.769531 5.359375 -12.367188 5.359375 -11.859375 C 5.359375 -11.578125 5.472656 -11.320312 5.703125 -11.09375 C 5.929688 -10.863281 6.378906 -10.664062 7.046875 -10.5 L 10.53125 -9.65625 C 12.125 -9.269531 13.289062 -8.65625 14.03125 -7.8125 C 14.78125 -6.976562 15.15625 -6 15.15625 -4.875 C 15.15625 -3.28125 14.488281 -2.019531 13.15625 -1.09375 C 11.832031 -0.164062 10.085938 0.296875 7.921875 0.296875 C 6.191406 0.296875 4.691406 -0.0078125 3.421875 -0.625 C 2.148438 -1.238281 1.25 -2.039062 0.71875 -3.03125 C 0.625 -3.164062 0.578125 -3.296875 0.578125 -3.421875 C 0.578125 -3.554688 0.644531 -3.65625 0.78125 -3.71875 L 2.84375 -4.78125 C 3.007812 -4.863281 3.148438 -4.90625 3.265625 -4.90625 C 3.390625 -4.90625 3.503906 -4.851562 3.609375 -4.75 C 4.046875 -4.125 4.582031 -3.625 5.21875 -3.25 C 5.851562 -2.875 6.695312 -2.6875 7.75 -2.6875 C 8.695312 -2.6875 9.46875 -2.828125 10.0625 -3.109375 C 10.65625 -3.398438 10.953125 -3.816406 10.953125 -4.359375 C 10.953125 -4.722656 10.800781 -5.023438 10.5 -5.265625 C 10.195312 -5.503906 9.679688 -5.71875 8.953125 -5.90625 L 5.84375 -6.5625 C 2.769531 -7.226562 1.234375 -8.753906 1.234375 -11.140625 C 1.234375 -12.148438 1.507812 -13.046875 2.0625 -13.828125 C 2.625 -14.617188 3.421875 -15.234375 4.453125 -15.671875 C 5.484375 -16.117188 6.691406 -16.34375 8.078125 -16.34375 C 9.554688 -16.34375 10.863281 -16.066406 12 -15.515625 C 13.132812 -14.972656 13.957031 -14.289062 14.46875 -13.46875 C 14.59375 -13.300781 14.65625 -13.160156 14.65625 -13.046875 C 14.65625 -12.921875 14.582031 -12.816406 14.4375 -12.734375 L 12.25 -11.6875 C 12.195312 -11.644531 12.117188 -11.625 12.015625 -11.625 C 11.835938 -11.625 11.6875 -11.703125 11.5625 -11.859375 Z M 11.5625 -11.859375 "/></g></g><g style="fill:#9c9e9f;fill-opacity:1;"><g transform="translate(186.06138, 199.022061)"><path style="stroke:none" d=""/></g></g><g style="fill:#9c9e9f;fill-opacity:1;"><g transform="translate(191.960048, 199.022061)"><path style="stroke:none" d="M 7.8125 -9.59375 C 7.6875 -9.59375 7.585938 -9.550781 7.515625 -9.46875 C 7.453125 -9.394531 7.421875 -9.304688 7.421875 -9.203125 L 7.421875 -0.703125 C 7.421875 -0.453125 7.351562 -0.269531 7.21875 -0.15625 C 7.082031 -0.0507812 6.875 0 6.59375 0 L 2.78125 0 C 2.539062 0 2.367188 -0.046875 2.265625 -0.140625 C 2.171875 -0.242188 2.125 -0.410156 2.125 -0.640625 L 2.125 -21.875 C 2.125 -22.257812 2.285156 -22.453125 2.609375 -22.453125 L 6.9375 -22.453125 C 7.257812 -22.453125 7.421875 -22.269531 7.421875 -21.90625 L 7.421875 -14.171875 C 7.421875 -13.828125 7.570312 -13.65625 7.875 -13.65625 L 14.859375 -13.65625 C 15.179688 -13.65625 15.34375 -13.816406 15.34375 -14.140625 L 15.34375 -21.90625 C 15.34375 -22.269531 15.492188 -22.453125 15.796875 -22.453125 L 20.125 -22.453125 C 20.46875 -22.453125 20.640625 -22.257812 20.640625 -21.875 L 20.640625 -0.640625 C 20.640625 -0.210938 20.414062 0 19.96875 0 L 16.125 0 C 15.84375 0 15.640625 -0.046875 15.515625 -0.140625 C 15.398438 -0.242188 15.34375 -0.429688 15.34375 -0.703125 L 15.34375 -9.203125 C 15.34375 -9.316406 15.304688 -9.410156 15.234375 -9.484375 C 15.160156 -9.554688 15.054688 -9.59375 14.921875 -9.59375 Z M 7.8125 -9.59375 "/></g></g><g style="fill:#9c9e9f;fill-opacity:1;"><g transform="translate(214.345035, 199.022061)"><path style="stroke:none" d="M 9.046875 0.296875 C 7.453125 0.296875 6.046875 -0.046875 4.828125 -0.734375 C 3.609375 -1.429688 2.65625 -2.40625 1.96875 -3.65625 C 1.28125 -4.90625 0.9375 -6.328125 0.9375 -7.921875 C 0.9375 -9.578125 1.285156 -11.039062 1.984375 -12.3125 C 2.679688 -13.582031 3.648438 -14.570312 4.890625 -15.28125 C 6.128906 -15.988281 7.523438 -16.34375 9.078125 -16.34375 C 10.671875 -16.34375 12.082031 -15.984375 13.3125 -15.265625 C 14.539062 -14.546875 15.492188 -13.550781 16.171875 -12.28125 C 16.847656 -11.007812 17.1875 -9.566406 17.1875 -7.953125 C 17.1875 -6.359375 16.84375 -4.9375 16.15625 -3.6875 C 15.46875 -2.4375 14.507812 -1.457031 13.28125 -0.75 C 12.050781 -0.0507812 10.640625 0.296875 9.046875 0.296875 Z M 9.078125 -2.78125 C 10.191406 -2.78125 11.035156 -3.21875 11.609375 -4.09375 C 12.179688 -4.976562 12.46875 -6.285156 12.46875 -8.015625 C 12.46875 -9.773438 12.179688 -11.101562 11.609375 -12 C 11.035156 -12.894531 10.191406 -13.34375 9.078125 -13.34375 C 7.972656 -13.34375 7.125 -12.894531 6.53125 -12 C 5.945312 -11.101562 5.65625 -9.773438 5.65625 -8.015625 C 5.65625 -6.304688 5.945312 -5.003906 6.53125 -4.109375 C 7.125 -3.222656 7.972656 -2.78125 9.078125 -2.78125 Z M 9.078125 -2.78125 "/></g></g><g style="fill:#9c9e9f;fill-opacity:1;"><g transform="translate(232.132001, 199.022061)"><path style="stroke:none" d="M 11.5625 -11.859375 C 10.738281 -12.953125 9.554688 -13.5 8.015625 -13.5 C 7.253906 -13.5 6.617188 -13.351562 6.109375 -13.0625 C 5.609375 -12.769531 5.359375 -12.367188 5.359375 -11.859375 C 5.359375 -11.578125 5.472656 -11.320312 5.703125 -11.09375 C 5.929688 -10.863281 6.378906 -10.664062 7.046875 -10.5 L 10.53125 -9.65625 C 12.125 -9.269531 13.289062 -8.65625 14.03125 -7.8125 C 14.78125 -6.976562 15.15625 -6 15.15625 -4.875 C 15.15625 -3.28125 14.488281 -2.019531 13.15625 -1.09375 C 11.832031 -0.164062 10.085938 0.296875 7.921875 0.296875 C 6.191406 0.296875 4.691406 -0.0078125 3.421875 -0.625 C 2.148438 -1.238281 1.25 -2.039062 0.71875 -3.03125 C 0.625 -3.164062 0.578125 -3.296875 0.578125 -3.421875 C 0.578125 -3.554688 0.644531 -3.65625 0.78125 -3.71875 L 2.84375 -4.78125 C 3.007812 -4.863281 3.148438 -4.90625 3.265625 -4.90625 C 3.390625 -4.90625 3.503906 -4.851562 3.609375 -4.75 C 4.046875 -4.125 4.582031 -3.625 5.21875 -3.25 C 5.851562 -2.875 6.695312 -2.6875 7.75 -2.6875 C 8.695312 -2.6875 9.46875 -2.828125 10.0625 -3.109375 C 10.65625 -3.398438 10.953125 -3.816406 10.953125 -4.359375 C 10.953125 -4.722656 10.800781 -5.023438 10.5 -5.265625 C 10.195312 -5.503906 9.679688 -5.71875 8.953125 -5.90625 L 5.84375 -6.5625 C 2.769531 -7.226562 1.234375 -8.753906 1.234375 -11.140625 C 1.234375 -12.148438 1.507812 -13.046875 2.0625 -13.828125 C 2.625 -14.617188 3.421875 -15.234375 4.453125 -15.671875 C 5.484375 -16.117188 6.691406 -16.34375 8.078125 -16.34375 C 9.554688 -16.34375 10.863281 -16.066406 12 -15.515625 C 13.132812 -14.972656 13.957031 -14.289062 14.46875 -13.46875 C 14.59375 -13.300781 14.65625 -13.160156 14.65625 -13.046875 C 14.65625 -12.921875 14.582031 -12.816406 14.4375 -12.734375 L 12.25 -11.6875 C 12.195312 -11.644531 12.117188 -11.625 12.015625 -11.625 C 11.835938 -11.625 11.6875 -11.703125 11.5625 -11.859375 Z M 11.5625 -11.859375 "/></g></g><g style="fill:#9c9e9f;fill-opacity:1;"><g transform="translate(247.831717, 199.022061)"><path style="stroke:none" d="M 5.6875 -16.046875 C 5.925781 -16.046875 6.097656 -16 6.203125 -15.90625 C 6.304688 -15.8125 6.359375 -15.65625 6.359375 -15.4375 L 6.359375 -14.53125 C 6.359375 -14.382812 6.398438 -14.3125 6.484375 -14.3125 C 6.535156 -14.3125 6.632812 -14.363281 6.78125 -14.46875 C 7.40625 -15.050781 8.046875 -15.507812 8.703125 -15.84375 C 9.359375 -16.175781 10.191406 -16.34375 11.203125 -16.34375 C 13.035156 -16.34375 14.523438 -15.644531 15.671875 -14.25 C 16.828125 -12.863281 17.40625 -10.828125 17.40625 -8.140625 C 17.40625 -5.359375 16.8125 -3.253906 15.625 -1.828125 C 14.445312 -0.410156 12.890625 0.296875 10.953125 0.296875 C 9.359375 0.296875 8.007812 -0.210938 6.90625 -1.234375 C 6.695312 -1.398438 6.554688 -1.484375 6.484375 -1.484375 C 6.378906 -1.484375 6.328125 -1.34375 6.328125 -1.0625 L 6.328125 4.484375 C 6.328125 4.828125 6.175781 5 5.875 5 L 2.15625 5 C 2.007812 5 1.890625 4.953125 1.796875 4.859375 C 1.710938 4.765625 1.671875 4.628906 1.671875 4.453125 L 1.671875 -15.375 C 1.671875 -15.613281 1.722656 -15.785156 1.828125 -15.890625 C 1.941406 -15.992188 2.117188 -16.046875 2.359375 -16.046875 Z M 6.328125 -4.140625 C 6.765625 -3.660156 7.21875 -3.289062 7.6875 -3.03125 C 8.15625 -2.769531 8.671875 -2.640625 9.234375 -2.640625 C 11.535156 -2.640625 12.6875 -4.503906 12.6875 -8.234375 C 12.6875 -10.085938 12.390625 -11.410156 11.796875 -12.203125 C 11.210938 -13.003906 10.390625 -13.40625 9.328125 -13.40625 C 8.492188 -13.40625 7.785156 -13.15625 7.203125 -12.65625 C 6.617188 -12.164062 6.328125 -11.609375 6.328125 -10.984375 Z M 6.328125 -4.140625 "/></g></g><g style="fill:#9c9e9f;fill-opacity:1;"><g transform="translate(265.921193, 199.022061)"><path style="stroke:none" d="M 6.390625 -18.734375 C 6.390625 -18.234375 6.113281 -17.984375 5.5625 -17.984375 L 2.296875 -17.984375 C 2.054688 -17.984375 1.882812 -18.035156 1.78125 -18.140625 C 1.6875 -18.253906 1.640625 -18.429688 1.640625 -18.671875 L 1.640625 -21.859375 C 1.640625 -22.253906 1.8125 -22.453125 2.15625 -22.453125 L 5.90625 -22.453125 C 6.039062 -22.453125 6.15625 -22.398438 6.25 -22.296875 C 6.34375 -22.203125 6.390625 -22.0625 6.390625 -21.875 Z M 6.328125 -0.71875 C 6.328125 -0.457031 6.265625 -0.269531 6.140625 -0.15625 C 6.023438 -0.0507812 5.816406 0 5.515625 0 L 2.328125 0 C 2.085938 0 1.914062 -0.046875 1.8125 -0.140625 C 1.71875 -0.242188 1.671875 -0.410156 1.671875 -0.640625 L 1.671875 -15.46875 C 1.671875 -15.851562 1.835938 -16.046875 2.171875 -16.046875 L 5.875 -16.046875 C 6.175781 -16.046875 6.328125 -15.875 6.328125 -15.53125 Z M 6.328125 -0.71875 "/></g></g><g style="fill:#9c9e9f;fill-opacity:1;"><g transform="translate(273.604626, 199.022061)"><path style="stroke:none" d="M 8.40625 -12.828125 C 8.1875 -12.828125 8.078125 -12.707031 8.078125 -12.46875 L 8.078125 -5.171875 C 8.078125 -4.484375 8.238281 -3.992188 8.5625 -3.703125 C 8.882812 -3.410156 9.398438 -3.265625 10.109375 -3.265625 L 11.75 -3.265625 C 11.882812 -3.265625 11.992188 -3.21875 12.078125 -3.125 C 12.160156 -3.039062 12.203125 -2.914062 12.203125 -2.75 L 12.171875 -0.90625 C 12.171875 -0.5 11.945312 -0.257812 11.5 -0.1875 C 10.65625 -0.0625 9.457031 0 7.90625 0 C 6.488281 0 5.382812 -0.332031 4.59375 -1 C 3.8125 -1.664062 3.421875 -2.632812 3.421875 -3.90625 L 3.421875 -12.375 C 3.421875 -12.675781 3.289062 -12.828125 3.03125 -12.828125 L 1.1875 -12.828125 C 0.800781 -12.828125 0.609375 -13 0.609375 -13.34375 L 0.609375 -15.59375 C 0.609375 -15.894531 0.789062 -16.046875 1.15625 -16.046875 L 3.234375 -16.046875 C 3.398438 -16.046875 3.503906 -16.15625 3.546875 -16.375 L 3.96875 -20.96875 C 4.007812 -21.3125 4.160156 -21.484375 4.421875 -21.484375 L 7.71875 -21.484375 C 7.851562 -21.484375 7.96875 -21.429688 8.0625 -21.328125 C 8.15625 -21.234375 8.203125 -21.09375 8.203125 -20.90625 L 8.203125 -16.375 C 8.203125 -16.175781 8.300781 -16.078125 8.5 -16.078125 L 11.6875 -16.078125 C 12.050781 -16.078125 12.234375 -15.914062 12.234375 -15.59375 L 12.234375 -13.34375 C 12.234375 -13 12.03125 -12.828125 11.625 -12.828125 Z M 8.40625 -12.828125 "/></g></g><g style="fill:#9c9e9f;fill-opacity:1;"><g transform="translate(286.339844, 199.022061)"><path style="stroke:none" d="M 10.5 -1.546875 C 9.164062 -0.316406 7.582031 0.296875 5.75 0.296875 C 4.238281 0.296875 3.035156 -0.109375 2.140625 -0.921875 C 1.253906 -1.742188 0.8125 -2.804688 0.8125 -4.109375 C 0.8125 -5.804688 1.585938 -7.171875 3.140625 -8.203125 C 4.703125 -9.234375 6.84375 -9.78125 9.5625 -9.84375 L 10.65625 -9.921875 C 10.769531 -9.921875 10.875 -9.957031 10.96875 -10.03125 C 11.0625 -10.101562 11.109375 -10.207031 11.109375 -10.34375 L 11.109375 -10.984375 C 11.109375 -11.773438 10.882812 -12.378906 10.4375 -12.796875 C 10 -13.222656 9.363281 -13.4375 8.53125 -13.4375 C 7.125 -13.4375 6.078125 -12.832031 5.390625 -11.625 C 5.304688 -11.414062 5.175781 -11.3125 5 -11.3125 C 4.894531 -11.3125 4.800781 -11.320312 4.71875 -11.34375 L 1.6875 -12.046875 C 1.507812 -12.085938 1.421875 -12.195312 1.421875 -12.375 C 1.421875 -12.5 1.460938 -12.648438 1.546875 -12.828125 C 2.023438 -14.003906 2.882812 -14.882812 4.125 -15.46875 C 5.375 -16.050781 6.914062 -16.34375 8.75 -16.34375 C 11.144531 -16.34375 12.878906 -15.898438 13.953125 -15.015625 C 15.023438 -14.140625 15.5625 -12.894531 15.5625 -11.28125 L 15.5625 -0.671875 C 15.5625 -0.421875 15.519531 -0.242188 15.4375 -0.140625 C 15.351562 -0.046875 15.203125 0 14.984375 0 L 11.859375 0 C 11.660156 0 11.515625 -0.0664062 11.421875 -0.203125 C 11.328125 -0.347656 11.265625 -0.5625 11.234375 -0.84375 L 11.203125 -1.515625 C 11.179688 -1.691406 11.097656 -1.78125 10.953125 -1.78125 C 10.867188 -1.78125 10.71875 -1.703125 10.5 -1.546875 Z M 11.109375 -7.140625 C 11.109375 -7.328125 11.078125 -7.457031 11.015625 -7.53125 C 10.953125 -7.613281 10.832031 -7.65625 10.65625 -7.65625 L 9.8125 -7.59375 C 8.632812 -7.53125 7.597656 -7.25 6.703125 -6.75 C 5.804688 -6.257812 5.359375 -5.582031 5.359375 -4.71875 C 5.359375 -4.113281 5.566406 -3.632812 5.984375 -3.28125 C 6.410156 -2.925781 7 -2.75 7.75 -2.75 C 8.675781 -2.75 9.460938 -3.023438 10.109375 -3.578125 C 10.773438 -4.097656 11.109375 -4.628906 11.109375 -5.171875 Z M 11.109375 -7.140625 "/></g></g><g style="fill:#9c9e9f;fill-opacity:1;"><g transform="translate(303.037795, 199.022061)"><path style="stroke:none" d="M 6.359375 -0.71875 C 6.359375 -0.457031 6.296875 -0.269531 6.171875 -0.15625 C 6.054688 -0.0507812 5.84375 0 5.53125 0 L 2.328125 0 C 2.085938 0 1.914062 -0.046875 1.8125 -0.140625 C 1.71875 -0.242188 1.671875 -0.410156 1.671875 -0.640625 L 1.75 -21.875 C 1.75 -22.257812 1.910156 -22.453125 2.234375 -22.453125 L 5.90625 -22.453125 C 6.207031 -22.453125 6.359375 -22.269531 6.359375 -21.90625 Z M 6.359375 -0.71875 "/></g></g><g style="fill:#9c9e9f;fill-opacity:1;"><g transform="translate(310.751472, 199.022061)"><path style="stroke:none" d="M 10.5 -1.546875 C 9.164062 -0.316406 7.582031 0.296875 5.75 0.296875 C 4.238281 0.296875 3.035156 -0.109375 2.140625 -0.921875 C 1.253906 -1.742188 0.8125 -2.804688 0.8125 -4.109375 C 0.8125 -5.804688 1.585938 -7.171875 3.140625 -8.203125 C 4.703125 -9.234375 6.84375 -9.78125 9.5625 -9.84375 L 10.65625 -9.921875 C 10.769531 -9.921875 10.875 -9.957031 10.96875 -10.03125 C 11.0625 -10.101562 11.109375 -10.207031 11.109375 -10.34375 L 11.109375 -10.984375 C 11.109375 -11.773438 10.882812 -12.378906 10.4375 -12.796875 C 10 -13.222656 9.363281 -13.4375 8.53125 -13.4375 C 7.125 -13.4375 6.078125 -12.832031 5.390625 -11.625 C 5.304688 -11.414062 5.175781 -11.3125 5 -11.3125 C 4.894531 -11.3125 4.800781 -11.320312 4.71875 -11.34375 L 1.6875 -12.046875 C 1.507812 -12.085938 1.421875 -12.195312 1.421875 -12.375 C 1.421875 -12.5 1.460938 -12.648438 1.546875 -12.828125 C 2.023438 -14.003906 2.882812 -14.882812 4.125 -15.46875 C 5.375 -16.050781 6.914062 -16.34375 8.75 -16.34375 C 11.144531 -16.34375 12.878906 -15.898438 13.953125 -15.015625 C 15.023438 -14.140625 15.5625 -12.894531 15.5625 -11.28125 L 15.5625 -0.671875 C 15.5625 -0.421875 15.519531 -0.242188 15.4375 -0.140625 C 15.351562 -0.046875 15.203125 0 14.984375 0 L 11.859375 0 C 11.660156 0 11.515625 -0.0664062 11.421875 -0.203125 C 11.328125 -0.347656 11.265625 -0.5625 11.234375 -0.84375 L 11.203125 -1.515625 C 11.179688 -1.691406 11.097656 -1.78125 10.953125 -1.78125 C 10.867188 -1.78125 10.71875 -1.703125 10.5 -1.546875 Z M 11.109375 -7.140625 C 11.109375 -7.328125 11.078125 -7.457031 11.015625 -7.53125 C 10.953125 -7.613281 10.832031 -7.65625 10.65625 -7.65625 L 9.8125 -7.59375 C 8.632812 -7.53125 7.597656 -7.25 6.703125 -6.75 C 5.804688 -6.257812 5.359375 -5.582031 5.359375 -4.71875 C 5.359375 -4.113281 5.566406 -3.632812 5.984375 -3.28125 C 6.410156 -2.925781 7 -2.75 7.75 -2.75 C 8.675781 -2.75 9.460938 -3.023438 10.109375 -3.578125 C 10.773438 -4.097656 11.109375 -4.628906 11.109375 -5.171875 Z M 11.109375 -7.140625 "/></g></g><g style="fill:#9c9e9f;fill-opacity:1;"><g transform="translate(327.449447, 199.022061)"><path style="stroke:none" d="M 2.296875 0 C 1.878906 0 1.671875 -0.203125 1.671875 -0.609375 L 1.671875 -15.46875 C 1.671875 -15.851562 1.832031 -16.046875 2.15625 -16.046875 L 5.6875 -16.046875 C 6.007812 -16.046875 6.171875 -15.875 6.171875 -15.53125 L 6.171875 -13.734375 C 6.171875 -13.660156 6.191406 -13.601562 6.234375 -13.5625 C 6.273438 -13.519531 6.316406 -13.5 6.359375 -13.5 C 6.421875 -13.5 6.5 -13.550781 6.59375 -13.65625 C 7.195312 -14.457031 7.910156 -15.101562 8.734375 -15.59375 C 9.566406 -16.09375 10.359375 -16.34375 11.109375 -16.34375 C 11.835938 -16.34375 12.203125 -16.171875 12.203125 -15.828125 L 12.203125 -12.3125 C 12.203125 -12.175781 12.160156 -12.066406 12.078125 -11.984375 C 11.992188 -11.898438 11.882812 -11.878906 11.75 -11.921875 C 11.101562 -12.085938 10.394531 -12.171875 9.625 -12.171875 C 9.125 -12.171875 8.613281 -12.039062 8.09375 -11.78125 C 7.582031 -11.53125 7.160156 -11.195312 6.828125 -10.78125 C 6.492188 -10.375 6.328125 -9.957031 6.328125 -9.53125 L 6.328125 -0.703125 C 6.328125 -0.234375 6.0625 0 5.53125 0 Z M 2.296875 0 "/></g></g><g style="fill:#9c9e9f;fill-opacity:1;"><g transform="translate(340.00313, 199.022061)"><path style="stroke:none" d="M 5.75 -6.65625 C 5.75 -5.53125 6.125 -4.617188 6.875 -3.921875 C 7.632812 -3.222656 8.582031 -2.875 9.71875 -2.875 C 10.445312 -2.875 11.117188 -3.03125 11.734375 -3.34375 C 12.347656 -3.65625 12.96875 -4.175781 13.59375 -4.90625 C 13.664062 -4.988281 13.742188 -5.03125 13.828125 -5.03125 C 13.890625 -5.03125 13.992188 -5 14.140625 -4.9375 L 16.3125 -4.03125 C 16.457031 -3.96875 16.53125 -3.863281 16.53125 -3.71875 C 16.53125 -3.625 16.488281 -3.523438 16.40625 -3.421875 C 15.4375 -2.046875 14.394531 -1.082031 13.28125 -0.53125 C 12.175781 0.0195312 10.796875 0.296875 9.140625 0.296875 C 7.585938 0.296875 6.1875 -0.0390625 4.9375 -0.71875 C 3.6875 -1.40625 2.707031 -2.359375 2 -3.578125 C 1.289062 -4.804688 0.9375 -6.207031 0.9375 -7.78125 C 0.9375 -9.476562 1.300781 -10.972656 2.03125 -12.265625 C 2.757812 -13.566406 3.742188 -14.570312 4.984375 -15.28125 C 6.222656 -15.988281 7.578125 -16.34375 9.046875 -16.34375 C 10.578125 -16.34375 11.9375 -16.003906 13.125 -15.328125 C 14.320312 -14.648438 15.253906 -13.675781 15.921875 -12.40625 C 16.585938 -11.132812 16.921875 -9.625 16.921875 -7.875 C 16.921875 -7.601562 16.894531 -7.414062 16.84375 -7.3125 C 16.789062 -7.21875 16.644531 -7.160156 16.40625 -7.140625 L 6.109375 -7.140625 C 5.867188 -7.140625 5.75 -6.976562 5.75 -6.65625 Z M 11.828125 -9.6875 C 12.054688 -9.6875 12.195312 -9.710938 12.25 -9.765625 C 12.3125 -9.816406 12.34375 -9.929688 12.34375 -10.109375 C 12.34375 -10.628906 12.222656 -11.148438 11.984375 -11.671875 C 11.742188 -12.203125 11.390625 -12.640625 10.921875 -12.984375 C 10.460938 -13.328125 9.898438 -13.5 9.234375 -13.5 C 8.222656 -13.5 7.394531 -13.144531 6.75 -12.4375 C 6.101562 -11.726562 5.789062 -10.820312 5.8125 -9.71875 Z M 11.828125 -9.6875 "/></g></g><g style="fill:#9c9e9f;fill-opacity:1;"><g transform="translate(357.396844, 199.022061)"><path style="stroke:none" d="M 11.5625 -11.859375 C 10.738281 -12.953125 9.554688 -13.5 8.015625 -13.5 C 7.253906 -13.5 6.617188 -13.351562 6.109375 -13.0625 C 5.609375 -12.769531 5.359375 -12.367188 5.359375 -11.859375 C 5.359375 -11.578125 5.472656 -11.320312 5.703125 -11.09375 C 5.929688 -10.863281 6.378906 -10.664062 7.046875 -10.5 L 10.53125 -9.65625 C 12.125 -9.269531 13.289062 -8.65625 14.03125 -7.8125 C 14.78125 -6.976562 15.15625 -6 15.15625 -4.875 C 15.15625 -3.28125 14.488281 -2.019531 13.15625 -1.09375 C 11.832031 -0.164062 10.085938 0.296875 7.921875 0.296875 C 6.191406 0.296875 4.691406 -0.0078125 3.421875 -0.625 C 2.148438 -1.238281 1.25 -2.039062 0.71875 -3.03125 C 0.625 -3.164062 0.578125 -3.296875 0.578125 -3.421875 C 0.578125 -3.554688 0.644531 -3.65625 0.78125 -3.71875 L 2.84375 -4.78125 C 3.007812 -4.863281 3.148438 -4.90625 3.265625 -4.90625 C 3.390625 -4.90625 3.503906 -4.851562 3.609375 -4.75 C 4.046875 -4.125 4.582031 -3.625 5.21875 -3.25 C 5.851562 -2.875 6.695312 -2.6875 7.75 -2.6875 C 8.695312 -2.6875 9.46875 -2.828125 10.0625 -3.109375 C 10.65625 -3.398438 10.953125 -3.816406 10.953125 -4.359375 C 10.953125 -4.722656 10.800781 -5.023438 10.5 -5.265625 C 10.195312 -5.503906 9.679688 -5.71875 8.953125 -5.90625 L 5.84375 -6.5625 C 2.769531 -7.226562 1.234375 -8.753906 1.234375 -11.140625 C 1.234375 -12.148438 1.507812 -13.046875 2.0625 -13.828125 C 2.625 -14.617188 3.421875 -15.234375 4.453125 -15.671875 C 5.484375 -16.117188 6.691406 -16.34375 8.078125 -16.34375 C 9.554688 -16.34375 10.863281 -16.066406 12 -15.515625 C 13.132812 -14.972656 13.957031 -14.289062 14.46875 -13.46875 C 14.59375 -13.300781 14.65625 -13.160156 14.65625 -13.046875 C 14.65625 -12.921875 14.582031 -12.816406 14.4375 -12.734375 L 12.25 -11.6875 C 12.195312 -11.644531 12.117188 -11.625 12.015625 -11.625 C 11.835938 -11.625 11.6875 -11.703125 11.5625 -11.859375 Z M 11.5625 -11.859375 "/></g></g></g></svg>