<svg xmlns="http://www.w3.org/2000/svg" xmlns:xlink="http://www.w3.org/1999/xlink" width="600" zoomAndPan="magnify" viewBox="0 0 450 149.999998" height="200" preserveAspectRatio="xMidYMid meet" version="1.2"><defs><clipPath id="e2428e12fa"><path d="M 141 13.699219 L 241.726562 13.699219 L 241.726562 93 L 141 93 Z M 141 13.699219 "/></clipPath><clipPath id="f2ed44f20b"><path d="M 139 60 L 241 60 L 241 117.761719 L 139 117.761719 Z M 139 60 "/></clipPath></defs><g id="b7889fae8f"><g style="fill:#9c9e9f;fill-opacity:1;"><g transform="translate(-0.0721403, 117.186654)"><path style="stroke:none" d="M 67.71875 -75.9375 C 65.4375 -78.394531 62.90625 -80.328125 60.125 -81.734375 C 57.34375 -83.148438 53.535156 -83.859375 48.703125 -83.859375 C 43.597656 -83.859375 39.742188 -83.015625 37.140625 -81.328125 C 34.546875 -79.640625 33.25 -77.519531 33.25 -74.96875 C 33.25 -73.238281 33.976562 -71.597656 35.4375 -70.046875 C 36.894531 -68.492188 39.445312 -67.265625 43.09375 -66.359375 L 65.265625 -60.328125 C 73.472656 -58.140625 79.628906 -54.492188 83.734375 -49.390625 C 87.835938 -44.285156 89.890625 -38.175781 89.890625 -31.0625 C 89.890625 -24.488281 88.175781 -18.757812 84.75 -13.875 C 81.332031 -9 76.429688 -5.238281 70.046875 -2.59375 C 63.660156 0.0507812 56.179688 1.375 47.609375 1.375 C 37.941406 1.375 29.160156 -0.242188 21.265625 -3.484375 C 13.378906 -6.722656 7.796875 -11.078125 4.515625 -16.546875 C 4.054688 -17.460938 3.828125 -18.148438 3.828125 -18.609375 C 3.828125 -19.335938 4.328125 -20.066406 5.328125 -20.796875 L 17.65625 -29.28125 C 18.65625 -29.914062 19.519531 -30.234375 20.25 -30.234375 C 21.15625 -30.234375 21.882812 -29.867188 22.4375 -29.140625 C 25.71875 -24.941406 29.019531 -21.976562 32.34375 -20.25 C 35.675781 -18.519531 40.082031 -17.65625 45.5625 -17.65625 C 51.125 -17.65625 55.523438 -18.472656 58.765625 -20.109375 C 62.003906 -21.753906 63.625 -24.125 63.625 -27.21875 C 63.625 -31.414062 60.289062 -34.425781 53.625 -36.25 L 32.828125 -41.734375 C 24.804688 -43.828125 18.515625 -47.539062 13.953125 -52.875 C 9.390625 -58.207031 7.109375 -64.34375 7.109375 -71.28125 C 7.109375 -77.207031 8.796875 -82.5625 12.171875 -87.34375 C 15.546875 -92.132812 20.3125 -95.921875 26.46875 -98.703125 C 32.625 -101.492188 39.765625 -102.890625 47.890625 -102.890625 C 55.734375 -102.890625 63.03125 -101.566406 69.78125 -98.921875 C 76.53125 -96.273438 81.546875 -92.757812 84.828125 -88.375 C 85.460938 -87.28125 85.78125 -86.507812 85.78125 -86.0625 C 85.78125 -85.601562 85.460938 -85.097656 84.828125 -84.546875 L 71.421875 -74.84375 C 71.054688 -74.476562 70.644531 -74.296875 70.1875 -74.296875 C 69.632812 -74.296875 68.8125 -74.84375 67.71875 -75.9375 Z M 67.71875 -75.9375 "/></g></g><g style="fill:#9c9e9f;fill-opacity:1;"><g transform="translate(92.822098, 117.186654)"><path style="stroke:none" d="M 33.65625 -101.515625 C 35.207031 -101.515625 35.984375 -100.648438 35.984375 -98.921875 L 35.984375 -3.6875 C 35.984375 -2.320312 35.660156 -1.363281 35.015625 -0.8125 C 34.378906 -0.269531 33.332031 0 31.875 0 L 11.625 0 C 10.351562 0 9.488281 -0.25 9.03125 -0.75 C 8.570312 -1.25 8.34375 -2.046875 8.34375 -3.140625 L 8.34375 -98.640625 C 8.34375 -99.554688 8.546875 -100.265625 8.953125 -100.765625 C 9.367188 -101.265625 9.941406 -101.515625 10.671875 -101.515625 Z M 33.65625 -101.515625 "/></g></g><g style="fill:#9c9e9f;fill-opacity:1;"><g transform="translate(135.516028, 117.186654)"><path style="stroke:none" d=""/></g></g><g style="fill:#9c9e9f;fill-opacity:1;"><g transform="translate(161.783552, 117.186654)"><path style="stroke:none" d=""/></g></g><g style="fill:#9c9e9f;fill-opacity:1;"><g transform="translate(188.051076, 117.186654)"><path style="stroke:none" d=""/></g></g><g style="fill:#9c9e9f;fill-opacity:1;"><g transform="translate(214.3186, 117.186654)"><path style="stroke:none" d=""/></g></g><g style="fill:#9c9e9f;fill-opacity:1;"><g transform="translate(240.591666, 117.186654)"><path style="stroke:none" d="M 6.15625 0 C 5.425781 0 4.851562 -0.226562 4.4375 -0.6875 C 4.03125 -1.144531 3.828125 -1.78125 3.828125 -2.59375 C 3.828125 -3.238281 3.960938 -3.878906 4.234375 -4.515625 L 37.890625 -98.640625 C 38.253906 -99.734375 38.710938 -100.484375 39.265625 -100.890625 C 39.816406 -101.304688 40.640625 -101.515625 41.734375 -101.515625 L 65.53125 -101.515625 C 67.71875 -101.515625 69.269531 -100.375 70.1875 -98.09375 L 103.4375 -4.234375 C 103.519531 -3.960938 103.5625 -3.507812 103.5625 -2.875 C 103.5625 -2.050781 103.398438 -1.363281 103.078125 -0.8125 C 102.765625 -0.269531 102.289062 0 101.65625 0 L 77.984375 0 C 76.523438 0 75.566406 -0.726562 75.109375 -2.1875 L 69.09375 -19.96875 C 68.820312 -20.519531 68.570312 -20.910156 68.34375 -21.140625 C 68.113281 -21.367188 67.675781 -21.484375 67.03125 -21.484375 L 35.984375 -21.484375 C 34.984375 -21.484375 34.34375 -20.976562 34.0625 -19.96875 L 27.640625 -1.921875 C 27.179688 -0.640625 26.175781 0 24.625 0 Z M 60.875 -42.28125 C 61.789062 -42.28125 62.25 -42.734375 62.25 -43.640625 C 62.25 -44.191406 62.203125 -44.601562 62.109375 -44.875 L 52.265625 -72.375 C 52.171875 -72.914062 51.894531 -73.1875 51.4375 -73.1875 C 51.070312 -73.1875 50.800781 -72.914062 50.625 -72.375 L 40.640625 -44.875 C 40.453125 -44.507812 40.359375 -44.050781 40.359375 -43.5 C 40.359375 -42.6875 40.90625 -42.28125 42 -42.28125 Z M 60.875 -42.28125 "/></g></g><g style="fill:#8bc649;fill-opacity:1;"><g transform="translate(346.486041, 117.186654)"><path style="stroke:none" d="M 37.890625 -41.859375 C 37.347656 -41.859375 36.894531 -41.695312 36.53125 -41.375 C 36.164062 -41.0625 35.984375 -40.632812 35.984375 -40.09375 L 35.984375 -3.5625 C 35.984375 -2.28125 35.660156 -1.363281 35.015625 -0.8125 C 34.378906 -0.269531 33.332031 0 31.875 0 L 11.625 0 C 10.351562 0 9.488281 -0.25 9.03125 -0.75 C 8.570312 -1.25 8.34375 -2.046875 8.34375 -3.140625 L 8.34375 -98.640625 C 8.34375 -99.554688 8.546875 -100.265625 8.953125 -100.765625 C 9.367188 -101.265625 9.941406 -101.515625 10.671875 -101.515625 L 33.65625 -101.515625 C 34.382812 -101.515625 34.953125 -101.285156 35.359375 -100.828125 C 35.773438 -100.367188 35.984375 -99.734375 35.984375 -98.921875 L 35.984375 -65.53125 C 35.984375 -63.800781 36.710938 -62.9375 38.171875 -62.9375 L 65.390625 -62.9375 C 66.847656 -62.9375 67.578125 -63.800781 67.578125 -65.53125 L 67.578125 -98.921875 C 67.578125 -99.734375 67.78125 -100.367188 68.1875 -100.828125 C 68.601562 -101.285156 69.175781 -101.515625 69.90625 -101.515625 L 92.890625 -101.515625 C 93.617188 -101.515625 94.1875 -101.265625 94.59375 -100.765625 C 95.007812 -100.265625 95.21875 -99.554688 95.21875 -98.640625 L 95.21875 -3.140625 C 95.21875 -2.046875 94.988281 -1.25 94.53125 -0.75 C 94.082031 -0.25 93.21875 0 91.9375 0 L 71.6875 0 C 70.226562 0 69.175781 -0.269531 68.53125 -0.8125 C 67.894531 -1.363281 67.578125 -2.28125 67.578125 -3.5625 L 67.578125 -40.09375 C 67.578125 -40.632812 67.414062 -41.0625 67.09375 -41.375 C 66.78125 -41.695312 66.304688 -41.859375 65.671875 -41.859375 Z M 37.890625 -41.859375 "/></g></g><g clip-rule="nonzero" clip-path="url(#e2428e12fa)"><path style=" stroke:none;fill-rule:nonzero;fill:#9c9e9f;fill-opacity:1;" d="M 178.195312 90.339844 C 176.132812 88.957031 174.609375 87.152344 173.609375 84.902344 C 172.5 82.429688 171.90625 79.613281 171.8125 76.433594 C 171.722656 73.257812 171.996094 69.917969 172.636719 66.421875 C 173.632812 60.609375 175.199219 55.566406 177.289062 51.277344 C 179.398438 46.984375 182.054688 43.648438 185.234375 41.285156 C 188.414062 38.902344 192.113281 37.699219 196.339844 37.675781 C 200.511719 37.675781 203.828125 38.746094 206.304688 40.855469 C 208.757812 42.964844 210.210938 46.03125 210.640625 50.074219 L 241.152344 50.074219 C 241.203125 44.035156 240.25 38.765625 238.316406 34.226562 C 236.410156 29.683594 233.636719 25.894531 230.074219 22.851562 C 226.488281 19.808594 222.242188 17.515625 217.339844 15.992188 C 212.4375 14.472656 207.03125 13.699219 201.101562 13.699219 C 193.132812 13.722656 185.78125 15.019531 179.011719 17.558594 C 172.246094 20.078125 166.210938 23.691406 160.9375 28.367188 C 155.652344 33.046875 151.265625 38.628906 147.792969 45.078125 C 137.671875 63.746094 137.847656 91.527344 164.507812 92.445312 C 169.21875 92.605469 173.808594 91.816406 178.195312 90.339844 "/></g><g clip-rule="nonzero" clip-path="url(#f2ed44f20b)"><path style=" stroke:none;fill-rule:nonzero;fill:#8bc649;fill-opacity:1;" d="M 240.160156 60.425781 L 186.550781 60.425781 L 205.652344 76.527344 C 175.917969 105.445312 147.59375 97.597656 139.800781 84.925781 C 140.503906 90.351562 142.003906 95.050781 144.296875 99.070312 C 146.570312 103.089844 149.472656 106.425781 152.996094 109.058594 C 156.511719 111.71875 160.507812 113.695312 164.960938 115.007812 C 169.386719 116.304688 174.132812 116.960938 179.171875 116.960938 C 194.949219 116.894531 210.308594 109.285156 221.390625 98.210938 L 230.886719 117.761719 Z M 240.160156 60.425781 "/></g><g style="fill:#9c9e9f;fill-opacity:1;"><g transform="translate(6.562102, 144.343909)"><path style="stroke:none" d="M 9.484375 -11.5 C 8.671875 -12.457031 7.59375 -12.9375 6.25 -12.9375 C 5.289062 -12.9375 4.539062 -12.722656 4 -12.296875 C 3.457031 -11.878906 3.1875 -11.296875 3.1875 -10.546875 C 3.1875 -9.554688 3.863281 -8.832031 5.21875 -8.375 L 7.984375 -7.46875 C 9.097656 -7.09375 9.90625 -6.597656 10.40625 -5.984375 C 10.90625 -5.367188 11.15625 -4.617188 11.15625 -3.734375 C 11.15625 -2.515625 10.703125 -1.554688 9.796875 -0.859375 C 8.898438 -0.160156 7.671875 0.1875 6.109375 0.1875 C 4.972656 0.1875 3.96875 -0.015625 3.09375 -0.421875 C 2.226562 -0.828125 1.523438 -1.414062 0.984375 -2.1875 C 0.941406 -2.289062 0.921875 -2.351562 0.921875 -2.375 C 0.921875 -2.46875 0.984375 -2.554688 1.109375 -2.640625 L 1.796875 -3.125 C 1.910156 -3.195312 2 -3.234375 2.0625 -3.234375 C 2.132812 -3.234375 2.203125 -3.195312 2.265625 -3.125 C 2.804688 -2.425781 3.34375 -1.929688 3.875 -1.640625 C 4.414062 -1.347656 5.132812 -1.203125 6.03125 -1.203125 C 7.101562 -1.203125 7.929688 -1.390625 8.515625 -1.765625 C 9.109375 -2.148438 9.40625 -2.742188 9.40625 -3.546875 C 9.40625 -4.035156 9.25 -4.453125 8.9375 -4.796875 C 8.625 -5.148438 8.0625 -5.484375 7.25 -5.796875 L 4.359375 -6.78125 C 3.359375 -7.125 2.617188 -7.613281 2.140625 -8.25 C 1.660156 -8.894531 1.421875 -9.601562 1.421875 -10.375 C 1.421875 -11.164062 1.617188 -11.859375 2.015625 -12.453125 C 2.421875 -13.054688 2.988281 -13.519531 3.71875 -13.84375 C 4.445312 -14.164062 5.289062 -14.328125 6.25 -14.328125 C 7.175781 -14.328125 8.015625 -14.160156 8.765625 -13.828125 C 9.523438 -13.492188 10.171875 -13.03125 10.703125 -12.4375 C 10.765625 -12.375 10.796875 -12.3125 10.796875 -12.25 C 10.796875 -12.1875 10.765625 -12.128906 10.703125 -12.078125 L 9.828125 -11.390625 C 9.785156 -11.347656 9.75 -11.328125 9.71875 -11.328125 C 9.675781 -11.328125 9.597656 -11.382812 9.484375 -11.5 Z M 9.484375 -11.5 "/></g></g><g style="fill:#9c9e9f;fill-opacity:1;"><g transform="translate(18.559744, 144.343909)"><path style="stroke:none" d="M 3.140625 -12.265625 C 3.140625 -12.140625 3.113281 -12.046875 3.0625 -11.984375 C 3.007812 -11.929688 2.921875 -11.90625 2.796875 -11.90625 L 1.6875 -11.90625 C 1.5 -11.90625 1.40625 -12.015625 1.40625 -12.234375 L 1.40625 -13.828125 C 1.40625 -14.023438 1.492188 -14.125 1.671875 -14.125 L 2.875 -14.125 C 2.945312 -14.125 3.007812 -14.097656 3.0625 -14.046875 C 3.113281 -14.003906 3.140625 -13.9375 3.140625 -13.84375 Z M 3.0625 -0.328125 C 3.0625 -0.203125 3.035156 -0.113281 2.984375 -0.0625 C 2.941406 -0.0195312 2.851562 0 2.71875 0 L 1.75 0 C 1.632812 0 1.554688 -0.015625 1.515625 -0.046875 C 1.484375 -0.0859375 1.46875 -0.160156 1.46875 -0.265625 L 1.46875 -9.828125 C 1.46875 -10.003906 1.539062 -10.09375 1.6875 -10.09375 L 2.859375 -10.09375 C 2.992188 -10.09375 3.0625 -10.007812 3.0625 -9.84375 Z M 3.0625 -0.328125 "/></g></g><g style="fill:#9c9e9f;fill-opacity:1;"><g transform="translate(22.901687, 144.343909)"><path style="stroke:none" d="M 7.53125 -7.859375 C 7.257812 -8.253906 6.890625 -8.566406 6.421875 -8.796875 C 5.960938 -9.035156 5.425781 -9.15625 4.8125 -9.15625 C 4.113281 -9.15625 3.539062 -9.003906 3.09375 -8.703125 C 2.65625 -8.410156 2.4375 -8.023438 2.4375 -7.546875 C 2.4375 -7.253906 2.546875 -6.988281 2.765625 -6.75 C 2.992188 -6.519531 3.398438 -6.316406 3.984375 -6.140625 L 6.40625 -5.40625 C 7.238281 -5.175781 7.859375 -4.835938 8.265625 -4.390625 C 8.671875 -3.941406 8.875 -3.40625 8.875 -2.78125 C 8.875 -2.195312 8.695312 -1.675781 8.34375 -1.21875 C 7.988281 -0.769531 7.5 -0.421875 6.875 -0.171875 C 6.25 0.0664062 5.546875 0.1875 4.765625 0.1875 C 3.785156 0.1875 2.914062 -0.00390625 2.15625 -0.390625 C 1.394531 -0.773438 0.851562 -1.28125 0.53125 -1.90625 C 0.488281 -1.96875 0.46875 -2.019531 0.46875 -2.0625 C 0.46875 -2.125 0.503906 -2.171875 0.578125 -2.203125 L 1.3125 -2.625 C 1.4375 -2.707031 1.53125 -2.703125 1.59375 -2.609375 C 2.28125 -1.515625 3.34375 -0.96875 4.78125 -0.96875 C 5.53125 -0.976562 6.148438 -1.132812 6.640625 -1.4375 C 7.128906 -1.738281 7.375 -2.128906 7.375 -2.609375 C 7.375 -2.960938 7.226562 -3.257812 6.9375 -3.5 C 6.644531 -3.738281 6.164062 -3.957031 5.5 -4.15625 L 3.546875 -4.703125 C 2.617188 -4.941406 1.953125 -5.273438 1.546875 -5.703125 C 1.148438 -6.140625 0.953125 -6.671875 0.953125 -7.296875 C 0.953125 -7.878906 1.113281 -8.398438 1.4375 -8.859375 C 1.757812 -9.316406 2.210938 -9.664062 2.796875 -9.90625 C 3.390625 -10.15625 4.070312 -10.28125 4.84375 -10.28125 C 5.675781 -10.28125 6.425781 -10.117188 7.09375 -9.796875 C 7.757812 -9.484375 8.269531 -9.054688 8.625 -8.515625 C 8.71875 -8.390625 8.710938 -8.300781 8.609375 -8.25 L 7.8125 -7.8125 C 7.757812 -7.78125 7.71875 -7.765625 7.6875 -7.765625 C 7.644531 -7.765625 7.59375 -7.796875 7.53125 -7.859375 Z M 7.53125 -7.859375 "/></g></g><g style="fill:#9c9e9f;fill-opacity:1;"><g transform="translate(32.44265, 144.343909)"><path style="stroke:none" d="M 4.140625 -8.90625 C 4.035156 -8.90625 3.984375 -8.851562 3.984375 -8.75 L 3.984375 -2.703125 C 3.984375 -2.128906 4.078125 -1.734375 4.265625 -1.515625 C 4.453125 -1.304688 4.765625 -1.203125 5.203125 -1.203125 L 6.515625 -1.203125 C 6.648438 -1.203125 6.71875 -1.128906 6.71875 -0.984375 L 6.703125 -0.34375 C 6.703125 -0.21875 6.625 -0.132812 6.46875 -0.09375 C 6.144531 -0.03125 5.550781 0 4.6875 0 C 3.882812 0 3.296875 -0.1875 2.921875 -0.5625 C 2.554688 -0.9375 2.375 -1.53125 2.375 -2.34375 L 2.375 -8.703125 C 2.375 -8.835938 2.3125 -8.90625 2.1875 -8.90625 L 0.671875 -8.90625 C 0.523438 -8.90625 0.453125 -8.972656 0.453125 -9.109375 L 0.453125 -9.90625 C 0.453125 -10.03125 0.515625 -10.09375 0.640625 -10.09375 L 2.265625 -10.09375 C 2.359375 -10.09375 2.40625 -10.144531 2.40625 -10.25 L 2.609375 -13.28125 C 2.609375 -13.4375 2.675781 -13.515625 2.8125 -13.515625 L 3.765625 -13.515625 C 3.921875 -13.515625 4 -13.425781 4 -13.25 L 4 -10.25 C 4 -10.144531 4.050781 -10.09375 4.15625 -10.09375 L 6.546875 -10.09375 C 6.691406 -10.09375 6.765625 -10.035156 6.765625 -9.921875 L 6.765625 -9.109375 C 6.765625 -8.972656 6.691406 -8.90625 6.546875 -8.90625 Z M 4.140625 -8.90625 "/></g></g><g style="fill:#9c9e9f;fill-opacity:1;"><g transform="translate(39.603106, 144.343909)"><path style="stroke:none" d="M 2.53125 -4.421875 C 2.53125 -3.804688 2.675781 -3.238281 2.96875 -2.71875 C 3.269531 -2.195312 3.675781 -1.785156 4.1875 -1.484375 C 4.695312 -1.179688 5.253906 -1.03125 5.859375 -1.03125 C 7.128906 -1.03125 8.125 -1.554688 8.84375 -2.609375 C 8.882812 -2.660156 8.925781 -2.6875 8.96875 -2.6875 C 9.007812 -2.695312 9.054688 -2.691406 9.109375 -2.671875 L 9.90625 -2.265625 C 10.007812 -2.203125 10.019531 -2.113281 9.9375 -2 C 9.445312 -1.238281 8.859375 -0.679688 8.171875 -0.328125 C 7.484375 0.015625 6.664062 0.1875 5.71875 0.1875 C 4.789062 0.1875 3.957031 -0.0234375 3.21875 -0.453125 C 2.476562 -0.890625 1.898438 -1.5 1.484375 -2.28125 C 1.078125 -3.0625 0.875 -3.953125 0.875 -4.953125 C 0.875 -6.035156 1.082031 -6.976562 1.5 -7.78125 C 1.925781 -8.582031 2.503906 -9.195312 3.234375 -9.625 C 3.960938 -10.0625 4.78125 -10.28125 5.6875 -10.28125 C 6.601562 -10.28125 7.40625 -10.078125 8.09375 -9.671875 C 8.789062 -9.265625 9.328125 -8.671875 9.703125 -7.890625 C 10.085938 -7.109375 10.28125 -6.1875 10.28125 -5.125 L 10.28125 -5.046875 C 10.28125 -4.929688 10.257812 -4.84375 10.21875 -4.78125 C 10.1875 -4.726562 10.113281 -4.703125 10 -4.703125 L 2.703125 -4.703125 C 2.585938 -4.703125 2.53125 -4.609375 2.53125 -4.421875 Z M 8.359375 -5.75 C 8.503906 -5.75 8.59375 -5.765625 8.625 -5.796875 C 8.664062 -5.828125 8.6875 -5.898438 8.6875 -6.015625 C 8.6875 -6.578125 8.566406 -7.09375 8.328125 -7.5625 C 8.097656 -8.039062 7.753906 -8.421875 7.296875 -8.703125 C 6.847656 -8.992188 6.328125 -9.140625 5.734375 -9.140625 C 5.085938 -9.140625 4.519531 -8.976562 4.03125 -8.65625 C 3.550781 -8.332031 3.179688 -7.910156 2.921875 -7.390625 C 2.671875 -6.878906 2.554688 -6.332031 2.578125 -5.75 Z M 8.359375 -5.75 "/></g></g><g style="fill:#9c9e9f;fill-opacity:1;"><g transform="translate(50.458114, 144.343909)"><path style="stroke:none" d="M 1.734375 0 C 1.554688 0 1.46875 -0.0820312 1.46875 -0.25 L 1.46875 -9.84375 C 1.46875 -10.007812 1.535156 -10.09375 1.671875 -10.09375 L 2.8125 -10.09375 C 2.945312 -10.09375 3.015625 -10.023438 3.015625 -9.890625 L 3.015625 -8.78125 C 3.015625 -8.625 3.078125 -8.601562 3.203125 -8.71875 C 3.890625 -9.28125 4.472656 -9.679688 4.953125 -9.921875 C 5.429688 -10.160156 5.972656 -10.28125 6.578125 -10.28125 C 7.285156 -10.28125 7.867188 -10.117188 8.328125 -9.796875 C 8.796875 -9.484375 9.113281 -9.085938 9.28125 -8.609375 C 9.300781 -8.566406 9.328125 -8.546875 9.359375 -8.546875 C 9.390625 -8.546875 9.453125 -8.578125 9.546875 -8.640625 C 10.203125 -9.203125 10.789062 -9.613281 11.3125 -9.875 C 11.84375 -10.144531 12.398438 -10.28125 12.984375 -10.28125 C 13.898438 -10.28125 14.613281 -10.019531 15.125 -9.5 C 15.644531 -8.976562 15.90625 -8.273438 15.90625 -7.390625 L 15.90625 -0.3125 C 15.90625 -0.101562 15.8125 0 15.625 0 L 14.546875 0 C 14.378906 0 14.296875 -0.0820312 14.296875 -0.25 L 14.296875 -7.046875 C 14.296875 -7.679688 14.144531 -8.171875 13.84375 -8.515625 C 13.539062 -8.859375 13.082031 -9.03125 12.46875 -9.03125 C 11.96875 -9.03125 11.492188 -8.90625 11.046875 -8.65625 C 10.597656 -8.40625 10.164062 -8.097656 9.75 -7.734375 C 9.644531 -7.628906 9.570312 -7.539062 9.53125 -7.46875 C 9.5 -7.394531 9.484375 -7.300781 9.484375 -7.1875 L 9.484375 -0.3125 C 9.484375 -0.101562 9.390625 0 9.203125 0 L 8.140625 0 C 7.972656 0 7.890625 -0.0820312 7.890625 -0.25 L 7.890625 -7.046875 C 7.890625 -8.367188 7.28125 -9.03125 6.0625 -9.03125 C 5.550781 -9.03125 5.082031 -8.910156 4.65625 -8.671875 C 4.226562 -8.441406 3.695312 -8.046875 3.0625 -7.484375 L 3.0625 -0.28125 C 3.0625 -0.1875 3.039062 -0.113281 3 -0.0625 C 2.957031 -0.0195312 2.882812 0 2.78125 0 Z M 1.734375 0 "/></g></g><g style="fill:#9c9e9f;fill-opacity:1;"><g transform="translate(67.502424, 144.343909)"><path style="stroke:none" d="M 7.328125 -1.21875 C 6.347656 -0.28125 5.21875 0.1875 3.9375 0.1875 C 2.945312 0.1875 2.171875 -0.0625 1.609375 -0.5625 C 1.046875 -1.0625 0.765625 -1.734375 0.765625 -2.578125 C 0.765625 -3.585938 1.191406 -4.382812 2.046875 -4.96875 C 2.898438 -5.550781 4.140625 -5.894531 5.765625 -6 L 7.25 -6.109375 C 7.46875 -6.140625 7.578125 -6.238281 7.578125 -6.40625 L 7.578125 -6.90625 C 7.578125 -7.59375 7.363281 -8.132812 6.9375 -8.53125 C 6.507812 -8.9375 5.9375 -9.140625 5.21875 -9.140625 C 4.101562 -9.140625 3.1875 -8.632812 2.46875 -7.625 C 2.4375 -7.5625 2.398438 -7.519531 2.359375 -7.5 C 2.316406 -7.476562 2.265625 -7.476562 2.203125 -7.5 L 1.1875 -7.84375 C 1.113281 -7.875 1.078125 -7.921875 1.078125 -7.984375 C 1.078125 -8.015625 1.097656 -8.070312 1.140625 -8.15625 C 1.523438 -8.820312 2.066406 -9.34375 2.765625 -9.71875 C 3.472656 -10.09375 4.3125 -10.28125 5.28125 -10.28125 C 6.519531 -10.28125 7.46875 -9.988281 8.125 -9.40625 C 8.789062 -8.832031 9.125 -8.039062 9.125 -7.03125 L 9.125 -0.28125 C 9.125 -0.164062 9.101562 -0.0859375 9.0625 -0.046875 C 9.03125 -0.015625 8.960938 0 8.859375 0 L 7.90625 0 C 7.75 0 7.660156 -0.101562 7.640625 -0.3125 L 7.59375 -1.1875 C 7.582031 -1.269531 7.550781 -1.3125 7.5 -1.3125 C 7.445312 -1.3125 7.390625 -1.28125 7.328125 -1.21875 Z M 7.578125 -4.84375 C 7.578125 -5.039062 7.484375 -5.140625 7.296875 -5.140625 L 6.0625 -5.03125 C 4.875 -4.957031 3.957031 -4.726562 3.3125 -4.34375 C 2.675781 -3.957031 2.359375 -3.429688 2.359375 -2.765625 C 2.359375 -2.210938 2.550781 -1.773438 2.9375 -1.453125 C 3.332031 -1.140625 3.851562 -0.984375 4.5 -0.984375 C 4.882812 -0.984375 5.269531 -1.050781 5.65625 -1.1875 C 6.039062 -1.332031 6.378906 -1.523438 6.671875 -1.765625 C 6.960938 -1.992188 7.1875 -2.238281 7.34375 -2.5 C 7.5 -2.757812 7.578125 -3.007812 7.578125 -3.25 Z M 7.578125 -4.84375 "/></g></g><g style="fill:#9c9e9f;fill-opacity:1;"><g transform="translate(77.728974, 144.343909)"><path style="stroke:none" d=""/></g></g><g style="fill:#9c9e9f;fill-opacity:1;"><g transform="translate(81.613868, 144.343909)"><path style="stroke:none" d="M 3.453125 -14.125 C 3.597656 -14.125 3.671875 -14.046875 3.671875 -13.890625 L 3.671875 -0.328125 C 3.671875 -0.203125 3.644531 -0.113281 3.59375 -0.0625 C 3.550781 -0.0195312 3.460938 0 3.328125 0 L 2.140625 0 C 2.023438 0 1.945312 -0.015625 1.90625 -0.046875 C 1.863281 -0.0859375 1.84375 -0.160156 1.84375 -0.265625 L 1.84375 -13.859375 C 1.84375 -14.035156 1.921875 -14.125 2.078125 -14.125 Z M 3.453125 -14.125 "/></g></g><g style="fill:#9c9e9f;fill-opacity:1;"><g transform="translate(86.927062, 144.343909)"><path style="stroke:none" d="M 1.734375 0 C 1.554688 0 1.46875 -0.0820312 1.46875 -0.25 L 1.46875 -9.84375 C 1.46875 -10.007812 1.535156 -10.09375 1.671875 -10.09375 L 2.8125 -10.09375 C 2.957031 -10.09375 3.03125 -10.023438 3.03125 -9.890625 L 3.03125 -8.78125 C 3.03125 -8.644531 3.085938 -8.625 3.203125 -8.71875 C 3.910156 -9.28125 4.515625 -9.679688 5.015625 -9.921875 C 5.515625 -10.160156 6.078125 -10.28125 6.703125 -10.28125 C 7.671875 -10.28125 8.421875 -10.019531 8.953125 -9.5 C 9.492188 -8.976562 9.765625 -8.28125 9.765625 -7.40625 L 9.765625 -0.3125 C 9.765625 -0.101562 9.671875 0 9.484375 0 L 8.421875 0 C 8.253906 0 8.171875 -0.0820312 8.171875 -0.25 L 8.171875 -7.046875 C 8.171875 -7.679688 8.007812 -8.171875 7.6875 -8.515625 C 7.363281 -8.859375 6.863281 -9.03125 6.1875 -9.03125 C 5.65625 -9.03125 5.160156 -8.910156 4.703125 -8.671875 C 4.253906 -8.441406 3.707031 -8.046875 3.0625 -7.484375 L 3.0625 -0.28125 C 3.0625 -0.1875 3.039062 -0.113281 3 -0.0625 C 2.957031 -0.0195312 2.882812 0 2.78125 0 Z M 1.734375 0 "/></g></g><g style="fill:#9c9e9f;fill-opacity:1;"><g transform="translate(97.839198, 144.343909)"><path style="stroke:none" d="M 4.140625 -8.90625 C 4.035156 -8.90625 3.984375 -8.851562 3.984375 -8.75 L 3.984375 -2.703125 C 3.984375 -2.128906 4.078125 -1.734375 4.265625 -1.515625 C 4.453125 -1.304688 4.765625 -1.203125 5.203125 -1.203125 L 6.515625 -1.203125 C 6.648438 -1.203125 6.71875 -1.128906 6.71875 -0.984375 L 6.703125 -0.34375 C 6.703125 -0.21875 6.625 -0.132812 6.46875 -0.09375 C 6.144531 -0.03125 5.550781 0 4.6875 0 C 3.882812 0 3.296875 -0.1875 2.921875 -0.5625 C 2.554688 -0.9375 2.375 -1.53125 2.375 -2.34375 L 2.375 -8.703125 C 2.375 -8.835938 2.3125 -8.90625 2.1875 -8.90625 L 0.671875 -8.90625 C 0.523438 -8.90625 0.453125 -8.972656 0.453125 -9.109375 L 0.453125 -9.90625 C 0.453125 -10.03125 0.515625 -10.09375 0.640625 -10.09375 L 2.265625 -10.09375 C 2.359375 -10.09375 2.40625 -10.144531 2.40625 -10.25 L 2.609375 -13.28125 C 2.609375 -13.4375 2.675781 -13.515625 2.8125 -13.515625 L 3.765625 -13.515625 C 3.921875 -13.515625 4 -13.425781 4 -13.25 L 4 -10.25 C 4 -10.144531 4.050781 -10.09375 4.15625 -10.09375 L 6.546875 -10.09375 C 6.691406 -10.09375 6.765625 -10.035156 6.765625 -9.921875 L 6.765625 -9.109375 C 6.765625 -8.972656 6.691406 -8.90625 6.546875 -8.90625 Z M 4.140625 -8.90625 "/></g></g><g style="fill:#9c9e9f;fill-opacity:1;"><g transform="translate(104.999653, 144.343909)"><path style="stroke:none" d="M 2.53125 -4.421875 C 2.53125 -3.804688 2.675781 -3.238281 2.96875 -2.71875 C 3.269531 -2.195312 3.675781 -1.785156 4.1875 -1.484375 C 4.695312 -1.179688 5.253906 -1.03125 5.859375 -1.03125 C 7.128906 -1.03125 8.125 -1.554688 8.84375 -2.609375 C 8.882812 -2.660156 8.925781 -2.6875 8.96875 -2.6875 C 9.007812 -2.695312 9.054688 -2.691406 9.109375 -2.671875 L 9.90625 -2.265625 C 10.007812 -2.203125 10.019531 -2.113281 9.9375 -2 C 9.445312 -1.238281 8.859375 -0.679688 8.171875 -0.328125 C 7.484375 0.015625 6.664062 0.1875 5.71875 0.1875 C 4.789062 0.1875 3.957031 -0.0234375 3.21875 -0.453125 C 2.476562 -0.890625 1.898438 -1.5 1.484375 -2.28125 C 1.078125 -3.0625 0.875 -3.953125 0.875 -4.953125 C 0.875 -6.035156 1.082031 -6.976562 1.5 -7.78125 C 1.925781 -8.582031 2.503906 -9.195312 3.234375 -9.625 C 3.960938 -10.0625 4.78125 -10.28125 5.6875 -10.28125 C 6.601562 -10.28125 7.40625 -10.078125 8.09375 -9.671875 C 8.789062 -9.265625 9.328125 -8.671875 9.703125 -7.890625 C 10.085938 -7.109375 10.28125 -6.1875 10.28125 -5.125 L 10.28125 -5.046875 C 10.28125 -4.929688 10.257812 -4.84375 10.21875 -4.78125 C 10.1875 -4.726562 10.113281 -4.703125 10 -4.703125 L 2.703125 -4.703125 C 2.585938 -4.703125 2.53125 -4.609375 2.53125 -4.421875 Z M 8.359375 -5.75 C 8.503906 -5.75 8.59375 -5.765625 8.625 -5.796875 C 8.664062 -5.828125 8.6875 -5.898438 8.6875 -6.015625 C 8.6875 -6.578125 8.566406 -7.09375 8.328125 -7.5625 C 8.097656 -8.039062 7.753906 -8.421875 7.296875 -8.703125 C 6.847656 -8.992188 6.328125 -9.140625 5.734375 -9.140625 C 5.085938 -9.140625 4.519531 -8.976562 4.03125 -8.65625 C 3.550781 -8.332031 3.179688 -7.910156 2.921875 -7.390625 C 2.671875 -6.878906 2.554688 -6.332031 2.578125 -5.75 Z M 8.359375 -5.75 "/></g></g><g style="fill:#9c9e9f;fill-opacity:1;"><g transform="translate(115.854661, 144.343909)"><path style="stroke:none" d="M 10.59375 -10.265625 C 10.832031 -10.265625 10.953125 -10.164062 10.953125 -9.96875 L 10.953125 -9.296875 C 10.953125 -9.171875 10.921875 -9.078125 10.859375 -9.015625 C 10.804688 -8.960938 10.710938 -8.941406 10.578125 -8.953125 C 10.148438 -8.953125 9.816406 -8.894531 9.578125 -8.78125 C 9.273438 -8.65625 9.148438 -8.507812 9.203125 -8.34375 C 9.210938 -8.289062 9.25 -8.191406 9.3125 -8.046875 C 9.375 -7.910156 9.421875 -7.753906 9.453125 -7.578125 C 9.492188 -7.410156 9.515625 -7.234375 9.515625 -7.046875 C 9.515625 -6.140625 9.160156 -5.398438 8.453125 -4.828125 C 7.753906 -4.265625 6.734375 -3.984375 5.390625 -3.984375 C 4.484375 -3.984375 3.832031 -3.90625 3.4375 -3.75 C 3.050781 -3.601562 2.859375 -3.40625 2.859375 -3.15625 C 2.859375 -2.96875 2.988281 -2.828125 3.25 -2.734375 C 3.519531 -2.640625 3.96875 -2.570312 4.59375 -2.53125 L 7.046875 -2.40625 C 8.140625 -2.332031 8.953125 -2.066406 9.484375 -1.609375 C 10.015625 -1.160156 10.28125 -0.539062 10.28125 0.25 C 10.28125 1.207031 9.859375 1.957031 9.015625 2.5 C 8.171875 3.050781 6.96875 3.328125 5.40625 3.328125 C 3.789062 3.328125 2.5625 3.09375 1.71875 2.625 C 0.875 2.164062 0.453125 1.503906 0.453125 0.640625 C 0.453125 -0.203125 1.050781 -0.914062 2.25 -1.5 C 2.382812 -1.5625 2.382812 -1.632812 2.25 -1.71875 C 1.664062 -1.96875 1.375 -2.34375 1.375 -2.84375 C 1.375 -3.113281 1.503906 -3.375 1.765625 -3.625 C 2.023438 -3.882812 2.394531 -4.097656 2.875 -4.265625 C 2.9375 -4.273438 2.96875 -4.304688 2.96875 -4.359375 C 2.96875 -4.421875 2.9375 -4.46875 2.875 -4.5 C 2.3125 -4.789062 1.894531 -5.140625 1.625 -5.546875 C 1.363281 -5.960938 1.234375 -6.460938 1.234375 -7.046875 C 1.234375 -8.035156 1.609375 -8.816406 2.359375 -9.390625 C 3.109375 -9.960938 4.171875 -10.25 5.546875 -10.25 C 6.753906 -10.25 7.707031 -9.960938 8.40625 -9.390625 C 8.488281 -9.328125 8.550781 -9.296875 8.59375 -9.296875 C 8.644531 -9.296875 8.710938 -9.328125 8.796875 -9.390625 C 9.035156 -9.628906 9.316406 -9.832031 9.640625 -10 C 9.972656 -10.175781 10.289062 -10.265625 10.59375 -10.265625 Z M 5.390625 -4.984375 C 6.265625 -4.984375 6.921875 -5.160156 7.359375 -5.515625 C 7.796875 -5.878906 8.015625 -6.394531 8.015625 -7.0625 C 8.015625 -7.75 7.789062 -8.28125 7.34375 -8.65625 C 6.90625 -9.039062 6.253906 -9.234375 5.390625 -9.234375 C 4.554688 -9.234375 3.898438 -9.039062 3.421875 -8.65625 C 2.953125 -8.269531 2.71875 -7.738281 2.71875 -7.0625 C 2.71875 -6.40625 2.945312 -5.894531 3.40625 -5.53125 C 3.875 -5.164062 4.535156 -4.984375 5.390625 -4.984375 Z M 3.71875 -1.234375 C 3.488281 -1.242188 3.226562 -1.175781 2.9375 -1.03125 C 2.644531 -0.882812 2.394531 -0.675781 2.1875 -0.40625 C 1.988281 -0.144531 1.890625 0.140625 1.890625 0.453125 C 1.890625 1.066406 2.195312 1.535156 2.8125 1.859375 C 3.4375 2.179688 4.359375 2.34375 5.578125 2.34375 C 7.722656 2.34375 8.796875 1.707031 8.796875 0.4375 C 8.796875 -0.0078125 8.644531 -0.359375 8.34375 -0.609375 C 8.050781 -0.859375 7.566406 -1.003906 6.890625 -1.046875 Z M 3.71875 -1.234375 "/></g></g><g style="fill:#9c9e9f;fill-opacity:1;"><g transform="translate(127.10959, 144.343909)"><path style="stroke:none" d="M 1.734375 0 C 1.554688 0 1.46875 -0.0820312 1.46875 -0.25 L 1.46875 -9.84375 C 1.46875 -10.007812 1.535156 -10.09375 1.671875 -10.09375 L 2.78125 -10.09375 C 2.914062 -10.09375 2.984375 -10.023438 2.984375 -9.890625 L 2.984375 -8.640625 C 2.984375 -8.566406 3.003906 -8.523438 3.046875 -8.515625 C 3.097656 -8.503906 3.148438 -8.53125 3.203125 -8.59375 C 4.160156 -9.71875 5.144531 -10.28125 6.15625 -10.28125 C 6.59375 -10.28125 6.8125 -10.195312 6.8125 -10.03125 L 6.8125 -8.890625 C 6.8125 -8.765625 6.753906 -8.71875 6.640625 -8.75 C 6.410156 -8.78125 6.128906 -8.796875 5.796875 -8.796875 C 5.421875 -8.796875 5.015625 -8.6875 4.578125 -8.46875 C 4.148438 -8.257812 3.789062 -7.984375 3.5 -7.640625 C 3.207031 -7.296875 3.0625 -6.945312 3.0625 -6.59375 L 3.0625 -0.28125 C 3.0625 -0.09375 2.96875 0 2.78125 0 Z M 1.734375 0 "/></g></g><g style="fill:#9c9e9f;fill-opacity:1;"><g transform="translate(134.193876, 144.343909)"><path style="stroke:none" d="M 7.328125 -1.21875 C 6.347656 -0.28125 5.21875 0.1875 3.9375 0.1875 C 2.945312 0.1875 2.171875 -0.0625 1.609375 -0.5625 C 1.046875 -1.0625 0.765625 -1.734375 0.765625 -2.578125 C 0.765625 -3.585938 1.191406 -4.382812 2.046875 -4.96875 C 2.898438 -5.550781 4.140625 -5.894531 5.765625 -6 L 7.25 -6.109375 C 7.46875 -6.140625 7.578125 -6.238281 7.578125 -6.40625 L 7.578125 -6.90625 C 7.578125 -7.59375 7.363281 -8.132812 6.9375 -8.53125 C 6.507812 -8.9375 5.9375 -9.140625 5.21875 -9.140625 C 4.101562 -9.140625 3.1875 -8.632812 2.46875 -7.625 C 2.4375 -7.5625 2.398438 -7.519531 2.359375 -7.5 C 2.316406 -7.476562 2.265625 -7.476562 2.203125 -7.5 L 1.1875 -7.84375 C 1.113281 -7.875 1.078125 -7.921875 1.078125 -7.984375 C 1.078125 -8.015625 1.097656 -8.070312 1.140625 -8.15625 C 1.523438 -8.820312 2.066406 -9.34375 2.765625 -9.71875 C 3.472656 -10.09375 4.3125 -10.28125 5.28125 -10.28125 C 6.519531 -10.28125 7.46875 -9.988281 8.125 -9.40625 C 8.789062 -8.832031 9.125 -8.039062 9.125 -7.03125 L 9.125 -0.28125 C 9.125 -0.164062 9.101562 -0.0859375 9.0625 -0.046875 C 9.03125 -0.015625 8.960938 0 8.859375 0 L 7.90625 0 C 7.75 0 7.660156 -0.101562 7.640625 -0.3125 L 7.59375 -1.1875 C 7.582031 -1.269531 7.550781 -1.3125 7.5 -1.3125 C 7.445312 -1.3125 7.390625 -1.28125 7.328125 -1.21875 Z M 7.578125 -4.84375 C 7.578125 -5.039062 7.484375 -5.140625 7.296875 -5.140625 L 6.0625 -5.03125 C 4.875 -4.957031 3.957031 -4.726562 3.3125 -4.34375 C 2.675781 -3.957031 2.359375 -3.429688 2.359375 -2.765625 C 2.359375 -2.210938 2.550781 -1.773438 2.9375 -1.453125 C 3.332031 -1.140625 3.851562 -0.984375 4.5 -0.984375 C 4.882812 -0.984375 5.269531 -1.050781 5.65625 -1.1875 C 6.039062 -1.332031 6.378906 -1.523438 6.671875 -1.765625 C 6.960938 -1.992188 7.1875 -2.238281 7.34375 -2.5 C 7.5 -2.757812 7.578125 -3.007812 7.578125 -3.25 Z M 7.578125 -4.84375 "/></g></g><g style="fill:#9c9e9f;fill-opacity:1;"><g transform="translate(144.420426, 144.343909)"><path style="stroke:none" d="M 8.640625 0 C 8.460938 0 8.375 -0.0859375 8.375 -0.265625 L 8.375 -1.078125 C 8.375 -1.191406 8.34375 -1.25 8.28125 -1.25 C 8.25 -1.25 8.203125 -1.21875 8.140625 -1.15625 C 7.753906 -0.78125 7.332031 -0.460938 6.875 -0.203125 C 6.425781 0.0546875 5.847656 0.1875 5.140625 0.1875 C 4.328125 0.1875 3.601562 0 2.96875 -0.375 C 2.332031 -0.757812 1.832031 -1.332031 1.46875 -2.09375 C 1.101562 -2.863281 0.921875 -3.796875 0.921875 -4.890625 C 0.921875 -5.960938 1.109375 -6.90625 1.484375 -7.71875 C 1.867188 -8.53125 2.394531 -9.160156 3.0625 -9.609375 C 3.738281 -10.054688 4.507812 -10.28125 5.375 -10.28125 C 5.945312 -10.28125 6.441406 -10.191406 6.859375 -10.015625 C 7.273438 -9.835938 7.664062 -9.59375 8.03125 -9.28125 C 8.132812 -9.195312 8.207031 -9.15625 8.25 -9.15625 C 8.3125 -9.15625 8.34375 -9.238281 8.34375 -9.40625 L 8.34375 -13.890625 C 8.34375 -14.046875 8.410156 -14.125 8.546875 -14.125 L 9.71875 -14.125 C 9.851562 -14.125 9.921875 -14.046875 9.921875 -13.890625 L 9.921875 -0.3125 C 9.921875 -0.195312 9.898438 -0.113281 9.859375 -0.0625 C 9.828125 -0.0195312 9.75 0 9.625 0 Z M 8.328125 -7.859375 C 7.921875 -8.265625 7.507812 -8.570312 7.09375 -8.78125 C 6.675781 -9 6.226562 -9.109375 5.75 -9.109375 C 4.78125 -9.109375 4.003906 -8.742188 3.421875 -8.015625 C 2.835938 -7.296875 2.546875 -6.273438 2.546875 -4.953125 C 2.546875 -3.617188 2.832031 -2.617188 3.40625 -1.953125 C 3.988281 -1.296875 4.734375 -0.96875 5.640625 -0.96875 C 6.128906 -0.96875 6.582031 -1.082031 7 -1.3125 C 7.414062 -1.550781 7.738281 -1.847656 7.96875 -2.203125 C 8.207031 -2.566406 8.328125 -2.925781 8.328125 -3.28125 Z M 8.328125 -7.859375 "/></g></g><g style="fill:#9c9e9f;fill-opacity:1;"><g transform="translate(155.618227, 144.343909)"><path style="stroke:none" d="M 5.6875 0.1875 C 4.738281 0.1875 3.898438 -0.03125 3.171875 -0.46875 C 2.441406 -0.90625 1.875 -1.515625 1.46875 -2.296875 C 1.070312 -3.085938 0.875 -3.984375 0.875 -4.984375 C 0.875 -6.015625 1.078125 -6.929688 1.484375 -7.734375 C 1.898438 -8.535156 2.472656 -9.160156 3.203125 -9.609375 C 3.929688 -10.054688 4.769531 -10.28125 5.71875 -10.28125 C 6.65625 -10.28125 7.488281 -10.054688 8.21875 -9.609375 C 8.945312 -9.160156 9.507812 -8.535156 9.90625 -7.734375 C 10.3125 -6.929688 10.515625 -6.023438 10.515625 -5.015625 C 10.515625 -4.003906 10.3125 -3.101562 9.90625 -2.3125 C 9.5 -1.53125 8.929688 -0.914062 8.203125 -0.46875 C 7.472656 -0.03125 6.632812 0.1875 5.6875 0.1875 Z M 5.734375 -1.015625 C 6.722656 -1.015625 7.492188 -1.367188 8.046875 -2.078125 C 8.597656 -2.796875 8.875 -3.785156 8.875 -5.046875 C 8.875 -6.285156 8.59375 -7.269531 8.03125 -8 C 7.46875 -8.738281 6.695312 -9.109375 5.71875 -9.109375 C 4.726562 -9.109375 3.945312 -8.738281 3.375 -8 C 2.800781 -7.269531 2.515625 -6.285156 2.515625 -5.046875 C 2.515625 -3.804688 2.800781 -2.820312 3.375 -2.09375 C 3.945312 -1.375 4.734375 -1.015625 5.734375 -1.015625 Z M 5.734375 -1.015625 "/></g></g><g style="fill:#9c9e9f;fill-opacity:1;"><g transform="translate(166.816028, 144.343909)"><path style="stroke:none" d=""/></g></g><g style="fill:#9c9e9f;fill-opacity:1;"><g transform="translate(170.700922, 144.343909)"><path style="stroke:none" d="M 8.640625 0 C 8.460938 0 8.375 -0.0859375 8.375 -0.265625 L 8.375 -1.078125 C 8.375 -1.191406 8.34375 -1.25 8.28125 -1.25 C 8.25 -1.25 8.203125 -1.21875 8.140625 -1.15625 C 7.753906 -0.78125 7.332031 -0.460938 6.875 -0.203125 C 6.425781 0.0546875 5.847656 0.1875 5.140625 0.1875 C 4.328125 0.1875 3.601562 0 2.96875 -0.375 C 2.332031 -0.757812 1.832031 -1.332031 1.46875 -2.09375 C 1.101562 -2.863281 0.921875 -3.796875 0.921875 -4.890625 C 0.921875 -5.960938 1.109375 -6.90625 1.484375 -7.71875 C 1.867188 -8.53125 2.394531 -9.160156 3.0625 -9.609375 C 3.738281 -10.054688 4.507812 -10.28125 5.375 -10.28125 C 5.945312 -10.28125 6.441406 -10.191406 6.859375 -10.015625 C 7.273438 -9.835938 7.664062 -9.59375 8.03125 -9.28125 C 8.132812 -9.195312 8.207031 -9.15625 8.25 -9.15625 C 8.3125 -9.15625 8.34375 -9.238281 8.34375 -9.40625 L 8.34375 -13.890625 C 8.34375 -14.046875 8.410156 -14.125 8.546875 -14.125 L 9.71875 -14.125 C 9.851562 -14.125 9.921875 -14.046875 9.921875 -13.890625 L 9.921875 -0.3125 C 9.921875 -0.195312 9.898438 -0.113281 9.859375 -0.0625 C 9.828125 -0.0195312 9.75 0 9.625 0 Z M 8.328125 -7.859375 C 7.921875 -8.265625 7.507812 -8.570312 7.09375 -8.78125 C 6.675781 -9 6.226562 -9.109375 5.75 -9.109375 C 4.78125 -9.109375 4.003906 -8.742188 3.421875 -8.015625 C 2.835938 -7.296875 2.546875 -6.273438 2.546875 -4.953125 C 2.546875 -3.617188 2.832031 -2.617188 3.40625 -1.953125 C 3.988281 -1.296875 4.734375 -0.96875 5.640625 -0.96875 C 6.128906 -0.96875 6.582031 -1.082031 7 -1.3125 C 7.414062 -1.550781 7.738281 -1.847656 7.96875 -2.203125 C 8.207031 -2.566406 8.328125 -2.925781 8.328125 -3.28125 Z M 8.328125 -7.859375 "/></g></g><g style="fill:#9c9e9f;fill-opacity:1;"><g transform="translate(181.898723, 144.343909)"><path style="stroke:none" d="M 2.53125 -4.421875 C 2.53125 -3.804688 2.675781 -3.238281 2.96875 -2.71875 C 3.269531 -2.195312 3.675781 -1.785156 4.1875 -1.484375 C 4.695312 -1.179688 5.253906 -1.03125 5.859375 -1.03125 C 7.128906 -1.03125 8.125 -1.554688 8.84375 -2.609375 C 8.882812 -2.660156 8.925781 -2.6875 8.96875 -2.6875 C 9.007812 -2.695312 9.054688 -2.691406 9.109375 -2.671875 L 9.90625 -2.265625 C 10.007812 -2.203125 10.019531 -2.113281 9.9375 -2 C 9.445312 -1.238281 8.859375 -0.679688 8.171875 -0.328125 C 7.484375 0.015625 6.664062 0.1875 5.71875 0.1875 C 4.789062 0.1875 3.957031 -0.0234375 3.21875 -0.453125 C 2.476562 -0.890625 1.898438 -1.5 1.484375 -2.28125 C 1.078125 -3.0625 0.875 -3.953125 0.875 -4.953125 C 0.875 -6.035156 1.082031 -6.976562 1.5 -7.78125 C 1.925781 -8.582031 2.503906 -9.195312 3.234375 -9.625 C 3.960938 -10.0625 4.78125 -10.28125 5.6875 -10.28125 C 6.601562 -10.28125 7.40625 -10.078125 8.09375 -9.671875 C 8.789062 -9.265625 9.328125 -8.671875 9.703125 -7.890625 C 10.085938 -7.109375 10.28125 -6.1875 10.28125 -5.125 L 10.28125 -5.046875 C 10.28125 -4.929688 10.257812 -4.84375 10.21875 -4.78125 C 10.1875 -4.726562 10.113281 -4.703125 10 -4.703125 L 2.703125 -4.703125 C 2.585938 -4.703125 2.53125 -4.609375 2.53125 -4.421875 Z M 8.359375 -5.75 C 8.503906 -5.75 8.59375 -5.765625 8.625 -5.796875 C 8.664062 -5.828125 8.6875 -5.898438 8.6875 -6.015625 C 8.6875 -6.578125 8.566406 -7.09375 8.328125 -7.5625 C 8.097656 -8.039062 7.753906 -8.421875 7.296875 -8.703125 C 6.847656 -8.992188 6.328125 -9.140625 5.734375 -9.140625 C 5.085938 -9.140625 4.519531 -8.976562 4.03125 -8.65625 C 3.550781 -8.332031 3.179688 -7.910156 2.921875 -7.390625 C 2.671875 -6.878906 2.554688 -6.332031 2.578125 -5.75 Z M 8.359375 -5.75 "/></g></g><g style="fill:#9c9e9f;fill-opacity:1;"><g transform="translate(192.753731, 144.343909)"><path style="stroke:none" d=""/></g></g><g style="fill:#9c9e9f;fill-opacity:1;"><g transform="translate(196.638625, 144.343909)"><path style="stroke:none" d="M 7.140625 0.1875 C 5.929688 0.1875 4.882812 -0.0976562 4 -0.671875 C 3.113281 -1.253906 2.429688 -2.082031 1.953125 -3.15625 C 1.472656 -4.238281 1.234375 -5.523438 1.234375 -7.015625 C 1.234375 -8.523438 1.476562 -9.832031 1.96875 -10.9375 C 2.457031 -12.039062 3.148438 -12.878906 4.046875 -13.453125 C 4.953125 -14.035156 6.007812 -14.328125 7.21875 -14.328125 C 8.082031 -14.328125 8.890625 -14.144531 9.640625 -13.78125 C 10.398438 -13.425781 11.023438 -12.957031 11.515625 -12.375 C 12.003906 -11.789062 12.300781 -11.171875 12.40625 -10.515625 L 12.40625 -10.40625 C 12.40625 -10.351562 12.394531 -10.3125 12.375 -10.28125 C 12.351562 -10.257812 12.3125 -10.234375 12.25 -10.203125 L 10.875 -10 L 10.84375 -10 C 10.757812 -10 10.703125 -10.0625 10.671875 -10.1875 C 10.523438 -10.96875 10.132812 -11.617188 9.5 -12.140625 C 8.863281 -12.671875 8.097656 -12.9375 7.203125 -12.9375 C 5.890625 -12.9375 4.882812 -12.441406 4.1875 -11.453125 C 3.488281 -10.460938 3.140625 -9.019531 3.140625 -7.125 C 3.140625 -5.144531 3.488281 -3.660156 4.1875 -2.671875 C 4.882812 -1.691406 5.898438 -1.203125 7.234375 -1.203125 C 8.015625 -1.203125 8.679688 -1.375 9.234375 -1.71875 C 9.796875 -2.0625 10.21875 -2.5 10.5 -3.03125 C 10.789062 -3.5625 10.953125 -4.097656 10.984375 -4.640625 L 10.984375 -5.828125 C 10.984375 -5.941406 10.921875 -6 10.796875 -6 L 7.6875 -6 C 7.550781 -6 7.484375 -6.0625 7.484375 -6.1875 L 7.484375 -7.015625 C 7.484375 -7.128906 7.546875 -7.1875 7.671875 -7.1875 L 12.40625 -7.15625 C 12.59375 -7.15625 12.6875 -7.082031 12.6875 -6.9375 L 12.6875 -0.25 C 12.6875 -0.0820312 12.609375 0 12.453125 0 L 12.015625 0 C 11.910156 0 11.832031 -0.0078125 11.78125 -0.03125 C 11.738281 -0.0625 11.703125 -0.128906 11.671875 -0.234375 L 11.46875 -2 C 11.457031 -2.050781 11.4375 -2.078125 11.40625 -2.078125 C 11.375 -2.078125 11.335938 -2.046875 11.296875 -1.984375 C 10.890625 -1.335938 10.34375 -0.8125 9.65625 -0.40625 C 8.976562 -0.0078125 8.140625 0.1875 7.140625 0.1875 Z M 7.140625 0.1875 "/></g></g><g style="fill:#9c9e9f;fill-opacity:1;"><g transform="translate(210.502586, 144.343909)"><path style="stroke:none" d="M 2.53125 -4.421875 C 2.53125 -3.804688 2.675781 -3.238281 2.96875 -2.71875 C 3.269531 -2.195312 3.675781 -1.785156 4.1875 -1.484375 C 4.695312 -1.179688 5.253906 -1.03125 5.859375 -1.03125 C 7.128906 -1.03125 8.125 -1.554688 8.84375 -2.609375 C 8.882812 -2.660156 8.925781 -2.6875 8.96875 -2.6875 C 9.007812 -2.695312 9.054688 -2.691406 9.109375 -2.671875 L 9.90625 -2.265625 C 10.007812 -2.203125 10.019531 -2.113281 9.9375 -2 C 9.445312 -1.238281 8.859375 -0.679688 8.171875 -0.328125 C 7.484375 0.015625 6.664062 0.1875 5.71875 0.1875 C 4.789062 0.1875 3.957031 -0.0234375 3.21875 -0.453125 C 2.476562 -0.890625 1.898438 -1.5 1.484375 -2.28125 C 1.078125 -3.0625 0.875 -3.953125 0.875 -4.953125 C 0.875 -6.035156 1.082031 -6.976562 1.5 -7.78125 C 1.925781 -8.582031 2.503906 -9.195312 3.234375 -9.625 C 3.960938 -10.0625 4.78125 -10.28125 5.6875 -10.28125 C 6.601562 -10.28125 7.40625 -10.078125 8.09375 -9.671875 C 8.789062 -9.265625 9.328125 -8.671875 9.703125 -7.890625 C 10.085938 -7.109375 10.28125 -6.1875 10.28125 -5.125 L 10.28125 -5.046875 C 10.28125 -4.929688 10.257812 -4.84375 10.21875 -4.78125 C 10.1875 -4.726562 10.113281 -4.703125 10 -4.703125 L 2.703125 -4.703125 C 2.585938 -4.703125 2.53125 -4.609375 2.53125 -4.421875 Z M 8.359375 -5.75 C 8.503906 -5.75 8.59375 -5.765625 8.625 -5.796875 C 8.664062 -5.828125 8.6875 -5.898438 8.6875 -6.015625 C 8.6875 -6.578125 8.566406 -7.09375 8.328125 -7.5625 C 8.097656 -8.039062 7.753906 -8.421875 7.296875 -8.703125 C 6.847656 -8.992188 6.328125 -9.140625 5.734375 -9.140625 C 5.085938 -9.140625 4.519531 -8.976562 4.03125 -8.65625 C 3.550781 -8.332031 3.179688 -7.910156 2.921875 -7.390625 C 2.671875 -6.878906 2.554688 -6.332031 2.578125 -5.75 Z M 8.359375 -5.75 "/></g></g><g style="fill:#9c9e9f;fill-opacity:1;"><g transform="translate(221.357594, 144.343909)"><path style="stroke:none" d="M 7.53125 -7.859375 C 7.257812 -8.253906 6.890625 -8.566406 6.421875 -8.796875 C 5.960938 -9.035156 5.425781 -9.15625 4.8125 -9.15625 C 4.113281 -9.15625 3.539062 -9.003906 3.09375 -8.703125 C 2.65625 -8.410156 2.4375 -8.023438 2.4375 -7.546875 C 2.4375 -7.253906 2.546875 -6.988281 2.765625 -6.75 C 2.992188 -6.519531 3.398438 -6.316406 3.984375 -6.140625 L 6.40625 -5.40625 C 7.238281 -5.175781 7.859375 -4.835938 8.265625 -4.390625 C 8.671875 -3.941406 8.875 -3.40625 8.875 -2.78125 C 8.875 -2.195312 8.695312 -1.675781 8.34375 -1.21875 C 7.988281 -0.769531 7.5 -0.421875 6.875 -0.171875 C 6.25 0.0664062 5.546875 0.1875 4.765625 0.1875 C 3.785156 0.1875 2.914062 -0.00390625 2.15625 -0.390625 C 1.394531 -0.773438 0.851562 -1.28125 0.53125 -1.90625 C 0.488281 -1.96875 0.46875 -2.019531 0.46875 -2.0625 C 0.46875 -2.125 0.503906 -2.171875 0.578125 -2.203125 L 1.3125 -2.625 C 1.4375 -2.707031 1.53125 -2.703125 1.59375 -2.609375 C 2.28125 -1.515625 3.34375 -0.96875 4.78125 -0.96875 C 5.53125 -0.976562 6.148438 -1.132812 6.640625 -1.4375 C 7.128906 -1.738281 7.375 -2.128906 7.375 -2.609375 C 7.375 -2.960938 7.226562 -3.257812 6.9375 -3.5 C 6.644531 -3.738281 6.164062 -3.957031 5.5 -4.15625 L 3.546875 -4.703125 C 2.617188 -4.941406 1.953125 -5.273438 1.546875 -5.703125 C 1.148438 -6.140625 0.953125 -6.671875 0.953125 -7.296875 C 0.953125 -7.878906 1.113281 -8.398438 1.4375 -8.859375 C 1.757812 -9.316406 2.210938 -9.664062 2.796875 -9.90625 C 3.390625 -10.15625 4.070312 -10.28125 4.84375 -10.28125 C 5.675781 -10.28125 6.425781 -10.117188 7.09375 -9.796875 C 7.757812 -9.484375 8.269531 -9.054688 8.625 -8.515625 C 8.71875 -8.390625 8.710938 -8.300781 8.609375 -8.25 L 7.8125 -7.8125 C 7.757812 -7.78125 7.71875 -7.765625 7.6875 -7.765625 C 7.644531 -7.765625 7.59375 -7.796875 7.53125 -7.859375 Z M 7.53125 -7.859375 "/></g></g><g style="fill:#9c9e9f;fill-opacity:1;"><g transform="translate(230.898558, 144.343909)"><path style="stroke:none" d="M 4.140625 -8.90625 C 4.035156 -8.90625 3.984375 -8.851562 3.984375 -8.75 L 3.984375 -2.703125 C 3.984375 -2.128906 4.078125 -1.734375 4.265625 -1.515625 C 4.453125 -1.304688 4.765625 -1.203125 5.203125 -1.203125 L 6.515625 -1.203125 C 6.648438 -1.203125 6.71875 -1.128906 6.71875 -0.984375 L 6.703125 -0.34375 C 6.703125 -0.21875 6.625 -0.132812 6.46875 -0.09375 C 6.144531 -0.03125 5.550781 0 4.6875 0 C 3.882812 0 3.296875 -0.1875 2.921875 -0.5625 C 2.554688 -0.9375 2.375 -1.53125 2.375 -2.34375 L 2.375 -8.703125 C 2.375 -8.835938 2.3125 -8.90625 2.1875 -8.90625 L 0.671875 -8.90625 C 0.523438 -8.90625 0.453125 -8.972656 0.453125 -9.109375 L 0.453125 -9.90625 C 0.453125 -10.03125 0.515625 -10.09375 0.640625 -10.09375 L 2.265625 -10.09375 C 2.359375 -10.09375 2.40625 -10.144531 2.40625 -10.25 L 2.609375 -13.28125 C 2.609375 -13.4375 2.675781 -13.515625 2.8125 -13.515625 L 3.765625 -13.515625 C 3.921875 -13.515625 4 -13.425781 4 -13.25 L 4 -10.25 C 4 -10.144531 4.050781 -10.09375 4.15625 -10.09375 L 6.546875 -10.09375 C 6.691406 -10.09375 6.765625 -10.035156 6.765625 -9.921875 L 6.765625 -9.109375 C 6.765625 -8.972656 6.691406 -8.90625 6.546875 -8.90625 Z M 4.140625 -8.90625 "/></g></g><g style="fill:#9c9e9f;fill-opacity:1;"><g transform="translate(238.059014, 144.343909)"><path style="stroke:none" d="M 7.328125 -1.21875 C 6.347656 -0.28125 5.21875 0.1875 3.9375 0.1875 C 2.945312 0.1875 2.171875 -0.0625 1.609375 -0.5625 C 1.046875 -1.0625 0.765625 -1.734375 0.765625 -2.578125 C 0.765625 -3.585938 1.191406 -4.382812 2.046875 -4.96875 C 2.898438 -5.550781 4.140625 -5.894531 5.765625 -6 L 7.25 -6.109375 C 7.46875 -6.140625 7.578125 -6.238281 7.578125 -6.40625 L 7.578125 -6.90625 C 7.578125 -7.59375 7.363281 -8.132812 6.9375 -8.53125 C 6.507812 -8.9375 5.9375 -9.140625 5.21875 -9.140625 C 4.101562 -9.140625 3.1875 -8.632812 2.46875 -7.625 C 2.4375 -7.5625 2.398438 -7.519531 2.359375 -7.5 C 2.316406 -7.476562 2.265625 -7.476562 2.203125 -7.5 L 1.1875 -7.84375 C 1.113281 -7.875 1.078125 -7.921875 1.078125 -7.984375 C 1.078125 -8.015625 1.097656 -8.070312 1.140625 -8.15625 C 1.523438 -8.820312 2.066406 -9.34375 2.765625 -9.71875 C 3.472656 -10.09375 4.3125 -10.28125 5.28125 -10.28125 C 6.519531 -10.28125 7.46875 -9.988281 8.125 -9.40625 C 8.789062 -8.832031 9.125 -8.039062 9.125 -7.03125 L 9.125 -0.28125 C 9.125 -0.164062 9.101562 -0.0859375 9.0625 -0.046875 C 9.03125 -0.015625 8.960938 0 8.859375 0 L 7.90625 0 C 7.75 0 7.660156 -0.101562 7.640625 -0.3125 L 7.59375 -1.1875 C 7.582031 -1.269531 7.550781 -1.3125 7.5 -1.3125 C 7.445312 -1.3125 7.390625 -1.28125 7.328125 -1.21875 Z M 7.578125 -4.84375 C 7.578125 -5.039062 7.484375 -5.140625 7.296875 -5.140625 L 6.0625 -5.03125 C 4.875 -4.957031 3.957031 -4.726562 3.3125 -4.34375 C 2.675781 -3.957031 2.359375 -3.429688 2.359375 -2.765625 C 2.359375 -2.210938 2.550781 -1.773438 2.9375 -1.453125 C 3.332031 -1.140625 3.851562 -0.984375 4.5 -0.984375 C 4.882812 -0.984375 5.269531 -1.050781 5.65625 -1.1875 C 6.039062 -1.332031 6.378906 -1.523438 6.671875 -1.765625 C 6.960938 -1.992188 7.1875 -2.238281 7.34375 -2.5 C 7.5 -2.757812 7.578125 -3.007812 7.578125 -3.25 Z M 7.9375 -12.890625 C 7.726562 -12.765625 7.507812 -12.660156 7.28125 -12.578125 C 7.0625 -12.503906 6.796875 -12.46875 6.484375 -12.46875 C 6.117188 -12.46875 5.679688 -12.5625 5.171875 -12.75 C 4.710938 -12.894531 4.34375 -12.96875 4.0625 -12.96875 C 3.84375 -12.96875 3.664062 -12.9375 3.53125 -12.875 C 3.394531 -12.820312 3.269531 -12.765625 3.15625 -12.703125 C 3.039062 -12.640625 2.960938 -12.597656 2.921875 -12.578125 C 2.859375 -12.535156 2.8125 -12.515625 2.78125 -12.515625 C 2.738281 -12.515625 2.695312 -12.566406 2.65625 -12.671875 L 2.46875 -13.1875 C 2.445312 -13.207031 2.4375 -13.242188 2.4375 -13.296875 C 2.4375 -13.347656 2.472656 -13.398438 2.546875 -13.453125 C 2.796875 -13.640625 3.019531 -13.78125 3.21875 -13.875 C 3.425781 -13.96875 3.679688 -14.015625 3.984375 -14.015625 C 4.203125 -14.015625 4.40625 -13.992188 4.59375 -13.953125 C 4.78125 -13.910156 5.015625 -13.84375 5.296875 -13.75 C 5.503906 -13.6875 5.707031 -13.625 5.90625 -13.5625 C 6.113281 -13.507812 6.3125 -13.484375 6.5 -13.484375 C 6.71875 -13.484375 6.898438 -13.515625 7.046875 -13.578125 C 7.203125 -13.640625 7.382812 -13.734375 7.59375 -13.859375 C 7.65625 -13.898438 7.703125 -13.921875 7.734375 -13.921875 C 7.796875 -13.921875 7.847656 -13.867188 7.890625 -13.765625 L 8.078125 -13.1875 C 8.085938 -13.15625 8.09375 -13.117188 8.09375 -13.078125 C 8.09375 -13.015625 8.039062 -12.953125 7.9375 -12.890625 Z M 7.9375 -12.890625 "/></g></g><g style="fill:#9c9e9f;fill-opacity:1;"><g transform="translate(248.285564, 144.343909)"><path style="stroke:none" d="M 5.6875 0.1875 C 4.738281 0.1875 3.898438 -0.03125 3.171875 -0.46875 C 2.441406 -0.90625 1.875 -1.515625 1.46875 -2.296875 C 1.070312 -3.085938 0.875 -3.984375 0.875 -4.984375 C 0.875 -6.015625 1.078125 -6.929688 1.484375 -7.734375 C 1.898438 -8.535156 2.472656 -9.160156 3.203125 -9.609375 C 3.929688 -10.054688 4.769531 -10.28125 5.71875 -10.28125 C 6.65625 -10.28125 7.488281 -10.054688 8.21875 -9.609375 C 8.945312 -9.160156 9.507812 -8.535156 9.90625 -7.734375 C 10.3125 -6.929688 10.515625 -6.023438 10.515625 -5.015625 C 10.515625 -4.003906 10.3125 -3.101562 9.90625 -2.3125 C 9.5 -1.53125 8.929688 -0.914062 8.203125 -0.46875 C 7.472656 -0.03125 6.632812 0.1875 5.6875 0.1875 Z M 5.734375 -1.015625 C 6.722656 -1.015625 7.492188 -1.367188 8.046875 -2.078125 C 8.597656 -2.796875 8.875 -3.785156 8.875 -5.046875 C 8.875 -6.285156 8.59375 -7.269531 8.03125 -8 C 7.46875 -8.738281 6.695312 -9.109375 5.71875 -9.109375 C 4.726562 -9.109375 3.945312 -8.738281 3.375 -8 C 2.800781 -7.269531 2.515625 -6.285156 2.515625 -5.046875 C 2.515625 -3.804688 2.800781 -2.820312 3.375 -2.09375 C 3.945312 -1.375 4.734375 -1.015625 5.734375 -1.015625 Z M 5.734375 -1.015625 "/></g></g><g style="fill:#9c9e9f;fill-opacity:1;"><g transform="translate(259.483365, 144.343909)"><path style="stroke:none" d=""/></g></g><g style="fill:#9c9e9f;fill-opacity:1;"><g transform="translate(263.368259, 144.343909)"><path style="stroke:none" d="M 8.640625 0 C 8.460938 0 8.375 -0.0859375 8.375 -0.265625 L 8.375 -1.078125 C 8.375 -1.191406 8.34375 -1.25 8.28125 -1.25 C 8.25 -1.25 8.203125 -1.21875 8.140625 -1.15625 C 7.753906 -0.78125 7.332031 -0.460938 6.875 -0.203125 C 6.425781 0.0546875 5.847656 0.1875 5.140625 0.1875 C 4.328125 0.1875 3.601562 0 2.96875 -0.375 C 2.332031 -0.757812 1.832031 -1.332031 1.46875 -2.09375 C 1.101562 -2.863281 0.921875 -3.796875 0.921875 -4.890625 C 0.921875 -5.960938 1.109375 -6.90625 1.484375 -7.71875 C 1.867188 -8.53125 2.394531 -9.160156 3.0625 -9.609375 C 3.738281 -10.054688 4.507812 -10.28125 5.375 -10.28125 C 5.945312 -10.28125 6.441406 -10.191406 6.859375 -10.015625 C 7.273438 -9.835938 7.664062 -9.59375 8.03125 -9.28125 C 8.132812 -9.195312 8.207031 -9.15625 8.25 -9.15625 C 8.3125 -9.15625 8.34375 -9.238281 8.34375 -9.40625 L 8.34375 -13.890625 C 8.34375 -14.046875 8.410156 -14.125 8.546875 -14.125 L 9.71875 -14.125 C 9.851562 -14.125 9.921875 -14.046875 9.921875 -13.890625 L 9.921875 -0.3125 C 9.921875 -0.195312 9.898438 -0.113281 9.859375 -0.0625 C 9.828125 -0.0195312 9.75 0 9.625 0 Z M 8.328125 -7.859375 C 7.921875 -8.265625 7.507812 -8.570312 7.09375 -8.78125 C 6.675781 -9 6.226562 -9.109375 5.75 -9.109375 C 4.78125 -9.109375 4.003906 -8.742188 3.421875 -8.015625 C 2.835938 -7.296875 2.546875 -6.273438 2.546875 -4.953125 C 2.546875 -3.617188 2.832031 -2.617188 3.40625 -1.953125 C 3.988281 -1.296875 4.734375 -0.96875 5.640625 -0.96875 C 6.128906 -0.96875 6.582031 -1.082031 7 -1.3125 C 7.414062 -1.550781 7.738281 -1.847656 7.96875 -2.203125 C 8.207031 -2.566406 8.328125 -2.925781 8.328125 -3.28125 Z M 8.328125 -7.859375 "/></g></g><g style="fill:#9c9e9f;fill-opacity:1;"><g transform="translate(274.56606, 144.343909)"><path style="stroke:none" d="M 2.53125 -4.421875 C 2.53125 -3.804688 2.675781 -3.238281 2.96875 -2.71875 C 3.269531 -2.195312 3.675781 -1.785156 4.1875 -1.484375 C 4.695312 -1.179688 5.253906 -1.03125 5.859375 -1.03125 C 7.128906 -1.03125 8.125 -1.554688 8.84375 -2.609375 C 8.882812 -2.660156 8.925781 -2.6875 8.96875 -2.6875 C 9.007812 -2.695312 9.054688 -2.691406 9.109375 -2.671875 L 9.90625 -2.265625 C 10.007812 -2.203125 10.019531 -2.113281 9.9375 -2 C 9.445312 -1.238281 8.859375 -0.679688 8.171875 -0.328125 C 7.484375 0.015625 6.664062 0.1875 5.71875 0.1875 C 4.789062 0.1875 3.957031 -0.0234375 3.21875 -0.453125 C 2.476562 -0.890625 1.898438 -1.5 1.484375 -2.28125 C 1.078125 -3.0625 0.875 -3.953125 0.875 -4.953125 C 0.875 -6.035156 1.082031 -6.976562 1.5 -7.78125 C 1.925781 -8.582031 2.503906 -9.195312 3.234375 -9.625 C 3.960938 -10.0625 4.78125 -10.28125 5.6875 -10.28125 C 6.601562 -10.28125 7.40625 -10.078125 8.09375 -9.671875 C 8.789062 -9.265625 9.328125 -8.671875 9.703125 -7.890625 C 10.085938 -7.109375 10.28125 -6.1875 10.28125 -5.125 L 10.28125 -5.046875 C 10.28125 -4.929688 10.257812 -4.84375 10.21875 -4.78125 C 10.1875 -4.726562 10.113281 -4.703125 10 -4.703125 L 2.703125 -4.703125 C 2.585938 -4.703125 2.53125 -4.609375 2.53125 -4.421875 Z M 8.359375 -5.75 C 8.503906 -5.75 8.59375 -5.765625 8.625 -5.796875 C 8.664062 -5.828125 8.6875 -5.898438 8.6875 -6.015625 C 8.6875 -6.578125 8.566406 -7.09375 8.328125 -7.5625 C 8.097656 -8.039062 7.753906 -8.421875 7.296875 -8.703125 C 6.847656 -8.992188 6.328125 -9.140625 5.734375 -9.140625 C 5.085938 -9.140625 4.519531 -8.976562 4.03125 -8.65625 C 3.550781 -8.332031 3.179688 -7.910156 2.921875 -7.390625 C 2.671875 -6.878906 2.554688 -6.332031 2.578125 -5.75 Z M 8.359375 -5.75 "/></g></g><g style="fill:#9c9e9f;fill-opacity:1;"><g transform="translate(285.421068, 144.343909)"><path style="stroke:none" d=""/></g></g><g style="fill:#9c9e9f;fill-opacity:1;"><g transform="translate(289.305962, 144.343909)"><path style="stroke:none" d="M 1.046875 0 C 0.972656 0 0.914062 -0.0234375 0.875 -0.078125 C 0.832031 -0.140625 0.832031 -0.222656 0.875 -0.328125 L 5.8125 -13.859375 C 5.84375 -13.960938 5.882812 -14.03125 5.9375 -14.0625 C 5.988281 -14.101562 6.070312 -14.125 6.1875 -14.125 L 7.671875 -14.125 C 7.910156 -14.125 8.054688 -14.03125 8.109375 -13.84375 L 12.984375 -0.328125 L 13.015625 -0.234375 C 13.015625 -0.078125 12.941406 0 12.796875 0 L 11.453125 0 C 11.296875 0 11.191406 -0.0625 11.140625 -0.1875 L 9.828125 -3.890625 C 9.804688 -3.941406 9.78125 -3.976562 9.75 -4 C 9.726562 -4.019531 9.675781 -4.03125 9.59375 -4.03125 L 4.0625 -4.03125 C 3.945312 -4.03125 3.867188 -3.984375 3.828125 -3.890625 L 2.46875 -0.171875 C 2.4375 -0.0546875 2.34375 0 2.1875 0 Z M 9.109375 -5.484375 C 9.242188 -5.484375 9.289062 -5.566406 9.25 -5.734375 L 6.96875 -12 C 6.925781 -12.113281 6.882812 -12.171875 6.84375 -12.171875 C 6.789062 -12.171875 6.742188 -12.113281 6.703125 -12 L 4.375 -5.6875 L 4.34375 -5.578125 C 4.34375 -5.515625 4.394531 -5.484375 4.5 -5.484375 Z M 9.109375 -5.484375 "/></g></g><g style="fill:#9c9e9f;fill-opacity:1;"><g transform="translate(302.941399, 144.343909)"><path style="stroke:none" d="M 4.140625 -8.90625 C 4.035156 -8.90625 3.984375 -8.851562 3.984375 -8.75 L 3.984375 -2.703125 C 3.984375 -2.128906 4.078125 -1.734375 4.265625 -1.515625 C 4.453125 -1.304688 4.765625 -1.203125 5.203125 -1.203125 L 6.515625 -1.203125 C 6.648438 -1.203125 6.71875 -1.128906 6.71875 -0.984375 L 6.703125 -0.34375 C 6.703125 -0.21875 6.625 -0.132812 6.46875 -0.09375 C 6.144531 -0.03125 5.550781 0 4.6875 0 C 3.882812 0 3.296875 -0.1875 2.921875 -0.5625 C 2.554688 -0.9375 2.375 -1.53125 2.375 -2.34375 L 2.375 -8.703125 C 2.375 -8.835938 2.3125 -8.90625 2.1875 -8.90625 L 0.671875 -8.90625 C 0.523438 -8.90625 0.453125 -8.972656 0.453125 -9.109375 L 0.453125 -9.90625 C 0.453125 -10.03125 0.515625 -10.09375 0.640625 -10.09375 L 2.265625 -10.09375 C 2.359375 -10.09375 2.40625 -10.144531 2.40625 -10.25 L 2.609375 -13.28125 C 2.609375 -13.4375 2.675781 -13.515625 2.8125 -13.515625 L 3.765625 -13.515625 C 3.921875 -13.515625 4 -13.425781 4 -13.25 L 4 -10.25 C 4 -10.144531 4.050781 -10.09375 4.15625 -10.09375 L 6.546875 -10.09375 C 6.691406 -10.09375 6.765625 -10.035156 6.765625 -9.921875 L 6.765625 -9.109375 C 6.765625 -8.972656 6.691406 -8.90625 6.546875 -8.90625 Z M 4.140625 -8.90625 "/></g></g><g style="fill:#9c9e9f;fill-opacity:1;"><g transform="translate(310.101855, 144.343909)"><path style="stroke:none" d="M 7.328125 -1.21875 C 6.347656 -0.28125 5.21875 0.1875 3.9375 0.1875 C 2.945312 0.1875 2.171875 -0.0625 1.609375 -0.5625 C 1.046875 -1.0625 0.765625 -1.734375 0.765625 -2.578125 C 0.765625 -3.585938 1.191406 -4.382812 2.046875 -4.96875 C 2.898438 -5.550781 4.140625 -5.894531 5.765625 -6 L 7.25 -6.109375 C 7.46875 -6.140625 7.578125 -6.238281 7.578125 -6.40625 L 7.578125 -6.90625 C 7.578125 -7.59375 7.363281 -8.132812 6.9375 -8.53125 C 6.507812 -8.9375 5.9375 -9.140625 5.21875 -9.140625 C 4.101562 -9.140625 3.1875 -8.632812 2.46875 -7.625 C 2.4375 -7.5625 2.398438 -7.519531 2.359375 -7.5 C 2.316406 -7.476562 2.265625 -7.476562 2.203125 -7.5 L 1.1875 -7.84375 C 1.113281 -7.875 1.078125 -7.921875 1.078125 -7.984375 C 1.078125 -8.015625 1.097656 -8.070312 1.140625 -8.15625 C 1.523438 -8.820312 2.066406 -9.34375 2.765625 -9.71875 C 3.472656 -10.09375 4.3125 -10.28125 5.28125 -10.28125 C 6.519531 -10.28125 7.46875 -9.988281 8.125 -9.40625 C 8.789062 -8.832031 9.125 -8.039062 9.125 -7.03125 L 9.125 -0.28125 C 9.125 -0.164062 9.101562 -0.0859375 9.0625 -0.046875 C 9.03125 -0.015625 8.960938 0 8.859375 0 L 7.90625 0 C 7.75 0 7.660156 -0.101562 7.640625 -0.3125 L 7.59375 -1.1875 C 7.582031 -1.269531 7.550781 -1.3125 7.5 -1.3125 C 7.445312 -1.3125 7.390625 -1.28125 7.328125 -1.21875 Z M 7.578125 -4.84375 C 7.578125 -5.039062 7.484375 -5.140625 7.296875 -5.140625 L 6.0625 -5.03125 C 4.875 -4.957031 3.957031 -4.726562 3.3125 -4.34375 C 2.675781 -3.957031 2.359375 -3.429688 2.359375 -2.765625 C 2.359375 -2.210938 2.550781 -1.773438 2.9375 -1.453125 C 3.332031 -1.140625 3.851562 -0.984375 4.5 -0.984375 C 4.882812 -0.984375 5.269531 -1.050781 5.65625 -1.1875 C 6.039062 -1.332031 6.378906 -1.523438 6.671875 -1.765625 C 6.960938 -1.992188 7.1875 -2.238281 7.34375 -2.5 C 7.5 -2.757812 7.578125 -3.007812 7.578125 -3.25 Z M 7.578125 -4.84375 "/></g></g><g style="fill:#9c9e9f;fill-opacity:1;"><g transform="translate(320.328405, 144.343909)"><path style="stroke:none" d="M 7.53125 -7.859375 C 7.257812 -8.253906 6.890625 -8.566406 6.421875 -8.796875 C 5.960938 -9.035156 5.425781 -9.15625 4.8125 -9.15625 C 4.113281 -9.15625 3.539062 -9.003906 3.09375 -8.703125 C 2.65625 -8.410156 2.4375 -8.023438 2.4375 -7.546875 C 2.4375 -7.253906 2.546875 -6.988281 2.765625 -6.75 C 2.992188 -6.519531 3.398438 -6.316406 3.984375 -6.140625 L 6.40625 -5.40625 C 7.238281 -5.175781 7.859375 -4.835938 8.265625 -4.390625 C 8.671875 -3.941406 8.875 -3.40625 8.875 -2.78125 C 8.875 -2.195312 8.695312 -1.675781 8.34375 -1.21875 C 7.988281 -0.769531 7.5 -0.421875 6.875 -0.171875 C 6.25 0.0664062 5.546875 0.1875 4.765625 0.1875 C 3.785156 0.1875 2.914062 -0.00390625 2.15625 -0.390625 C 1.394531 -0.773438 0.851562 -1.28125 0.53125 -1.90625 C 0.488281 -1.96875 0.46875 -2.019531 0.46875 -2.0625 C 0.46875 -2.125 0.503906 -2.171875 0.578125 -2.203125 L 1.3125 -2.625 C 1.4375 -2.707031 1.53125 -2.703125 1.59375 -2.609375 C 2.28125 -1.515625 3.34375 -0.96875 4.78125 -0.96875 C 5.53125 -0.976562 6.148438 -1.132812 6.640625 -1.4375 C 7.128906 -1.738281 7.375 -2.128906 7.375 -2.609375 C 7.375 -2.960938 7.226562 -3.257812 6.9375 -3.5 C 6.644531 -3.738281 6.164062 -3.957031 5.5 -4.15625 L 3.546875 -4.703125 C 2.617188 -4.941406 1.953125 -5.273438 1.546875 -5.703125 C 1.148438 -6.140625 0.953125 -6.671875 0.953125 -7.296875 C 0.953125 -7.878906 1.113281 -8.398438 1.4375 -8.859375 C 1.757812 -9.316406 2.210938 -9.664062 2.796875 -9.90625 C 3.390625 -10.15625 4.070312 -10.28125 4.84375 -10.28125 C 5.675781 -10.28125 6.425781 -10.117188 7.09375 -9.796875 C 7.757812 -9.484375 8.269531 -9.054688 8.625 -8.515625 C 8.71875 -8.390625 8.710938 -8.300781 8.609375 -8.25 L 7.8125 -7.8125 C 7.757812 -7.78125 7.71875 -7.765625 7.6875 -7.765625 C 7.644531 -7.765625 7.59375 -7.796875 7.53125 -7.859375 Z M 7.53125 -7.859375 "/></g></g><g style="fill:#9c9e9f;fill-opacity:1;"><g transform="translate(329.869368, 144.343909)"><path style="stroke:none" d=""/></g></g><g style="fill:#9c9e9f;fill-opacity:1;"><g transform="translate(333.754263, 144.343909)"><path style="stroke:none" d="M 3.828125 -6.609375 C 3.773438 -6.609375 3.734375 -6.59375 3.703125 -6.5625 C 3.679688 -6.53125 3.671875 -6.492188 3.671875 -6.453125 L 3.671875 -0.28125 C 3.671875 -0.1875 3.644531 -0.113281 3.59375 -0.0625 C 3.550781 -0.0195312 3.472656 0 3.359375 0 L 2.109375 0 C 2.015625 0 1.945312 -0.015625 1.90625 -0.046875 C 1.863281 -0.0859375 1.84375 -0.160156 1.84375 -0.265625 L 1.84375 -13.859375 C 1.84375 -14.035156 1.921875 -14.125 2.078125 -14.125 L 3.453125 -14.125 C 3.597656 -14.125 3.671875 -14.046875 3.671875 -13.890625 L 3.671875 -8.28125 C 3.671875 -8.195312 3.6875 -8.140625 3.71875 -8.109375 C 3.75 -8.078125 3.804688 -8.0625 3.890625 -8.0625 L 10.140625 -8.0625 C 10.265625 -8.0625 10.328125 -8.132812 10.328125 -8.28125 L 10.328125 -13.90625 C 10.328125 -14.050781 10.394531 -14.125 10.53125 -14.125 L 11.921875 -14.125 C 12.015625 -14.125 12.078125 -14.101562 12.109375 -14.0625 C 12.140625 -14.03125 12.15625 -13.960938 12.15625 -13.859375 L 12.15625 -0.265625 C 12.15625 -0.0859375 12.066406 0 11.890625 0 L 10.640625 0 C 10.523438 0 10.441406 -0.0195312 10.390625 -0.0625 C 10.347656 -0.113281 10.328125 -0.1875 10.328125 -0.28125 L 10.328125 -6.4375 C 10.328125 -6.550781 10.269531 -6.609375 10.15625 -6.609375 Z M 3.828125 -6.609375 "/></g></g><g style="fill:#9c9e9f;fill-opacity:1;"><g transform="translate(347.542039, 144.343909)"><path style="stroke:none" d="M 5.6875 0.1875 C 4.738281 0.1875 3.898438 -0.03125 3.171875 -0.46875 C 2.441406 -0.90625 1.875 -1.515625 1.46875 -2.296875 C 1.070312 -3.085938 0.875 -3.984375 0.875 -4.984375 C 0.875 -6.015625 1.078125 -6.929688 1.484375 -7.734375 C 1.898438 -8.535156 2.472656 -9.160156 3.203125 -9.609375 C 3.929688 -10.054688 4.769531 -10.28125 5.71875 -10.28125 C 6.65625 -10.28125 7.488281 -10.054688 8.21875 -9.609375 C 8.945312 -9.160156 9.507812 -8.535156 9.90625 -7.734375 C 10.3125 -6.929688 10.515625 -6.023438 10.515625 -5.015625 C 10.515625 -4.003906 10.3125 -3.101562 9.90625 -2.3125 C 9.5 -1.53125 8.929688 -0.914062 8.203125 -0.46875 C 7.472656 -0.03125 6.632812 0.1875 5.6875 0.1875 Z M 5.734375 -1.015625 C 6.722656 -1.015625 7.492188 -1.367188 8.046875 -2.078125 C 8.597656 -2.796875 8.875 -3.785156 8.875 -5.046875 C 8.875 -6.285156 8.59375 -7.269531 8.03125 -8 C 7.46875 -8.738281 6.695312 -9.109375 5.71875 -9.109375 C 4.726562 -9.109375 3.945312 -8.738281 3.375 -8 C 2.800781 -7.269531 2.515625 -6.285156 2.515625 -5.046875 C 2.515625 -3.804688 2.800781 -2.820312 3.375 -2.09375 C 3.945312 -1.375 4.734375 -1.015625 5.734375 -1.015625 Z M 5.734375 -1.015625 "/></g></g><g style="fill:#9c9e9f;fill-opacity:1;"><g transform="translate(358.73984, 144.343909)"><path style="stroke:none" d="M 7.53125 -7.859375 C 7.257812 -8.253906 6.890625 -8.566406 6.421875 -8.796875 C 5.960938 -9.035156 5.425781 -9.15625 4.8125 -9.15625 C 4.113281 -9.15625 3.539062 -9.003906 3.09375 -8.703125 C 2.65625 -8.410156 2.4375 -8.023438 2.4375 -7.546875 C 2.4375 -7.253906 2.546875 -6.988281 2.765625 -6.75 C 2.992188 -6.519531 3.398438 -6.316406 3.984375 -6.140625 L 6.40625 -5.40625 C 7.238281 -5.175781 7.859375 -4.835938 8.265625 -4.390625 C 8.671875 -3.941406 8.875 -3.40625 8.875 -2.78125 C 8.875 -2.195312 8.695312 -1.675781 8.34375 -1.21875 C 7.988281 -0.769531 7.5 -0.421875 6.875 -0.171875 C 6.25 0.0664062 5.546875 0.1875 4.765625 0.1875 C 3.785156 0.1875 2.914062 -0.00390625 2.15625 -0.390625 C 1.394531 -0.773438 0.851562 -1.28125 0.53125 -1.90625 C 0.488281 -1.96875 0.46875 -2.019531 0.46875 -2.0625 C 0.46875 -2.125 0.503906 -2.171875 0.578125 -2.203125 L 1.3125 -2.625 C 1.4375 -2.707031 1.53125 -2.703125 1.59375 -2.609375 C 2.28125 -1.515625 3.34375 -0.96875 4.78125 -0.96875 C 5.53125 -0.976562 6.148438 -1.132812 6.640625 -1.4375 C 7.128906 -1.738281 7.375 -2.128906 7.375 -2.609375 C 7.375 -2.960938 7.226562 -3.257812 6.9375 -3.5 C 6.644531 -3.738281 6.164062 -3.957031 5.5 -4.15625 L 3.546875 -4.703125 C 2.617188 -4.941406 1.953125 -5.273438 1.546875 -5.703125 C 1.148438 -6.140625 0.953125 -6.671875 0.953125 -7.296875 C 0.953125 -7.878906 1.113281 -8.398438 1.4375 -8.859375 C 1.757812 -9.316406 2.210938 -9.664062 2.796875 -9.90625 C 3.390625 -10.15625 4.070312 -10.28125 4.84375 -10.28125 C 5.675781 -10.28125 6.425781 -10.117188 7.09375 -9.796875 C 7.757812 -9.484375 8.269531 -9.054688 8.625 -8.515625 C 8.71875 -8.390625 8.710938 -8.300781 8.609375 -8.25 L 7.8125 -7.8125 C 7.757812 -7.78125 7.71875 -7.765625 7.6875 -7.765625 C 7.644531 -7.765625 7.59375 -7.796875 7.53125 -7.859375 Z M 7.53125 -7.859375 "/></g></g><g style="fill:#9c9e9f;fill-opacity:1;"><g transform="translate(368.280804, 144.343909)"><path style="stroke:none" d="M 2.78125 -10.09375 C 2.957031 -10.09375 3.046875 -10 3.046875 -9.8125 L 3.046875 -9.015625 C 3.046875 -8.898438 3.078125 -8.84375 3.140625 -8.84375 C 3.179688 -8.84375 3.234375 -8.875 3.296875 -8.9375 C 3.554688 -9.195312 3.785156 -9.410156 3.984375 -9.578125 C 4.191406 -9.742188 4.492188 -9.898438 4.890625 -10.046875 C 5.285156 -10.203125 5.75 -10.28125 6.28125 -10.28125 C 7.082031 -10.28125 7.796875 -10.085938 8.421875 -9.703125 C 9.054688 -9.328125 9.550781 -8.757812 9.90625 -8 C 10.269531 -7.238281 10.453125 -6.304688 10.453125 -5.203125 C 10.453125 -4.085938 10.269531 -3.117188 9.90625 -2.296875 C 9.550781 -1.484375 9.039062 -0.863281 8.375 -0.4375 C 7.71875 -0.0195312 6.953125 0.1875 6.078125 0.1875 C 5.023438 0.1875 4.125 -0.128906 3.375 -0.765625 C 3.28125 -0.847656 3.207031 -0.890625 3.15625 -0.890625 C 3.09375 -0.890625 3.0625 -0.804688 3.0625 -0.640625 L 3.0625 2.890625 C 3.0625 3.054688 2.992188 3.140625 2.859375 3.140625 L 1.671875 3.140625 C 1.535156 3.140625 1.46875 3.054688 1.46875 2.890625 L 1.46875 -9.796875 C 1.46875 -9.890625 1.488281 -9.960938 1.53125 -10.015625 C 1.570312 -10.066406 1.648438 -10.09375 1.765625 -10.09375 Z M 3.0625 -2.234375 C 3.46875 -1.804688 3.878906 -1.488281 4.296875 -1.28125 C 4.710938 -1.070312 5.164062 -0.96875 5.65625 -0.96875 C 6.601562 -0.96875 7.363281 -1.328125 7.9375 -2.046875 C 8.519531 -2.773438 8.8125 -3.820312 8.8125 -5.1875 C 8.8125 -6.5 8.523438 -7.484375 7.953125 -8.140625 C 7.390625 -8.796875 6.65625 -9.125 5.75 -9.125 C 5.238281 -9.125 4.78125 -9.007812 4.375 -8.78125 C 3.96875 -8.5625 3.644531 -8.28125 3.40625 -7.9375 C 3.175781 -7.59375 3.0625 -7.257812 3.0625 -6.9375 Z M 3.0625 -2.234375 "/></g></g><g style="fill:#9c9e9f;fill-opacity:1;"><g transform="translate(379.440493, 144.343909)"><path style="stroke:none" d="M 3.140625 -12.265625 C 3.140625 -12.140625 3.113281 -12.046875 3.0625 -11.984375 C 3.007812 -11.929688 2.921875 -11.90625 2.796875 -11.90625 L 1.6875 -11.90625 C 1.5 -11.90625 1.40625 -12.015625 1.40625 -12.234375 L 1.40625 -13.828125 C 1.40625 -14.023438 1.492188 -14.125 1.671875 -14.125 L 2.875 -14.125 C 2.945312 -14.125 3.007812 -14.097656 3.0625 -14.046875 C 3.113281 -14.003906 3.140625 -13.9375 3.140625 -13.84375 Z M 3.0625 -0.328125 C 3.0625 -0.203125 3.035156 -0.113281 2.984375 -0.0625 C 2.941406 -0.0195312 2.851562 0 2.71875 0 L 1.75 0 C 1.632812 0 1.554688 -0.015625 1.515625 -0.046875 C 1.484375 -0.0859375 1.46875 -0.160156 1.46875 -0.265625 L 1.46875 -9.828125 C 1.46875 -10.003906 1.539062 -10.09375 1.6875 -10.09375 L 2.859375 -10.09375 C 2.992188 -10.09375 3.0625 -10.007812 3.0625 -9.84375 Z M 3.0625 -0.328125 "/></g></g><g style="fill:#9c9e9f;fill-opacity:1;"><g transform="translate(383.782463, 144.343909)"><path style="stroke:none" d="M 4.140625 -8.90625 C 4.035156 -8.90625 3.984375 -8.851562 3.984375 -8.75 L 3.984375 -2.703125 C 3.984375 -2.128906 4.078125 -1.734375 4.265625 -1.515625 C 4.453125 -1.304688 4.765625 -1.203125 5.203125 -1.203125 L 6.515625 -1.203125 C 6.648438 -1.203125 6.71875 -1.128906 6.71875 -0.984375 L 6.703125 -0.34375 C 6.703125 -0.21875 6.625 -0.132812 6.46875 -0.09375 C 6.144531 -0.03125 5.550781 0 4.6875 0 C 3.882812 0 3.296875 -0.1875 2.921875 -0.5625 C 2.554688 -0.9375 2.375 -1.53125 2.375 -2.34375 L 2.375 -8.703125 C 2.375 -8.835938 2.3125 -8.90625 2.1875 -8.90625 L 0.671875 -8.90625 C 0.523438 -8.90625 0.453125 -8.972656 0.453125 -9.109375 L 0.453125 -9.90625 C 0.453125 -10.03125 0.515625 -10.09375 0.640625 -10.09375 L 2.265625 -10.09375 C 2.359375 -10.09375 2.40625 -10.144531 2.40625 -10.25 L 2.609375 -13.28125 C 2.609375 -13.4375 2.675781 -13.515625 2.8125 -13.515625 L 3.765625 -13.515625 C 3.921875 -13.515625 4 -13.425781 4 -13.25 L 4 -10.25 C 4 -10.144531 4.050781 -10.09375 4.15625 -10.09375 L 6.546875 -10.09375 C 6.691406 -10.09375 6.765625 -10.035156 6.765625 -9.921875 L 6.765625 -9.109375 C 6.765625 -8.972656 6.691406 -8.90625 6.546875 -8.90625 Z M 4.140625 -8.90625 "/></g></g><g style="fill:#9c9e9f;fill-opacity:1;"><g transform="translate(390.94289, 144.343909)"><path style="stroke:none" d="M 7.328125 -1.21875 C 6.347656 -0.28125 5.21875 0.1875 3.9375 0.1875 C 2.945312 0.1875 2.171875 -0.0625 1.609375 -0.5625 C 1.046875 -1.0625 0.765625 -1.734375 0.765625 -2.578125 C 0.765625 -3.585938 1.191406 -4.382812 2.046875 -4.96875 C 2.898438 -5.550781 4.140625 -5.894531 5.765625 -6 L 7.25 -6.109375 C 7.46875 -6.140625 7.578125 -6.238281 7.578125 -6.40625 L 7.578125 -6.90625 C 7.578125 -7.59375 7.363281 -8.132812 6.9375 -8.53125 C 6.507812 -8.9375 5.9375 -9.140625 5.21875 -9.140625 C 4.101562 -9.140625 3.1875 -8.632812 2.46875 -7.625 C 2.4375 -7.5625 2.398438 -7.519531 2.359375 -7.5 C 2.316406 -7.476562 2.265625 -7.476562 2.203125 -7.5 L 1.1875 -7.84375 C 1.113281 -7.875 1.078125 -7.921875 1.078125 -7.984375 C 1.078125 -8.015625 1.097656 -8.070312 1.140625 -8.15625 C 1.523438 -8.820312 2.066406 -9.34375 2.765625 -9.71875 C 3.472656 -10.09375 4.3125 -10.28125 5.28125 -10.28125 C 6.519531 -10.28125 7.46875 -9.988281 8.125 -9.40625 C 8.789062 -8.832031 9.125 -8.039062 9.125 -7.03125 L 9.125 -0.28125 C 9.125 -0.164062 9.101562 -0.0859375 9.0625 -0.046875 C 9.03125 -0.015625 8.960938 0 8.859375 0 L 7.90625 0 C 7.75 0 7.660156 -0.101562 7.640625 -0.3125 L 7.59375 -1.1875 C 7.582031 -1.269531 7.550781 -1.3125 7.5 -1.3125 C 7.445312 -1.3125 7.390625 -1.28125 7.328125 -1.21875 Z M 7.578125 -4.84375 C 7.578125 -5.039062 7.484375 -5.140625 7.296875 -5.140625 L 6.0625 -5.03125 C 4.875 -4.957031 3.957031 -4.726562 3.3125 -4.34375 C 2.675781 -3.957031 2.359375 -3.429688 2.359375 -2.765625 C 2.359375 -2.210938 2.550781 -1.773438 2.9375 -1.453125 C 3.332031 -1.140625 3.851562 -0.984375 4.5 -0.984375 C 4.882812 -0.984375 5.269531 -1.050781 5.65625 -1.1875 C 6.039062 -1.332031 6.378906 -1.523438 6.671875 -1.765625 C 6.960938 -1.992188 7.1875 -2.238281 7.34375 -2.5 C 7.5 -2.757812 7.578125 -3.007812 7.578125 -3.25 Z M 7.578125 -4.84375 "/></g></g><g style="fill:#9c9e9f;fill-opacity:1;"><g transform="translate(401.169468, 144.343909)"><path style="stroke:none" d="M 3.078125 -0.328125 C 3.078125 -0.203125 3.050781 -0.113281 3 -0.0625 C 2.957031 -0.0195312 2.875 0 2.75 0 L 1.75 0 C 1.632812 0 1.554688 -0.015625 1.515625 -0.046875 C 1.484375 -0.0859375 1.46875 -0.160156 1.46875 -0.265625 L 1.484375 -13.859375 C 1.484375 -14.035156 1.5625 -14.125 1.71875 -14.125 L 2.859375 -14.125 C 3.003906 -14.125 3.078125 -14.046875 3.078125 -13.890625 Z M 3.078125 -0.328125 "/></g></g><g style="fill:#9c9e9f;fill-opacity:1;"><g transform="translate(405.511382, 144.343909)"><path style="stroke:none" d="M 7.328125 -1.21875 C 6.347656 -0.28125 5.21875 0.1875 3.9375 0.1875 C 2.945312 0.1875 2.171875 -0.0625 1.609375 -0.5625 C 1.046875 -1.0625 0.765625 -1.734375 0.765625 -2.578125 C 0.765625 -3.585938 1.191406 -4.382812 2.046875 -4.96875 C 2.898438 -5.550781 4.140625 -5.894531 5.765625 -6 L 7.25 -6.109375 C 7.46875 -6.140625 7.578125 -6.238281 7.578125 -6.40625 L 7.578125 -6.90625 C 7.578125 -7.59375 7.363281 -8.132812 6.9375 -8.53125 C 6.507812 -8.9375 5.9375 -9.140625 5.21875 -9.140625 C 4.101562 -9.140625 3.1875 -8.632812 2.46875 -7.625 C 2.4375 -7.5625 2.398438 -7.519531 2.359375 -7.5 C 2.316406 -7.476562 2.265625 -7.476562 2.203125 -7.5 L 1.1875 -7.84375 C 1.113281 -7.875 1.078125 -7.921875 1.078125 -7.984375 C 1.078125 -8.015625 1.097656 -8.070312 1.140625 -8.15625 C 1.523438 -8.820312 2.066406 -9.34375 2.765625 -9.71875 C 3.472656 -10.09375 4.3125 -10.28125 5.28125 -10.28125 C 6.519531 -10.28125 7.46875 -9.988281 8.125 -9.40625 C 8.789062 -8.832031 9.125 -8.039062 9.125 -7.03125 L 9.125 -0.28125 C 9.125 -0.164062 9.101562 -0.0859375 9.0625 -0.046875 C 9.03125 -0.015625 8.960938 0 8.859375 0 L 7.90625 0 C 7.75 0 7.660156 -0.101562 7.640625 -0.3125 L 7.59375 -1.1875 C 7.582031 -1.269531 7.550781 -1.3125 7.5 -1.3125 C 7.445312 -1.3125 7.390625 -1.28125 7.328125 -1.21875 Z M 7.578125 -4.84375 C 7.578125 -5.039062 7.484375 -5.140625 7.296875 -5.140625 L 6.0625 -5.03125 C 4.875 -4.957031 3.957031 -4.726562 3.3125 -4.34375 C 2.675781 -3.957031 2.359375 -3.429688 2.359375 -2.765625 C 2.359375 -2.210938 2.550781 -1.773438 2.9375 -1.453125 C 3.332031 -1.140625 3.851562 -0.984375 4.5 -0.984375 C 4.882812 -0.984375 5.269531 -1.050781 5.65625 -1.1875 C 6.039062 -1.332031 6.378906 -1.523438 6.671875 -1.765625 C 6.960938 -1.992188 7.1875 -2.238281 7.34375 -2.5 C 7.5 -2.757812 7.578125 -3.007812 7.578125 -3.25 Z M 7.578125 -4.84375 "/></g></g><g style="fill:#9c9e9f;fill-opacity:1;"><g transform="translate(415.73796, 144.343909)"><path style="stroke:none" d="M 1.734375 0 C 1.554688 0 1.46875 -0.0820312 1.46875 -0.25 L 1.46875 -9.84375 C 1.46875 -10.007812 1.535156 -10.09375 1.671875 -10.09375 L 2.78125 -10.09375 C 2.914062 -10.09375 2.984375 -10.023438 2.984375 -9.890625 L 2.984375 -8.640625 C 2.984375 -8.566406 3.003906 -8.523438 3.046875 -8.515625 C 3.097656 -8.503906 3.148438 -8.53125 3.203125 -8.59375 C 4.160156 -9.71875 5.144531 -10.28125 6.15625 -10.28125 C 6.59375 -10.28125 6.8125 -10.195312 6.8125 -10.03125 L 6.8125 -8.890625 C 6.8125 -8.765625 6.753906 -8.71875 6.640625 -8.75 C 6.410156 -8.78125 6.128906 -8.796875 5.796875 -8.796875 C 5.421875 -8.796875 5.015625 -8.6875 4.578125 -8.46875 C 4.148438 -8.257812 3.789062 -7.984375 3.5 -7.640625 C 3.207031 -7.296875 3.0625 -6.945312 3.0625 -6.59375 L 3.0625 -0.28125 C 3.0625 -0.09375 2.96875 0 2.78125 0 Z M 1.734375 0 "/></g></g><g style="fill:#9c9e9f;fill-opacity:1;"><g transform="translate(422.822218, 144.343909)"><path style="stroke:none" d="M 2.53125 -4.421875 C 2.53125 -3.804688 2.675781 -3.238281 2.96875 -2.71875 C 3.269531 -2.195312 3.675781 -1.785156 4.1875 -1.484375 C 4.695312 -1.179688 5.253906 -1.03125 5.859375 -1.03125 C 7.128906 -1.03125 8.125 -1.554688 8.84375 -2.609375 C 8.882812 -2.660156 8.925781 -2.6875 8.96875 -2.6875 C 9.007812 -2.695312 9.054688 -2.691406 9.109375 -2.671875 L 9.90625 -2.265625 C 10.007812 -2.203125 10.019531 -2.113281 9.9375 -2 C 9.445312 -1.238281 8.859375 -0.679688 8.171875 -0.328125 C 7.484375 0.015625 6.664062 0.1875 5.71875 0.1875 C 4.789062 0.1875 3.957031 -0.0234375 3.21875 -0.453125 C 2.476562 -0.890625 1.898438 -1.5 1.484375 -2.28125 C 1.078125 -3.0625 0.875 -3.953125 0.875 -4.953125 C 0.875 -6.035156 1.082031 -6.976562 1.5 -7.78125 C 1.925781 -8.582031 2.503906 -9.195312 3.234375 -9.625 C 3.960938 -10.0625 4.78125 -10.28125 5.6875 -10.28125 C 6.601562 -10.28125 7.40625 -10.078125 8.09375 -9.671875 C 8.789062 -9.265625 9.328125 -8.671875 9.703125 -7.890625 C 10.085938 -7.109375 10.28125 -6.1875 10.28125 -5.125 L 10.28125 -5.046875 C 10.28125 -4.929688 10.257812 -4.84375 10.21875 -4.78125 C 10.1875 -4.726562 10.113281 -4.703125 10 -4.703125 L 2.703125 -4.703125 C 2.585938 -4.703125 2.53125 -4.609375 2.53125 -4.421875 Z M 8.359375 -5.75 C 8.503906 -5.75 8.59375 -5.765625 8.625 -5.796875 C 8.664062 -5.828125 8.6875 -5.898438 8.6875 -6.015625 C 8.6875 -6.578125 8.566406 -7.09375 8.328125 -7.5625 C 8.097656 -8.039062 7.753906 -8.421875 7.296875 -8.703125 C 6.847656 -8.992188 6.328125 -9.140625 5.734375 -9.140625 C 5.085938 -9.140625 4.519531 -8.976562 4.03125 -8.65625 C 3.550781 -8.332031 3.179688 -7.910156 2.921875 -7.390625 C 2.671875 -6.878906 2.554688 -6.332031 2.578125 -5.75 Z M 8.359375 -5.75 "/></g></g><g style="fill:#9c9e9f;fill-opacity:1;"><g transform="translate(433.677226, 144.343909)"><path style="stroke:none" d="M 7.53125 -7.859375 C 7.257812 -8.253906 6.890625 -8.566406 6.421875 -8.796875 C 5.960938 -9.035156 5.425781 -9.15625 4.8125 -9.15625 C 4.113281 -9.15625 3.539062 -9.003906 3.09375 -8.703125 C 2.65625 -8.410156 2.4375 -8.023438 2.4375 -7.546875 C 2.4375 -7.253906 2.546875 -6.988281 2.765625 -6.75 C 2.992188 -6.519531 3.398438 -6.316406 3.984375 -6.140625 L 6.40625 -5.40625 C 7.238281 -5.175781 7.859375 -4.835938 8.265625 -4.390625 C 8.671875 -3.941406 8.875 -3.40625 8.875 -2.78125 C 8.875 -2.195312 8.695312 -1.675781 8.34375 -1.21875 C 7.988281 -0.769531 7.5 -0.421875 6.875 -0.171875 C 6.25 0.0664062 5.546875 0.1875 4.765625 0.1875 C 3.785156 0.1875 2.914062 -0.00390625 2.15625 -0.390625 C 1.394531 -0.773438 0.851562 -1.28125 0.53125 -1.90625 C 0.488281 -1.96875 0.46875 -2.019531 0.46875 -2.0625 C 0.46875 -2.125 0.503906 -2.171875 0.578125 -2.203125 L 1.3125 -2.625 C 1.4375 -2.707031 1.53125 -2.703125 1.59375 -2.609375 C 2.28125 -1.515625 3.34375 -0.96875 4.78125 -0.96875 C 5.53125 -0.976562 6.148438 -1.132812 6.640625 -1.4375 C 7.128906 -1.738281 7.375 -2.128906 7.375 -2.609375 C 7.375 -2.960938 7.226562 -3.257812 6.9375 -3.5 C 6.644531 -3.738281 6.164062 -3.957031 5.5 -4.15625 L 3.546875 -4.703125 C 2.617188 -4.941406 1.953125 -5.273438 1.546875 -5.703125 C 1.148438 -6.140625 0.953125 -6.671875 0.953125 -7.296875 C 0.953125 -7.878906 1.113281 -8.398438 1.4375 -8.859375 C 1.757812 -9.316406 2.210938 -9.664062 2.796875 -9.90625 C 3.390625 -10.15625 4.070312 -10.28125 4.84375 -10.28125 C 5.675781 -10.28125 6.425781 -10.117188 7.09375 -9.796875 C 7.757812 -9.484375 8.269531 -9.054688 8.625 -8.515625 C 8.71875 -8.390625 8.710938 -8.300781 8.609375 -8.25 L 7.8125 -7.8125 C 7.757812 -7.78125 7.71875 -7.765625 7.6875 -7.765625 C 7.644531 -7.765625 7.59375 -7.796875 7.53125 -7.859375 Z M 7.53125 -7.859375 "/></g></g></g></svg>